<svg width="100%" height="100%" viewBox="0 0 5250 3000" xmlns="http://www.w3.org/2000/svg" style="fill-rule:evenodd;clip-rule:evenodd;stroke-linejoin:round;stroke-miterlimit:2;"><g><path d="M0,3000l0,-3000l5250,0l0,4.176l-62.38,0l0,96.813l62.38,0l0,4.176l-62.38,0l0,96.814l62.38,0l0,4.176l-62.38,0l0,96.813l62.38,0l0,4.176l-62.38,0l0,96.814l62.38,0l0,4.176l-62.38,0l0,96.814l62.38,0l0,4.176l-62.38,0l0,96.816l62.38,0l0,4.176l-62.38,0l0,96.813l62.38,0l0,4.176l-62.38,0l0,96.813l62.38,0l0,4.177l-62.38,0l0,96.818l62.38,0l0,4.17l-62.38,0l0,96.81l62.38,0l0,4.18l-62.38,0l0,96.82l62.38,0l0,4.17l-62.38,0l0,96.81l62.38,0l0,4.18l-62.38,0l0,96.81l62.38,0l0,4.18l-62.38,0l0,96.81l62.38,0l0,4.176l-62.38,0l0,96.813l62.38,0l0,4.176l-62.38,0l0,96.814l62.38,0l0,4.176l-62.38,0l0,96.813l62.38,0l0,4.176l-62.38,0l0,96.814l62.38,0l0,4.176l-62.38,0l0,96.814l62.38,0l0,4.176l-62.38,0l0,96.816l62.38,0l0,4.176l-62.38,0l0,96.813l62.38,0l0,4.176l-62.38,0l0,96.813l62.38,0l0,4.177l-62.38,0l0,96.818l62.38,0l0,4.17l-62.38,0l0,96.81l62.38,0l0,4.18l-62.38,0l0,96.82l62.38,0l0,4.17l-62.38,0l0,96.81l62.38,0l0,4.18l-62.38,0l0,96.81l62.38,0l0,4.18l-62.38,0l0,96.81l62.38,0l0,4.176l-62.38,0l0,96.813l62.38,0l0,4.176l-62.38,0l0,67.129l-4.18,0l0,-67.129l-93.62,0l0,67.129l-4.18,0l0,-67.129l-93.62,0l0,67.129l-4.18,0l0,-67.129l-93.62,0l0,67.129l-4.18,0l-0,-67.129l-93.62,0l0,67.129l-4.18,0l0,-67.129l-93.62,0l0,67.129l-4.18,0l0,-67.129l-93.62,0l0,67.129l-4.18,0l0,-67.129l-93.62,0l0,67.129l-4.18,0l0,-67.129l-93.63,0l0,67.129l-4.17,0l0,-67.129l-93.63,0l0,67.129l-4.17,0l0,-67.129l-93.63,0l0,67.129l-4.17,0l0,-67.129l-93.63,0l0,67.129l-4.18,0l0,-67.129l-93.62,0l0,67.129l-4.18,0l0,-67.129l-93.62,0l0,67.129l-4.18,0l0,-67.129l-93.62,0l0,67.129l-4.18,0l0,-67.129l-93.62,0l0,67.129l-4.18,0l0,-67.129l-93.62,0l0,67.129l-4.18,0l0,-67.129l-93.626,0l0,67.129l-4.175,0l0,-67.129l-93.625,0l0,67.129l-4.177,0l0,-67.129l-93.624,0l0,67.129l-4.176,0l0,-67.129l-93.624,0l0,67.129l-4.177,0l0,-67.129l-93.625,0l0,67.129l-4.175,0l0,-67.129l-93.624,0l0,67.129l-4.176,0l0,-67.129l-93.625,0l0,67.129l-4.176,0l0,-67.129l-93.625,0l0,67.129l-4.176,0l0,-67.129l-93.624,0l0,67.129l-4.176,0l0,-67.129l-93.628,0l0,67.129l-4.176,0l0,-67.129l-93.62,0l-0,67.129l-4.18,0l0,-67.129l-93.62,0l-0,67.129l-4.18,0l-0,-67.129l-93.62,0l0,67.129l-4.18,0l-0,-67.129l-93.62,0l0,67.129l-4.18,0l-0,-67.129l-93.62,0l0,67.129l-4.18,0l0,-67.129l-93.62,0l-0,67.129l-4.18,0l0,-67.129l-93.62,0l0,67.129l-4.18,0l-0,-67.129l-93.62,0l-0,67.129l-4.18,0l-0,-67.129l-93.63,0l0,67.129l-4.17,0l0,-67.129l-93.63,0l0,67.129l-4.17,0l-0,-67.129l-93.63,0l-0,67.129l-4.17,0l0,-67.129l-93.63,0l0,67.129l-4.18,0l-0,-67.129l-93.62,0l-0,67.129l-4.18,0l0,-67.129l-93.62,0l0,67.129l-4.18,0l0,-67.129l-93.62,0l0,67.129l-4.18,0l-0,-67.129l-93.62,0l-0,67.129l-4.18,0l0,-67.129l-93.62,0l0,67.129l-4.18,0l-0,-67.129l-93.626,0l0,67.129l-4.175,0l0,-67.129l-93.625,0l0,67.129l-4.177,0l0,-67.129l-93.624,0l-0,67.129l-4.176,0l0,-67.129l-93.624,0l0,67.129l-4.177,0l-0,-67.129l-93.625,0l-0,67.129l-4.175,0l0,-67.129l-93.624,0l-0,67.129l-4.176,0l-0,-67.129l-93.625,0l-0,67.129l-4.176,0l-0,-67.129l-93.625,0l-0,67.129l-4.176,0l0,-67.129l-93.624,0l-0,67.129l-4.176,0l0,-67.129l-93.628,0l0,67.129l-4.176,0Zm1956.02,-172.294l-0,-96.81l-93.62,0l-0,96.81l93.62,0Zm-489.01,0l-0,-96.81l-93.62,0l-0,96.81l93.62,0Zm293.41,0l0,-96.81l-93.63,0l0,96.81l93.63,0Zm97.8,0l-0,-96.81l-93.63,0l0,96.81l93.63,0Zm-195.6,0l-0,-96.81l-93.63,0l-0,96.81l93.63,0Zm-97.8,0l0,-96.81l-93.63,0l0,96.81l93.63,0Zm-1271.41,0l-0,-96.81l-93.625,0l-0,96.81l93.625,0Zm586.804,0l0,-96.81l-93.625,0l0,96.81l93.625,0Zm-391.203,0l0,-96.81l-93.624,0l-0,96.81l93.624,0Zm684.604,0l-0,-96.81l-93.62,0l-0,96.81l93.62,0Zm-782.404,0l-0,-96.81l-93.625,0l-0,96.81l93.625,0Zm3912.03,4.176l-93.63,0l0,96.813l93.63,0l0,-96.813Zm391.2,0l-93.62,0l0,96.813l93.62,0l0,-96.813Zm-782.41,0l-93.62,0l0,96.813l93.62,0l0,-96.813Zm-2640.62,-4.176l0,-96.81l-93.62,0l0,96.81l93.62,0Zm-1173.61,0l0,-96.81l-93.628,0l0,96.81l93.628,0Zm5085.64,4.176l-93.62,0l0,96.813l93.62,0l0,-96.813Zm-4498.83,-4.176l0,-96.81l-93.624,0l0,96.81l93.624,0Zm391.203,0l0,-96.81l-93.62,0l0,96.81l93.62,0Zm293.4,0l0,-96.81l-93.62,0l0,96.81l93.62,0Zm-1173.61,0l0,-96.81l-93.624,0l-0,96.81l93.624,0Zm391.202,0l-0,-96.81l-93.625,0l-0,96.81l93.625,0Zm391.204,0l-0,-96.81l-93.626,0l0,96.81l93.626,0Zm-195.603,0l0,-96.81l-93.624,0l-0,96.81l93.624,0Zm1564.81,-1413.85l-0,-96.81l-93.62,0l0,96.81l93.62,0Zm-293.4,0l0,-96.81l-93.62,0l0,96.81l93.62,0Zm97.8,0l0,-96.81l-93.62,0l-0,96.81l93.62,0Zm293.4,0l-0,-96.81l-93.62,0l0,96.81l93.62,0Zm2053.82,-1308.69l-93.63,0l0,96.814l93.63,0l0,-96.814Zm-1564.82,0l-93.625,0l0,96.814l93.625,0l0,-96.814Zm395.378,1207.7l93.624,0l0,-96.81l-93.624,0l0,96.81Zm191.426,-1207.7l-93.625,0l0,96.814l93.625,0l0,-96.814Zm1467.01,0l-93.62,0l0,96.814l93.62,0l0,-96.814Zm-2343.04,807.918l0,96.81l93.628,0l0,-96.81l-93.628,0Zm1658.44,-807.918l-93.63,0l0,96.814l93.63,0l0,-96.814Zm-191.43,1207.7l93.63,0l0,-96.81l-93.63,0l0,96.81Zm-1369.21,-500.768l0,96.818l93.624,0l0,-96.818l-93.624,0Zm1658.44,-605.94l-93.63,0l0,96.813l93.63,0l0,-96.813Zm293.4,-100.99l-93.62,0l0,96.814l93.62,0l0,-96.814Zm-978.01,100.99l-93.62,0l0,96.813l93.62,0l0,-96.813Zm1467.01,-201.979l-93.62,0l0,96.813l93.62,0l0,-96.813Zm-782.4,0l-93.63,0l0,96.813l93.63,0l0,-96.813Zm-97.8,201.979l-93.63,0l0,96.813l93.63,0l0,-96.813Zm-778.236,1106.71l93.626,0l0,-96.81l-93.626,0l0,96.81Zm1169.44,-1308.69l-93.62,0l0,96.813l93.62,0l0,-96.813Zm-1071.63,1308.69l93.62,0l0,-96.81l-93.62,0l0,96.81Zm778.23,-1207.7l-93.63,0l0,96.814l93.63,0l0,-96.814Zm-1756.24,1009.9l0,96.81l93.628,0l0,-96.81l-93.628,0Zm2245.24,-1009.9l-93.62,0l0,96.814l93.62,0l-0,-96.814Zm-1271.41,0l-93.626,0l0,96.814l93.626,0l0,-96.814Zm-1662.61,1308.69l-0,-96.81l-93.62,0l-0,96.81l93.62,0Zm293.4,0l-0,-96.81l-93.62,0l0,96.81l93.62,0Zm982.183,-100.99l93.624,0l0,-96.81l-93.624,0l0,96.81Zm1951.84,-1207.7l-93.62,0l0,96.814l93.62,0l0,-96.814Zm-778.23,1207.7l93.63,0l0,-96.81l-93.63,0l0,96.81Zm-1662.61,0l93.624,0l0,-96.81l-93.624,0l0,96.81Zm0,-702.747l0,96.813l93.624,0l0,-96.813l-93.624,0Zm1071.63,-403.961l-93.62,0l0,96.813l93.62,0l0,-96.813Zm4.18,1106.71l93.62,0l0,-96.81l-93.62,0l0,96.81Zm-786.584,-1207.7l-93.625,0l0,96.814l93.625,0l0,-96.814Zm1760.41,-100.989l-93.62,0l0,96.813l93.62,0l0,-96.813Zm-880.21,100.989l-93.62,0l0,96.814l93.62,0l0,-96.814Zm-489.003,0l-93.624,0l0,96.814l93.624,0l0,-96.814Zm-680.427,908.908l0,96.82l93.624,0l0,-96.82l-93.624,0Zm2440.84,-711.105l0,-96.813l-93.62,0l0,96.813l93.62,0Zm-1956.01,-96.813l-93.625,0l0,96.813l93.625,0l0,-96.813Zm1956.01,1106.71l0,-96.81l-93.62,0l0,96.81l93.62,0Zm-1564.81,-1106.71l-93.626,0l0,96.813l93.626,0l0,-96.813Zm391.2,-100.99l-93.62,0l0,96.814l93.62,0l0,-96.814Zm4.18,1207.7l93.62,0l0,-96.81l-93.62,0l0,96.81Zm-1271.41,-399.78l0,96.81l93.624,0l0,-96.81l-93.624,0Zm2440.84,-4.17l0,-96.818l-93.62,0l0,96.818l93.62,0Zm-2245.24,403.95l93.625,0l0,-96.81l-93.625,0l0,96.81Zm582.628,-1106.71l-93.625,0l0,96.813l93.625,0l0,-96.813Zm-778.229,504.95l0,96.813l93.624,0l0,-96.813l-93.624,0Zm2440.84,399.788l0,-96.82l-93.62,0l0,96.82l93.62,0Zm-2343.04,201.97l93.625,0l0,-96.81l-93.625,0l0,96.81Zm484.827,-1106.71l-93.624,0l0,96.813l93.624,0l0,-96.813Zm489.003,-100.99l-93.62,0l0,96.814l93.62,0l0,-96.814Zm684.61,-100.989l-93.63,0l0,96.813l93.63,0l0,-96.813Zm-1071.64,1308.69l93.625,0l0,-96.81l-93.625,0l0,96.81Zm489.006,0l93.62,0l0,-96.81l-93.62,0l0,96.81Zm-786.584,-1207.7l-93.624,0l0,96.814l93.624,0l0,-96.814Zm782.404,100.99l-93.62,0l0,96.813l93.62,0l0,-96.813Zm1173.61,399.785l0,-96.816l-93.62,0l0,96.816l93.62,0Zm0,100.989l0,-96.813l-93.62,0l0,96.813l93.62,0Zm-1075.81,-500.774l-93.62,0l0,96.813l93.62,0l0,-96.813Zm688.79,1005.72l93.62,0l0,-96.81l-93.62,0l0,96.81Zm-1564.82,100.99l93.625,0l0,-96.81l-93.625,0l0,96.81Zm1854.04,-1106.71l-93.62,0l0,96.813l93.62,0l0,-96.813Zm-782.4,0l-93.63,0l0,96.813l93.63,0l0,-96.813Zm978,1005.72l0,-96.81l-93.62,0l0,96.81l93.62,0Zm-191.42,100.99l93.62,0l0,-96.81l-93.62,0l0,96.81Zm-880.21,-100.99l93.63,0l0,-96.81l-93.63,0l0,96.81Zm782.41,100.99l93.62,0l0,-96.81l-93.62,0l0,96.81Zm289.22,-504.945l0,-96.813l-93.62,0l0,96.813l93.62,0Zm-2147.44,504.945l93.624,0l0,-96.81l-93.624,0l0,96.81Zm2049.64,-1207.7l-93.62,0l0,96.814l93.62,0l0,-96.814Zm-2343.04,403.959l0,96.816l93.624,0l0,-96.816l-93.624,0Zm0,-100.99l0,96.814l93.624,0l0,-96.814l-93.624,0Zm0,-100.99l0,96.814l93.624,0l0,-96.814l-93.624,0Zm978.01,1005.72l93.62,0l0,-96.81l-93.62,0l0,96.81Zm1462.83,-302.97l0,-96.81l-93.62,0l0,96.81l93.62,0Zm0,-302.964l0,-96.813l-93.62,0l0,96.813l93.62,0Zm-1075.81,-500.774l-93.62,0l0,96.813l93.62,0l0,-96.813Zm586.81,0l-93.62,0l0,96.813l93.62,0l0,-96.813Zm-1271.41,0l-93.624,0l0,96.813l93.624,0l0,-96.813Zm1760.41,197.803l0,-96.814l-93.62,0l0,96.814l93.62,0Zm-2440.84,711.105l0,96.81l93.624,0l0,-96.81l-93.624,0Zm1756.24,-908.908l-93.63,0l0,96.813l93.63,0l0,-96.813Zm-1369.21,0l-93.624,0l0,96.813l93.624,0l0,-96.813Zm2053.81,399.785l0,-96.816l-93.62,0l0,96.816l93.62,0Zm-97.8,302.973l0,-96.818l-93.62,0l0,96.818l93.62,0Zm0,100.98l0,-96.81l-93.62,0l0,96.81l93.62,0Zm-680.43,201.98l93.63,0l0,-96.81l-93.63,0l0,96.81Zm195.61,100.99l93.62,0l0,-96.81l-93.62,0l0,96.81Zm-1275.59,-1308.69l-93.624,0l0,96.813l93.624,0l0,-96.813Zm-391.202,0l-93.625,0l0,96.813l93.625,0l0,-96.813Zm195.601,0l-93.624,0l0,96.813l93.624,0l0,-96.813Zm-195.601,201.979l-93.625,0l0,96.813l93.625,0l0,-96.813Zm97.801,0l-93.625,0l0,96.813l93.625,0l0,-96.813Zm-387.03,-100.99l0,96.814l93.628,0l0,-96.814l-93.628,0Zm778.231,-100.989l-93.624,0l0,96.813l93.624,0l0,-96.813Zm1275.59,1308.69l93.62,0l0,-96.81l-93.62,0l0,96.81Zm387.02,-908.905l0,-96.814l-93.62,0l0,96.814l93.62,0Zm-2440.84,105.166l0,96.816l93.628,0l0,-96.816l-93.628,0Zm2151.62,803.739l93.62,0l-0,-96.81l-93.62,0l0,96.81Zm-2053.82,-1106.71l0,96.813l93.624,0l0,-96.813l-93.624,0Zm-4.176,-201.979l-93.628,0l0,96.813l93.628,0l0,-96.813Zm1471.19,1308.69l93.63,0l0,-96.81l-93.63,0l0,96.81Zm293.41,-100.99l93.62,0l0,-96.81l-93.62,0l0,96.81Zm-1858.22,-904.729l0,96.814l93.628,0l0,-96.814l-93.628,0Zm195.604,605.939l0,96.81l93.625,0l0,-96.81l-93.625,0Zm2245.24,-706.928l-93.62,0l0,96.813l93.62,0l0,-96.813Zm-778.23,1106.71l93.63,0l0,-96.81l-93.63,0l0,96.81Zm-1662.61,-904.729l0,96.814l93.628,0l0,-96.814l-93.628,0Zm2538.64,96.814l0,-96.814l-93.62,0l0,96.814l93.62,0Zm-876.03,706.925l93.63,0l0,-96.81l-93.63,0l0,96.81Zm289.23,-1005.72l-93.62,0l0,96.813l93.62,0l0,-96.813Zm199.78,1005.72l93.62,0l-0,-96.81l-93.62,0l0,96.81Zm-1177.79,-904.729l-93.626,0l0,96.814l93.626,0l0,-96.814Zm-586.804,-302.968l-93.625,0l0,96.813l93.625,0l0,-96.813Zm489.003,0l-93.625,0l0,96.813l93.625,0l0,-96.813Zm1271.41,201.979l-93.62,0l0,96.813l93.62,0l0,-96.813Zm-191.42,1005.72l93.62,0l0,-96.81l-93.62,0l0,96.81Zm-982.19,-1207.7l-93.626,0l0,96.813l93.626,0l0,-96.813Zm195.6,0l-93.62,0l0,96.813l93.62,0l0,-96.813Zm-97.8,0l-93.62,0l0,96.813l93.62,0l0,-96.813Zm-195.601,302.968l-93.625,0l0,96.814l93.625,0l0,-96.814Zm1564.81,803.749l0,-96.82l-93.62,0l0,96.82l93.62,0Zm0,-605.945l0,-96.814l-93.62,0l0,96.814l93.62,0Zm-191.42,706.925l93.62,0l0,-96.81l-93.62,0l0,96.81Zm-884.39,-904.729l-93.62,0l0,96.814l93.62,0l0,-96.814Zm-1169.43,0l0,96.814l93.625,0l0,-96.814l-93.625,0Zm880.21,904.729l93.62,0l0,-96.81l-93.62,0l0,96.81Zm1267.23,-706.925l0,-96.814l-93.62,0l0,96.814l93.62,0Zm-2147.44,105.168l0,96.813l93.625,0l0,-96.813l-93.625,0Zm684.604,601.757l93.626,0l0,-96.81l-93.626,0l0,96.81Zm-195.601,0l93.624,0l0,-96.81l-93.624,0l0,96.81Zm-493.179,-1207.7l-93.624,0l0,96.813l93.624,0l0,-96.813Zm1075.81,302.968l-93.62,0l0,96.814l93.62,0l0,-96.814Zm-484.826,904.729l93.625,0l0,-96.81l-93.625,0l0,96.81Zm-586.804,-399.778l0,96.818l93.625,0l0,-96.818l-93.625,0Zm978.01,399.778l93.62,0l0,-96.81l-93.62,0l0,96.81Zm684.61,100.99l93.62,0l0,-96.81l-93.62,0l0,96.81Zm582.62,-504.945l0,-96.813l-93.62,0l0,96.813l93.62,0Zm-2053.81,-500.774l-93.625,0l0,96.814l93.625,0l0,-96.814Zm-387.03,-100.989l0,96.813l93.628,0l0,-96.813l-93.628,0Zm1564.81,1005.72l93.63,0l0,-96.81l-93.63,0l0,96.81Zm-982.184,-1207.7l-93.625,0l0,96.813l93.625,0l0,-96.813Zm-97.8,302.968l-93.624,0l0,96.814l93.624,0l0,-96.814Zm493.184,904.729l93.62,0l0,-96.81l-93.62,0l0,96.81Zm-391.207,0l93.624,0l0,-96.81l-93.624,0l0,96.81Zm-293.402,0l93.625,0l0,-96.81l-93.625,0l0,96.81Zm-97.801,-500.768l0,96.813l93.625,0l0,-96.813l-93.625,0Zm2049.64,-504.95l-93.62,0l0,96.813l93.62,0l-0,-96.813Zm-195.6,100.989l-93.62,0l0,96.814l93.62,0l0,-96.814Zm-880.21,0l-93.62,0l0,96.814l93.62,0l0,-96.814Zm1271.41,904.729l0,-96.81l-93.62,0l0,96.81l93.62,0Zm-2245.24,-197.8l0,96.82l93.625,0l0,-96.82l-93.625,0Zm0,-504.949l0,96.816l93.625,0l0,-96.816l-93.625,0Zm876.03,-201.98l-93.62,0l0,96.814l93.62,0l0,-96.814Zm-876.03,904.729l93.625,0l0,-96.81l-93.625,0l0,96.81Zm1658.44,-904.729l-93.63,0l0,96.814l93.63,0l0,-96.814Zm101.98,803.749l93.62,0l0,-96.82l-93.62,0l0,96.82Zm387.02,-101l0,-96.81l-93.62,0l0,96.81l93.62,0Zm-582.63,101l93.63,0l0,-96.82l-93.63,0l0,96.82Zm-391.2,100.98l93.62,0l0,-96.81l-93.62,0l0,96.81Zm778.23,-904.729l-93.62,0l0,96.814l93.62,0l0,-96.814Zm-1071.63,803.749l93.62,0l0,-96.82l-93.62,0l0,96.82Zm-684.608,100.98l93.624,0l0,-96.81l-93.624,0l0,96.81Zm1951.84,-302.96l0,-96.818l-93.62,0l0,96.818l93.62,0Zm-1365.03,201.98l93.62,0l0,-96.82l-93.62,0l0,96.82Zm-489.009,100.98l93.625,0l0,-96.81l-93.625,0l0,96.81Zm387.028,-803.739l-93.625,0l0,96.814l93.625,0l0,-96.814Zm-93.625,702.759l93.625,0l0,-96.82l-93.625,0l0,96.82Zm1560.64,-504.953l0,-96.816l-93.62,0l0,96.816l93.62,0Zm-2151.62,-500.775l-93.624,0l0,96.814l93.624,0l0,-96.814Zm1960.2,1005.73l93.62,0l-0,-96.82l-93.62,0l0,96.82Zm93.62,-803.749l-93.62,0l0,96.814l93.62,0l-0,-96.814Zm-778.23,803.749l93.63,0l0,-96.82l-93.63,0l0,96.82Zm-786.583,-803.749l-93.624,0l0,96.814l93.624,0l0,-96.814Zm880.213,0l-93.63,0l0,96.814l93.63,0l0,-96.814Zm-289.23,904.729l93.62,0l0,-96.81l-93.62,0l0,96.81Zm1071.63,-504.944l0,-96.813l-93.62,0l0,96.813l93.62,0Zm-680.43,403.964l93.63,0l0,-96.82l-93.63,0l0,96.82Zm680.43,-302.975l0,-96.813l-93.62,0l0,96.813l93.62,0Zm-586.8,-500.774l-93.63,0l0,96.814l93.63,0l0,-96.814Zm-387.03,803.749l93.62,0l0,-96.82l-93.62,0l0,96.82Zm-786.584,-803.749l-93.625,0l0,96.814l93.625,0l0,-96.814Zm195.601,0l-93.624,0l0,96.814l93.624,0l0,-96.814Zm-582.627,100.99l0,96.814l93.625,0l0,-96.814l-93.625,0Zm97.801,403.961l0,96.818l93.625,0l0,-96.818l-93.625,0Zm391.202,298.798l93.624,0l0,-96.82l-93.624,0l0,96.82Zm-101.977,-702.759l-93.625,0l0,96.814l93.625,0l0,-96.814Zm293.403,100.99l-93.625,0l0,96.816l93.625,0l0,-96.816Zm-387.028,601.769l93.625,0l0,-96.82l-93.625,0l0,96.82Zm97.802,-101l93.624,0l0,-96.81l-93.624,0l0,96.81Zm1756.24,101l0,-96.82l-93.62,0l0,96.82l93.62,0Zm-97.8,-403.964l-0,-96.813l-93.62,0l0,96.813l93.62,0Zm97.8,-399.785l-93.62,0l0,96.814l93.62,0l0,-96.814Zm-1169.43,803.749l93.62,0l0,-96.82l-93.62,0l0,96.82Zm191.42,-702.759l-93.62,0l0,96.814l93.62,0l0,-96.814Zm-195.6,0l-93.62,0l0,96.814l93.62,0l0,-96.814Zm782.41,-100.99l-93.62,0l0,96.814l93.62,0l0,-96.814Zm-978.01,100.99l-93.626,0l0,96.814l93.626,0l0,-96.814Zm684.61,0l-93.63,0l0,96.814l93.63,0l0,-96.814Zm-1267.24,702.759l93.624,0l0,-96.82l-93.624,0l0,96.82Zm489.002,0l93.626,0l0,-96.82l-93.626,0l0,96.82Zm978.016,0l93.62,0l0,-96.82l-93.62,0l0,96.82Zm-1467.02,-601.769l0,96.816l93.624,0l0,-96.816l-93.624,0Zm1267.24,-201.98l-93.63,0l0,96.814l93.63,0l0,-96.814Zm-387.03,803.749l93.62,0l0,-96.82l-93.62,0l0,96.82Zm782.41,0l93.62,0l0,-96.82l-93.62,0l0,96.82Zm-590.99,-803.749l-93.62,0l0,96.814l93.62,0l0,-96.814Zm-1169.43,302.972l0,96.813l93.625,0l0,-96.813l-93.625,0Zm1658.44,-201.982l-93.62,0l0,96.814l93.62,0l0,-96.814Zm-1365.04,702.759l93.624,0l0,-96.82l-93.624,0l0,96.82Zm973.837,-702.759l-93.63,0l0,96.814l93.63,0l0,-96.814Zm-1267.24,0l0,96.814l93.625,0l0,-96.814l-93.625,0Zm1271.41,702.759l93.63,0l0,-96.82l-93.63,0l0,96.82Zm-101.98,-702.759l-93.62,0l0,96.814l93.62,0l0,-96.814Zm395.39,601.759l93.62,0l0,-96.81l-93.62,0l0,96.81Zm-1079.99,-601.759l-93.624,0l0,96.814l93.624,0l0,-96.814Zm-2249.42,1312.86l-93.62,0l-0,96.814l93.62,0l-0,-96.814Zm-97.8,0l-93.62,0l0,96.814l93.62,0l0,-96.814Zm1862.39,-1009.89l0,96.813l93.625,0l0,-96.813l-93.625,0Zm-1564.81,1914.62l93.62,0l-0,-96.81l-93.62,0l-0,96.81Zm-684.607,0l93.624,0l0,-96.81l-93.624,0l-0,96.81Zm2440.84,-2217.59l-93.624,0l0,96.814l93.624,0l0,-96.814Zm1760.41,0l-93.62,0l0,96.814l93.62,0l-0,-96.814Zm-1564.81,0l-93.624,0l0,96.814l93.624,0l0,-96.814Zm1173.61,0l-93.63,0l0,96.814l93.63,0l0,-96.814Zm-3223.25,2217.59l93.62,0l0,-96.81l-93.62,0l0,96.81Zm3516.65,-2217.59l-93.62,0l0,96.814l93.62,0l0,-96.814Zm-4299.06,2217.59l93.625,0l-0,-96.81l-93.625,0l-0,96.81Zm2542.82,-2015.61l0,96.813l93.624,0l0,-96.813l-93.624,0Zm-2836.22,1615.83l-0,96.818l93.625,0l-0,-96.818l-93.625,0Zm191.426,-504.951l-93.625,0l-0,96.814l93.625,0l-0,-96.814Zm590.984,904.729l93.62,0l0,-96.81l-93.62,0l0,96.81Zm387.02,-904.729l-93.62,0l0,96.814l93.62,0l0,-96.814Zm1568.99,-807.914l0,96.81l93.625,0l0,-96.81l-93.625,0Zm-2738.42,1110.89l-0,96.813l93.625,0l-0,-96.813l-93.625,0Zm4690.26,-1418.03l-0,-96.816l-93.62,0l0,96.816l93.62,0Zm-4009.83,1115.06l-93.625,0l0,96.814l93.625,0l0,-96.814Zm3520.83,-1312.86l-93.63,0l0,96.814l93.63,0l0,-96.814Zm-3810.06,2217.59l93.624,0l0,-96.81l-93.624,0l0,96.81Zm489.007,0l93.62,0l-0,-96.81l-93.62,0l-0,96.81Zm-195.606,0l93.626,0l-0,-96.81l-93.626,0l0,96.81Zm-489.002,0l93.624,0l0,-96.81l-93.624,0l-0,96.81Zm4299.06,-2217.59l-93.62,0l0,96.814l93.62,0l0,-96.814Zm-93.62,601.759l93.62,0l0,-96.81l-93.62,0l0,96.81Zm-782.41,0l93.62,0l0,-96.81l-93.62,0l0,96.81Zm-3618.63,913.084l-0,96.816l93.625,0l-0,-96.816l-93.625,0Zm2738.42,-812.084l93.625,0l0,-96.82l-93.625,0l0,96.82Zm-2738.42,1514.83l93.625,0l-0,-96.81l-93.625,0l-0,96.81Zm1271.41,-302.96l93.63,0l0,-96.818l-93.63,0l0,96.818Zm-982.184,-601.769l-93.624,0l-0,96.814l93.624,0l0,-96.814Zm195.601,0l-93.624,0l0,96.814l93.624,0l0,-96.814Zm586.803,201.98l-93.62,0l0,96.816l93.62,0l0,-96.816Zm-289.22,399.789l93.62,0l0,-96.818l-93.62,0l0,96.818Zm-395.384,-601.769l-93.625,0l-0,96.814l93.625,0l-0,-96.814Zm101.977,601.769l93.624,0l0,-96.818l-93.624,0l-0,96.818Zm289.227,-298.797l-93.626,0l0,96.813l93.626,0l-0,-96.813Zm1369.21,-105.168l-0,-96.814l-93.62,0l0,96.814l93.62,0Zm-2049.64,706.925l93.625,0l-0,-96.81l-93.625,0l-0,96.81Zm484.826,-904.729l-93.624,0l-0,96.814l93.624,0l0,-96.814Zm1564.81,399.785l-0,-96.813l-93.62,0l0,96.813l93.62,0Zm-1365.03,403.964l93.62,0l0,-96.82l-93.62,0l0,96.82Zm97.8,-201.98l93.62,0l-0,-96.818l-93.62,0l-0,96.818Zm1071.63,-399.789l-93.62,0l-0,96.816l93.62,0l0,-96.816Zm-1365.04,399.789l93.625,0l0,-96.818l-93.625,0l0,96.818Zm2929.85,-1914.63l-93.62,0l0,96.814l93.62,0l0,-96.814Zm-3516.65,1413.85l-0,96.814l93.625,0l-0,-96.814l-93.625,0Zm1854.04,-100.99l-93.62,0l0,96.814l93.62,0l0,-96.814Zm-195.6,201.98l-93.63,0l0,96.816l93.63,0l-0,-96.816Zm-680.43,702.749l93.62,0l0,-96.81l-93.62,0l0,96.81Zm-684.609,-500.768l-0,96.813l93.625,0l-0,-96.813l-93.625,0Zm1173.61,197.808l93.63,0l0,-96.818l-93.63,0l0,96.818Zm-199.78,-298.797l-93.62,0l-0,96.813l93.62,0l-0,-96.813Zm1471.19,-1514.85l0,96.816l93.625,0l0,-96.816l-93.625,0Zm-978.001,2015.62l93.62,0l0,-96.82l-93.62,0l0,96.82Zm93.62,-500.777l-93.62,0l0,96.813l93.62,0l0,-96.813Zm-289.23,298.797l93.63,0l-0,-96.818l-93.63,0l0,96.818Zm93.63,-601.769l-93.63,0l0,96.814l93.63,0l-0,-96.814Zm391.2,0l-93.62,0l0,96.814l93.62,0l-0,-96.814Zm1662.61,-1312.86l-93.62,0l0,96.814l93.62,0l0,-96.814Zm-3712.25,1312.86l-0,96.814l93.625,0l-0,-96.814l-93.625,0Zm1369.21,803.749l93.63,0l-0,-96.82l-93.63,0l-0,96.82Zm-4.17,-601.769l-93.63,0l0,96.816l93.63,0l0,-96.816Zm586.8,399.789l0,-96.818l-93.62,0l-0,96.818l93.62,0Zm195.6,-302.973l-0,-96.816l-93.62,0l0,96.816l93.62,0Zm-1169.43,302.973l93.62,0l0,-96.818l-93.62,0l0,96.818Zm191.42,-298.797l-93.62,0l0,96.813l93.62,0l0,-96.813Zm880.21,298.797l-0,-96.818l-93.62,0l0,96.818l93.62,0Zm-484.83,201.98l93.63,0l-0,-96.82l-93.63,0l0,96.82Zm195.61,-101l93.62,0l0,-96.81l-93.62,0l0,96.81Zm-195.61,0l93.63,0l-0,-96.81l-93.63,0l0,96.81Zm-978.006,201.98l93.625,0l0,-96.81l-93.625,0l0,96.81Zm-391.202,-399.778l-0,96.818l93.624,0l0,-96.818l-93.624,0Zm1951.84,96.818l-0,-96.818l-93.62,0l0,96.818l93.62,0Zm-1267.23,100.98l93.62,0l-0,-96.81l-93.62,0l-0,96.81Zm1169.43,0l-0,-96.81l-93.62,0l0,96.81l93.62,0Zm-582.63,0l93.63,0l0,-96.81l-93.63,0l0,96.81Zm-884.383,-500.769l-93.624,0l-0,96.816l93.624,0l0,-96.816Zm586.803,0l-93.62,0l0,96.816l93.62,0l0,-96.816Zm-289.22,601.769l93.62,0l-0,-96.82l-93.62,0l-0,96.82Zm293.4,-101l93.62,0l-0,-96.81l-93.62,0l-0,96.81Zm387.03,-702.749l-93.63,0l0,96.814l93.63,0l0,-96.814Zm391.2,399.785l0,-96.813l-93.62,0l-0,96.813l93.62,0Zm-1756.24,-96.813l-0,96.813l93.624,0l0,-96.813l-93.624,0Zm489.002,500.777l93.626,0l-0,-96.82l-93.626,0l0,96.82Zm1169.44,-601.769l-93.62,0l0,96.816l93.62,0l0,-96.816Zm-978.01,0l-93.62,0l0,96.816l93.62,0l0,-96.816Zm1271.41,-201.98l-93.62,0l0,96.814l93.62,0l-0,-96.814Zm-484.82,803.749l93.62,0l-0,-96.82l-93.62,0l-0,96.82Zm-1275.59,-601.769l-93.625,0l-0,96.816l93.625,0l-0,-96.816Zm1075.81,0l-93.63,0l-0,96.816l93.63,0l-0,-96.816Zm-191.43,601.769l93.63,0l0,-96.82l-93.63,0l0,96.82Zm-195.6,-101l93.62,0l0,-96.81l-93.62,0l0,96.81Zm-586.807,0l93.624,0l0,-96.81l-93.624,0l-0,96.81Zm195.601,0l93.626,0l-0,-96.81l-93.626,0l0,96.81Zm-782.404,-197.798l-0,96.818l93.624,0l0,-96.818l-93.624,0Zm1854.04,-706.93l-93.62,0l-0,96.814l93.62,0l-0,-96.814Zm-484.83,1207.7l93.63,0l0,-96.81l-93.63,0l0,96.81Zm-684.606,0l93.625,0l0,-96.81l-93.625,0l0,96.81Zm876.036,-1005.72l-93.63,0l-0,96.814l93.63,0l-0,-96.814Zm-582.63,1005.72l93.62,0l-0,-96.81l-93.62,0l-0,96.81Zm-586.809,0l93.625,0l-0,-96.81l-93.625,0l-0,96.81Zm684.609,-302.97l93.62,0l0,-96.81l-93.62,0l0,96.81Zm-1075.81,-500.769l-0,96.816l93.624,0l0,-96.816l-93.624,0Zm1658.44,-302.969l-93.63,0l0,96.813l93.63,0l0,-96.813Zm-387.03,904.738l93.62,0l-0,-96.82l-93.62,0l-0,96.82Zm191.43,-803.749l-93.63,0l0,96.814l93.63,0l0,-96.814Zm-293.41,-100.989l-93.62,0l0,96.813l93.62,0l0,-96.813Zm-1169.43,1106.71l93.624,0l0,-96.81l-93.624,0l-0,96.81Zm1956.02,-302.97l93.62,0l0,-96.81l-93.62,0l-0,96.81Zm-982.19,-803.738l-93.62,0l0,96.813l93.62,0l0,-96.813Zm782.41,0l-93.63,0l0,96.813l93.63,0l-0,-96.813Zm-289.23,803.738l93.63,0l-0,-96.81l-93.63,0l-0,96.81Zm-782.406,101l93.625,0l0,-96.82l-93.625,0l0,96.82Zm489.006,201.97l93.62,0l0,-96.81l-93.62,0l0,96.81Zm387.03,-1106.71l-93.63,0l-0,96.813l93.63,0l-0,-96.813Zm-1075.81,0l-93.625,0l-0,96.813l93.625,0l-0,-96.813Zm978.014,0l-93.63,0l0,96.813l93.63,0l0,-96.813Zm101.97,904.738l93.63,0l0,-96.82l-93.63,0l0,96.82Zm-1271.41,-601.769l-0,96.816l93.624,0l0,-96.816l-93.624,0Zm1854.04,298.794l-0,-96.813l-93.62,0l0,96.813l93.62,0Zm-1267.23,504.945l93.62,0l0,-96.81l-93.62,0l0,96.81Zm195.6,0l93.62,0l0,-96.81l-93.62,0l0,96.81Zm-586.807,0l93.624,0l0,-96.81l-93.624,0l0,96.81Zm0,-302.97l93.624,0l0,-96.81l-93.624,0l0,96.81Zm-391.203,-1211.87l93.625,0l-0,-96.81l-93.625,0l-0,96.81Zm1467.01,-100.98l93.63,0l0,-96.82l-93.63,0l0,96.82Zm-782.406,0l93.626,0l-0,-96.82l-93.626,0l0,96.82Zm289.226,509.115l-93.62,0l-0,96.813l93.62,0l-0,-96.813Zm-391.203,-1312.86l-93.624,0l-0,96.814l93.624,0l0,-96.814Zm-387.025,2419.57l93.624,0l0,-96.81l-93.624,0l-0,96.81Zm1075.81,-1615.82l93.63,0l0,-96.82l-93.63,0l0,96.82Zm489.01,0l93.62,0l0,-96.82l-93.62,0l0,96.82Zm-688.79,408.125l-93.62,0l0,96.814l93.62,0l0,-96.814Zm-289.22,-408.125l93.62,0l0,-96.82l-93.62,0l0,96.82Zm-978.014,-601.769l0,96.816l93.628,0l0,-96.816l-93.628,0Zm1760.41,601.769l93.63,0l-0,-96.82l-93.63,0l0,96.82Zm-1662.61,1418.02l-0,96.81l93.624,0l0,-96.81l-93.624,0Zm782.404,197.8l93.626,0l-0,-96.81l-93.626,0l0,96.81Zm-195.601,0l93.624,0l0,-96.81l-93.624,0l-0,96.81Zm684.607,0l93.62,0l-0,-96.81l-93.62,0l-0,96.81Zm-293.4,-1615.82l93.62,0l-0,-96.82l-93.62,0l-0,96.82Zm582.63,-803.749l-93.63,0l-0,96.814l93.63,0l-0,-96.814Zm-1560.64,1817.81l-0,96.813l93.624,0l0,-96.813l-93.624,0Zm1756.24,-1817.81l-93.63,0l0,96.814l93.63,0l-0,-96.814Zm-1071.64,803.749l93.625,0l0,-96.82l-93.625,0l0,96.82Zm289.226,-803.749l-93.62,0l0,96.814l93.62,0l0,-96.814Zm-973.83,2019.79l-0,96.81l93.624,0l0,-96.81l-93.624,0Zm2147.44,-2019.79l-93.62,0l0,96.814l93.62,0l-0,-96.814Zm-2049.64,302.972l-0,96.813l93.625,0l-0,-96.813l-93.625,0Zm-0,2116.6l93.625,0l-0,-96.81l-93.625,0l-0,96.81Zm782.41,-302.97l93.62,0l0,-96.81l-93.62,0l0,96.81Zm1365.03,-1918.8l-0,-96.814l-93.62,0l0,96.814l93.62,0Zm-1854.04,706.925l93.625,0l-0,-96.81l-93.625,0l-0,96.81Zm-391.201,1216.05l-0,96.82l93.624,0l0,-96.82l-93.624,0Zm1075.81,-1216.05l93.62,0l0,-96.81l-93.62,0l0,96.81Zm-880.209,1514.84l93.625,0l-0,-96.81l-93.625,0l-0,96.81Zm1956.02,-1413.85l93.62,0l-0,-96.81l-93.62,0l0,96.81Zm289.22,-201.97l0,-96.82l-93.62,0l-0,96.82l93.62,0Zm-1858.21,-904.738l-93.624,0l0,96.813l93.624,0l0,-96.813Zm884.383,904.738l93.63,0l-0,-96.82l-93.63,0l-0,96.82Zm973.83,-101l0,-96.81l-93.62,0l-0,96.81l93.62,0Zm0,-504.945l0,-96.814l-93.62,0l-0,96.814l93.62,0Zm-1564.81,-298.793l-93.626,0l0,96.813l93.626,0l-0,-96.813Zm391.2,0l-93.62,0l0,96.813l93.62,0l0,-96.813Zm-489.001,0l-93.625,0l0,96.813l93.625,0l0,-96.813Zm884.381,1106.71l93.63,0l-0,-96.81l-93.63,0l0,96.81Zm-391.2,-201.97l93.62,0l-0,-96.82l-93.62,0l-0,96.82Zm1169.43,302.96l0,-96.81l-93.62,0l-0,96.81l93.62,0Zm-880.2,-1207.7l-93.63,0l-0,96.813l93.63,0l-0,-96.813Zm880.2,1106.71l0,-96.81l-93.62,0l-0,96.81l93.62,0Zm-2151.61,-1106.71l-93.625,0l-0,96.813l93.625,0l-0,-96.813Zm1075.8,0l-93.62,0l-0,96.813l93.62,0l-0,-96.813Zm-1173.61,0l-93.625,0l-0,96.813l93.625,0l-0,-96.813Zm2249.41,601.763l0,-96.813l-93.62,0l-0,96.813l93.62,0Zm-876.03,504.945l93.63,0l0,-96.81l-93.63,0l0,96.81Zm-1564.81,-1106.71l-0,96.813l93.624,0l0,-96.813l-93.624,0Zm2440.84,1005.72l0,-96.81l-93.62,0l-0,96.81l93.62,0Zm-973.83,100.99l93.63,0l-0,-96.81l-93.63,0l-0,96.81Zm973.83,-706.923l0,-96.816l-93.62,0l-0,96.816l93.62,0Zm-489,-399.785l-93.62,0l0,96.813l93.62,0l0,-96.813Zm586.8,1110.89l-93.62,0l-0,96.81l93.62,0l0,-96.81Zm-582.62,-4.18l93.62,0l0,-96.81l-93.62,0l-0,96.81Zm-97.8,0l93.62,0l0,-96.81l-93.62,0l0,96.81Zm-880.21,-100.99l93.62,0l-0,-96.81l-93.62,0l-0,96.81Zm-590.984,-1005.72l-93.624,0l-0,96.813l93.624,0l0,-96.813Zm293.401,0l-93.624,0l-0,96.813l93.624,0l0,-96.813Zm1173.61,0l-93.62,0l-0,96.813l93.62,0l-0,-96.813Zm297.58,1005.72l93.62,0l-0,-96.81l-93.62,0l0,96.81Zm289.22,-1106.71l-93.62,0l-0,96.814l93.62,0l0,-96.814Zm-97.8,904.728l-0,-96.81l-93.62,0l0,96.81l93.62,0Zm-387.02,201.98l93.62,0l0,-96.81l-93.62,0l-0,96.81Zm-1862.4,-1207.7l-93.624,0l-0,96.813l93.624,0l0,-96.813Zm1666.8,1207.7l93.62,0l-0,-96.81l-93.62,0l-0,96.81Zm-0,100.99l93.62,0l-0,-96.81l-93.62,0l-0,96.81Zm-1177.79,-1308.69l-93.624,0l0,96.813l93.624,0l0,-96.813Zm1760.41,601.764l-0,-96.816l-93.62,0l0,96.816l93.62,0Zm-484.82,605.933l93.62,0l0,-96.81l-93.62,0l0,96.81Zm484.82,-807.915l-0,-96.814l-93.62,0l0,96.814l93.62,0Zm-0,-197.803l-93.62,0l0,96.813l93.62,0l-0,-96.813Zm-1662.61,-201.979l-93.624,0l-0,96.813l93.624,0l0,-96.813Zm1662.61,803.742l-0,-96.813l-93.62,0l0,96.813l93.62,0Zm-2343.04,-399.784l-0,96.814l93.624,0l0,-96.814l-93.624,0Zm1071.63,-403.958l-93.62,0l-0,96.813l93.62,0l-0,-96.813Zm-880.205,0l-93.625,0l-0,96.813l93.625,0l-0,-96.813Zm1471.18,1207.7l93.63,0l-0,-96.81l-93.63,0l0,96.81Zm387.03,-1005.72l-93.62,0l-0,96.813l93.62,0l0,-96.813Zm391.2,197.803l0,-96.814l-93.62,0l-0,96.814l93.62,0Zm-973.83,807.915l93.63,0l-0,-96.81l-93.63,0l-0,96.81Zm782.41,100.99l93.62,0l-0,-96.81l-93.62,0l0,96.81Zm93.62,-201.97l-0,-96.82l-93.62,0l0,96.82l93.62,0Zm-973.83,100.98l93.63,0l0,-96.81l-93.63,0l0,96.81Zm1071.63,-504.944l0,-96.813l-93.62,0l-0,96.813l93.62,0Zm-387.02,605.934l93.62,0l-0,-96.81l-93.62,0l0,96.81Zm0,-100.99l93.62,0l-0,-96.81l-93.62,0l0,96.81Zm-489.01,0l93.63,0l0,-96.81l-93.63,0l0,96.81Zm778.23,-504.944l-0,-96.813l-93.62,0l0,96.813l93.62,0Zm-97.8,-500.774l-93.62,0l0,96.813l93.62,0l-0,-96.813Zm-97.8,0l-93.62,0l0,96.813l93.62,0l-0,-96.813Zm293.4,702.758l0,-96.818l-93.62,0l-0,96.818l93.62,0Zm0,-605.945l0,-96.813l-93.62,0l-0,96.813l93.62,0Zm1373.39,706.925l93.62,0l0,-96.81l-93.62,0l0,96.81Zm-101.98,-500.769l-93.62,0l0,96.816l93.62,0l0,-96.816Zm-3325.22,-504.948l-93.624,0l-0,96.813l93.624,0l0,-96.813Zm3720.6,904.737l93.63,0l0,-96.818l-93.63,0l0,96.818Zm680.43,0l-0,-96.818l-93.62,0l0,96.818l93.62,0Zm-1271.41,-399.789l-93.626,0l0,96.816l93.626,0l0,-96.816Zm-484.829,399.789l93.625,0l0,-96.818l-93.625,0l0,96.818Zm-2155.79,-904.737l-93.626,0l0,96.813l93.626,0l-0,-96.813Zm2445.02,504.948l-93.624,0l0,96.816l93.624,0l0,-96.816Zm-978.007,-403.959l-93.62,0l0,96.814l93.62,0l-0,-96.814Zm2445.02,702.753l-0,-96.813l-93.62,0l0,96.813l93.62,0Zm-876.03,100.995l93.62,0l0,-96.818l-93.62,0l0,96.818Zm195.6,100.98l93.63,0l0,-96.81l-93.63,0l0,96.81Zm-3818.4,-1005.72l-93.625,0l-0,96.813l93.625,0l-0,-96.813Zm3916.2,1005.72l93.63,0l0,-96.81l-93.63,0l0,96.81Zm-684.6,0l93.62,0l0,-96.81l-93.62,0l0,96.81Zm-395.384,-500.769l-93.625,0l0,96.816l93.625,0l0,-96.816Zm1177.78,500.769l93.63,0l0,-96.81l-93.63,0l0,96.81Zm-4.17,-500.769l-93.63,0l0,96.816l93.63,0l0,-96.816Zm297.58,500.769l93.62,0l0,-96.81l-93.62,0l0,96.81Zm-2253.6,-504.945l-0,-96.814l-93.62,0l0,96.814l93.62,0Zm590.982,307.147l0,96.818l93.624,0l0,-96.818l-93.624,0Zm1075.81,197.798l93.63,0l0,-96.81l-93.63,0l0,96.81Zm-1666.79,201.98l-0,-96.81l-93.62,0l0,96.81l93.62,0Zm1568.99,-201.98l93.62,0l0,-96.81l-93.62,0l0,96.81Zm-1568.99,-100.98l-0,-96.818l-93.62,0l0,96.818l93.62,0Zm-1858.21,-904.737l-93.625,0l-0,96.813l93.625,0l-0,-96.813Zm2546.99,1005.72l93.625,0l0,-96.81l-93.625,0l0,96.81Zm391.203,0l93.626,0l0,-96.81l-93.626,0l0,96.81Zm-489.002,0l93.624,0l0,-96.81l-93.624,0l0,96.81Zm-2938.2,-1005.72l-93.628,0l0,96.813l93.628,0l0,-96.813Zm782.405,0l-93.625,0l0,96.813l93.625,0l0,-96.813Zm3525,904.737l93.63,0l0,-96.818l-93.63,0l0,96.818Zm-1271.41,-197.808l0,96.813l93.625,0l0,-96.813l-93.625,0Zm973.829,-201.981l-93.62,0l0,96.816l93.62,0l0,-96.816Zm-782.403,100.992l-93.624,0l0,96.813l93.624,0l0,-96.813Zm1177.79,298.797l93.62,0l0,-96.818l-93.62,0l0,96.818Zm191.42,-100.995l0,-96.813l-93.62,0l0,96.813l93.62,0Zm97.8,-298.794l-93.62,0l0,96.816l93.62,0l0,-96.816Zm-1365.04,500.769l93.625,0l0,-96.81l-93.625,0l0,96.81Zm97.8,-100.98l93.626,0l0,-96.818l-93.626,0l0,96.818Zm391.206,0l93.62,0l0,-96.818l-93.62,0l0,96.818Zm391.2,0l93.63,0l0,-96.818l-93.63,0l0,96.818Zm293.41,0l93.62,0l0,-96.818l-93.62,0l0,96.818Zm-1173.62,0l93.625,0l0,-96.818l-93.625,0l0,96.818Zm-2351.39,-904.737l-93.62,0l0,96.813l93.62,0l0,-96.813Zm2253.59,904.737l93.624,0l0,-96.818l-93.624,0l0,96.818Zm489.007,0l93.62,0l0,-96.818l-93.62,0l0,96.818Zm-493.183,-399.789l-93.624,0l0,96.816l93.624,0l0,-96.816Zm-191.426,100.992l0,96.813l93.625,0l0,-96.813l-93.625,0Zm586.809,399.777l93.62,0l0,-96.81l-93.62,0l0,96.81Zm-4.18,-500.769l-93.62,0l0,96.816l93.62,0l0,-96.816Zm1075.81,399.789l0,-96.818l-93.62,0l0,96.818l93.62,0Zm-1560.64,0l93.624,0l0,-96.818l-93.624,0l0,96.818Zm97.8,100.98l93.624,0l0,-96.81l-93.624,0l0,96.81Zm1462.84,-302.964l0,-96.813l-93.62,0l0,96.813l93.62,0Zm-1173.61,-96.813l-93.626,0l0,96.813l93.626,0l0,-96.813Zm493.18,298.797l93.63,0l0,-96.818l-93.63,0l0,96.818Zm-4.18,-298.797l-93.62,0l0,96.813l93.62,0l0,-96.813Zm-387.02,298.797l93.62,0l0,-96.818l-93.62,0l0,96.818Zm1169.43,100.98l-0,-96.81l-93.62,0l0,96.81l93.62,0Zm-97.8,-201.975l0,-96.813l-93.62,0l0,96.813l93.62,0Zm-586.8,-298.794l-93.63,0l0,96.816l93.63,0l0,-96.816Zm391.2,0l-93.62,0l0,96.816l93.62,0l0,-96.816Zm97.8,100.992l-93.62,0l0,96.813l93.62,0l0,-96.813Zm-391.2,0l-93.63,0l0,96.813l93.63,0l0,-96.813Zm-586.81,0l-93.62,0l0,96.813l93.62,0l0,-96.813Zm978.01,-100.992l-93.62,0l0,96.816l93.62,0l0,-96.816Zm-489,-504.948l-93.63,0l0,96.813l93.63,0l0,-96.813Zm-1169.44,706.929l0,96.813l93.624,0l0,-96.813l-93.624,0Zm1462.84,-201.981l-93.63,0l0,96.816l93.63,0l0,-96.816Zm-1075.81,100.992l-93.624,0l0,96.813l93.624,0l0,-96.813Zm1173.61,0l-93.62,0l0,96.813l93.62,0l0,-96.813Zm-876.03,197.802l93.62,0l0,-96.813l-93.62,0l0,96.813Zm289.22,-197.802l-93.62,0l0,96.813l93.62,0l0,-96.813Zm-684.603,-504.951l-93.624,0l0,96.814l93.624,0l0,-96.814Zm880.213,504.951l-93.63,0l0,96.813l93.63,0l0,-96.813Zm684.6,-605.94l-93.62,0l0,96.813l93.62,0l-0,-96.813Zm-293.4,0l-93.62,0l0,96.813l93.62,0l0,-96.813Zm-191.43,803.742l93.63,0l0,-96.813l-93.63,0l0,96.813Zm97.81,0l93.62,0l0,-96.813l-93.62,0l0,96.813Zm-493.19,-803.742l-93.62,0l0,96.813l93.62,0l0,-96.813Zm-582.626,803.742l93.625,0l0,-96.813l-93.625,0l0,96.813Zm195.606,0l93.62,0l0,-96.813l-93.62,0l0,96.813Zm-293.407,0l93.624,0l0,-96.813l-93.624,0l0,96.813Zm489.007,0l93.62,0l0,-96.813l-93.62,0l0,96.813Zm-293.406,0l93.626,0l0,-96.813l-93.626,0l0,96.813Zm391.206,0l93.62,0l0,-96.813l-93.62,0l0,96.813Zm-1271.41,206.155l0,96.82l93.628,0l0,-96.82l-93.628,0Zm1365.03,-504.949l-93.62,0l0,96.816l93.62,0l0,-96.816Zm97.8,-504.948l-93.62,0l0,96.813l93.62,0l0,-96.813Zm-195.6,504.948l-93.62,0l0,96.816l93.62,0l0,-96.816Zm391.21,0l-93.63,0l0,96.816l93.63,0l0,-96.816Zm195.6,100.992l-93.63,0l0,96.813l93.63,0l0,-96.813Zm-978.011,0l-93.625,0l0,96.813l93.625,0l0,-96.813Zm293.401,0l-93.62,0l0,96.813l93.62,0l0,-96.813Zm-1169.43,0l0,96.813l93.628,0l0,-96.813l-93.628,0Zm0,100.989l0,96.813l93.628,0l0,-96.813l-93.628,0Zm2343.04,-706.929l-93.62,0l0,96.813l93.62,0l0,-96.813Zm-876.03,803.742l93.63,0l0,-96.813l-93.63,0l0,96.813Zm195.6,0l93.63,0l0,-96.813l-93.63,0l0,96.813Zm-395.38,-197.802l-93.62,0l0,96.813l93.62,0l0,-96.813Zm-289.22,298.797l93.62,0l0,-96.818l-93.62,0l0,96.818Zm-978.014,307.14l0,96.81l93.628,0l0,-96.81l-93.628,0Zm-4.176,-1009.9l-93.62,0l-0,96.813l93.62,0l0,-96.813Zm586.806,-100.99l-93.625,0l0,96.814l93.625,0l0,-96.814Zm-3027.65,605.94l-0,96.813l93.625,0l-0,-96.813l-93.625,0Zm4103.46,-706.929l-93.63,0l0,96.813l93.63,0l0,-96.813Zm782.4,0l-93.62,0l0,96.813l93.62,0l0,-96.813Zm-4498.83,302.968l-93.625,0l-0,96.814l93.625,0l-0,-96.814Zm2053.81,-201.979l-93.62,0l-0,96.814l93.62,0l0,-96.814Zm0,302.969l-93.62,0l-0,96.814l93.62,0l0,-96.814Zm0,403.961l-93.62,0l-0,96.818l93.62,0l0,-96.818Zm0,201.978l-93.62,0l-0,96.82l93.62,0l0,-96.82Zm0,-403.957l-93.62,0l-0,96.813l93.62,0l0,-96.813Zm1373.39,197.802l93.62,0l0,-96.813l-93.62,0l0,96.813Zm-1373.39,307.145l-93.62,0l-0,96.81l93.62,0l0,-96.81Zm1075.81,-1009.9l-93.62,0l0,96.814l93.62,0l0,-96.814Zm880.21,0l-93.62,0l0,96.814l93.62,0l0,-96.814Zm-387.03,702.753l93.63,0l0,-96.813l-93.63,0l0,96.813Zm-1564.81,4.177l0,96.818l93.628,0l0,-96.818l-93.628,0Zm582.63,601.758l0,-96.81l-93.625,0l0,96.81l93.625,0Zm684.604,-1409.68l-93.62,0l0,96.813l93.62,0l0,-96.813Zm-1271.41,504.948l-93.62,0l-0,96.816l93.62,0l0,-96.816Zm590.983,298.794l93.624,0l0,-96.813l-93.624,0l0,96.813Zm1169.44,-197.802l-93.63,0l0,96.813l93.63,0l0,-96.813Zm-1760.42,-605.94l-93.62,0l-0,96.813l93.62,0l0,-96.813Zm0,302.968l-93.62,0l-0,96.814l93.62,0l0,-96.814Zm0,2318.58l0,-96.81l-93.62,0l-0,96.81l93.62,0Zm0,-1712.64l-93.62,0l-0,96.81l93.62,0l0,-96.81Zm1467.01,-807.918l-93.62,0l0,96.814l93.62,0l0,-96.814Zm684.61,0l-93.62,0l0,96.814l93.62,0l0,-96.814Zm-586.8,0l-93.63,0l0,96.814l93.63,0l0,-96.814Zm-1564.82,605.94l-93.62,0l-0,96.813l93.62,0l0,-96.813Zm0,504.948l-93.62,0l-0,96.81l93.62,0l0,-96.81Zm489.006,197.8l0,-96.81l-93.624,0l0,96.81l93.624,0Zm-97.8,0l0,-96.81l-93.625,0l0,96.81l93.625,0Zm-391.206,1312.86l0,-96.81l-93.62,0l-0,96.81l93.62,0Zm0,-403.95l0,-96.818l-93.62,0l-0,96.818l93.62,0Zm0,-504.955l0,-96.814l-93.62,0l-0,96.814l93.62,0Zm0,706.935l0,-96.82l-93.62,0l-0,96.82l93.62,0Zm-2245.24,-2015.62l-0,96.816l93.624,0l0,-96.816l-93.624,0Zm2245.24,1611.66l0,-96.813l-93.62,0l-0,96.813l93.62,0Zm0,-201.981l0,-96.814l-93.62,0l-0,96.814l93.62,0Zm-2343.04,-1207.7l-0,96.813l93.625,0l-0,-96.813l-93.625,0Zm978.009,298.788l93.62,0l0,-96.81l-93.62,0l0,96.81Zm1365.03,1413.85l0,-96.81l-93.62,0l-0,96.81l93.62,0Zm0,-908.904l0,-96.813l-93.62,0l-0,96.813l93.62,0Zm-391.2,-807.913l-0,-96.813l-93.62,0l0,96.813l93.62,0Zm489.004,706.924l0,-96.81l-93.628,0l0,96.81l93.628,0Zm-1173.6,-1005.72l-93.63,0l0,96.814l93.63,0l0,-96.814Zm4.17,500.779l93.63,0l-0,-96.818l-93.63,0l-0,96.818Zm-1369.21,-601.769l-0,96.814l93.625,0l-0,-96.814l-93.625,0Zm2440.84,1914.63l0,-96.813l-93.62,0l-0,96.813l93.62,0Zm0,-605.939l0,-96.814l-93.62,0l-0,96.814l93.62,0Zm-2343.04,-504.939l93.625,0l-0,-96.82l-93.625,0l-0,96.82Zm1462.84,-601.769l-93.63,0l0,96.816l93.63,0l0,-96.816Zm-1173.61,0l-93.625,0l-0,96.816l93.625,0l-0,-96.816Zm2347.22,904.729l0,-96.81l-93.625,0l0,96.81l93.625,0Zm-1267.24,-403.96l93.63,0l0,-96.81l-93.63,0l0,96.81Zm195.61,0l93.62,0l-0,-96.81l-93.62,0l-0,96.81Zm-1079.99,-601.759l-93.624,0l-0,96.814l93.624,0l0,-96.814Zm1858.21,1611.66l0,-96.816l-93.62,0l-0,96.816l93.62,0Zm-1756.24,-1009.9l93.626,0l-0,-96.81l-93.626,0l0,96.81Zm1756.24,706.928l0,-96.813l-93.62,0l-0,96.813l93.62,0Zm-1658.43,-706.928l93.62,0l0,-96.81l-93.62,0l0,96.81Zm1854.03,403.96l0,-96.81l-93.624,0l0,96.81l93.624,0Zm-2440.84,-601.758l-0,96.818l93.624,0l0,-96.818l-93.624,0Zm1564.82,96.818l93.62,0l0,-96.818l-93.62,0l0,96.818Zm-101.98,-500.779l-93.63,0l0,96.814l93.63,0l-0,-96.814Zm-1365.04,500.779l93.625,0l-0,-96.818l-93.625,0l-0,96.818Zm973.829,-500.779l-93.62,0l-0,96.814l93.62,0l-0,-96.814Zm-289.22,601.759l93.62,0l0,-96.81l-93.62,0l0,96.81Zm484.83,-500.769l-93.63,0l-0,96.816l93.63,0l-0,-96.816Zm489,-100.99l-93.62,0l-0,96.814l93.62,0l0,-96.814Zm97.8,399.784l-0,-96.813l-93.62,0l0,96.813l93.62,0Zm-97.8,-298.794l-93.62,0l-0,96.816l93.62,0l0,-96.816Zm-1075.81,-100.99l-93.62,0l0,96.814l93.62,0l0,-96.814Zm493.18,601.759l93.63,0l-0,-96.81l-93.63,0l-0,96.81Zm680.43,-403.953l-0,-96.816l-93.62,0l0,96.816l93.62,0Zm-0,403.953l-0,-96.81l-93.62,0l0,96.81l93.62,0Zm-191.42,0l93.62,0l0,-96.81l-93.62,0l-0,96.81Zm-982.19,-399.777l-93.62,0l0,96.813l93.62,0l0,-96.813Zm-778.229,-201.982l-0,96.814l93.625,0l-0,-96.814l-93.625,0Zm97.801,302.971l-0,96.813l93.624,0l0,-96.813l-93.624,0Zm289.225,-201.981l-93.624,0l0,96.816l93.624,0l0,-96.816Zm684.603,0l-93.62,0l0,96.816l93.62,0l0,-96.816Zm-876.029,601.769l93.625,0l-0,-96.82l-93.625,0l-0,96.82Zm1271.41,-101l93.63,0l-0,-96.81l-93.63,0l0,96.81Zm-786.58,-500.769l-93.626,0l0,96.816l93.626,0l-0,-96.816Zm-93.626,399.789l93.626,0l-0,-96.818l-93.626,0l0,96.818Zm93.626,-298.797l-93.626,0l0,96.813l93.626,0l-0,-96.813Zm-484.829,100.989l-0,96.813l93.625,0l-0,-96.813l-93.625,0Zm-0,298.788l93.625,0l-0,-96.81l-93.625,0l-0,96.81Zm-97.799,-399.777l-0,96.813l93.624,0l0,-96.813l-93.624,0Zm293.401,298.797l93.624,0l0,-96.818l-93.624,0l-0,96.818Zm684.607,100.98l93.62,0l-0,-96.81l-93.62,0l-0,96.81Zm-880.209,-399.777l-0,96.813l93.625,0l-0,-96.813l-93.625,0Zm-97.799,500.777l93.624,0l0,-96.82l-93.624,0l-0,96.82Zm1169.44,-500.777l-93.63,0l0,96.813l93.63,0l0,-96.813Zm293.4,-100.992l-93.63,0l0,96.816l93.63,0l-0,-96.816Zm391.2,-504.948l-93.62,0l0,96.813l93.62,0l-0,-96.813Zm-1462.84,1005.72l93.625,0l0,-96.81l-93.625,0l0,96.81Zm484.826,-399.777l-93.62,0l0,96.813l93.62,0l0,-96.813Zm-876.028,399.777l93.624,0l0,-96.81l-93.624,0l-0,96.81Zm387.025,-500.769l-93.624,0l-0,96.816l93.624,0l0,-96.816Zm1177.79,500.769l93.62,0l0,-96.81l-93.62,0l0,96.81Zm-880.21,-100.98l93.62,0l-0,-96.818l-93.62,0l-0,96.818Zm93.62,-399.789l-93.62,0l-0,96.816l93.62,0l-0,-96.816Zm590.98,298.794l93.63,0l-0,-96.813l-93.63,0l0,96.813Zm-1173.61,100.995l93.624,0l0,-96.818l-93.624,0l0,96.818Zm93.624,-298.797l-93.624,0l0,96.813l93.624,0l0,-96.813Zm782.403,0l-93.62,0l-0,96.813l93.62,0l-0,-96.813Zm395.39,298.797l93.62,0l-0,-96.818l-93.62,0l-0,96.818Zm-391.21,0l93.63,0l0,-96.818l-93.63,0l0,96.818Zm-391.2,100.98l93.62,0l-0,-96.81l-93.62,0l-0,96.81Zm293.4,-100.98l93.62,0l-0,-96.818l-93.62,0l-0,96.818Zm778.23,0l0,-96.818l-93.62,0l-0,96.818l93.62,0Zm-195.6,-399.789l-93.62,0l-0,96.816l93.62,0l-0,-96.816Zm293.4,399.789l-0,-96.818l-93.62,0l0,96.818l93.62,0Zm-2245.24,-298.797l0,96.813l93.628,0l0,-96.813l-93.628,0Zm1267.23,-100.992l-93.62,0l0,96.816l93.62,0l0,-96.816Zm782.41,298.794l0,-96.813l-93.62,0l0,96.813l93.62,0Zm-582.63,201.975l93.63,0l0,-96.81l-93.63,0l0,96.81Zm582.63,-500.769l-93.62,0l0,96.816l93.62,0l0,-96.816Zm-876.03,399.789l93.62,0l0,-96.818l-93.62,0l0,96.818Zm191.42,-904.737l-93.62,0l0,96.813l93.62,0l0,-96.813Zm391.21,605.94l-93.63,0l0,96.813l93.63,0l0,-96.813Zm-1071.64,399.777l93.624,0l0,-96.81l-93.624,0l-0,96.81Zm387.027,-500.769l-93.62,0l0,96.816l93.62,0l0,-96.816Zm786.59,298.794l93.62,0l-0,-96.813l-93.62,0l-0,96.813Zm-199.78,-197.802l-93.63,0l-0,96.813l93.63,0l-0,-96.813Zm-293.41,0l-93.62,0l0,96.813l93.62,0l0,-96.813Zm-586.803,0l-93.624,0l-0,96.813l93.624,0l0,-96.813Zm199.783,298.797l93.62,0l0,-96.818l-93.62,0l0,96.818Zm0,-100.995l93.62,0l0,-96.813l-93.62,0l0,96.813Zm191.42,-197.802l-93.62,0l-0,96.813l93.62,0l-0,-96.813Zm-387.026,298.797l93.625,0l0,-96.818l-93.625,0l0,96.818Zm1365.04,-100.995l0,-96.813l-93.62,0l-0,96.813l93.62,0Zm-2147.44,408.135l0,96.81l93.628,0l0,-96.81l-93.628,0Zm1951.84,-605.937l-93.62,0l-0,96.813l93.62,0l-0,-96.813Zm-293.4,-504.951l-93.63,0l-0,96.814l93.63,0l-0,-96.814Zm-1658.44,605.94l0,96.813l93.628,0l0,-96.813l-93.628,0Zm1271.41,197.808l93.62,0l0,-96.818l-93.62,0l0,96.818Zm489,0l93.63,0l-0,-96.818l-93.63,0l0,96.818Zm-97.8,-100.995l93.63,0l0,-96.813l-93.63,0l0,96.813Zm680.43,-803.742l-93.62,0l0,96.813l93.62,0l-0,-96.813Zm-778.23,803.742l93.63,0l-0,-96.813l-93.63,0l-0,96.813Zm876.03,-803.742l-93.62,0l0,96.813l93.62,0l-0,-96.813Zm-1169.43,803.742l93.62,0l0,-96.813l-93.62,0l0,96.813Zm582.63,-803.742l-93.63,0l0,96.813l93.63,0l-0,-96.813Zm97.8,0l-93.62,0l-0,96.813l93.62,0l-0,-96.813Zm-195.6,0l-93.63,0l0,96.813l93.63,0l0,-96.813Zm-93.63,904.737l93.63,0l0,-96.818l-93.63,0l0,96.818Zm-199.78,-399.789l-93.62,0l-0,96.816l93.62,0l-0,-96.816Zm-0,-504.948l-93.62,0l-0,96.813l93.62,0l-0,-96.813Zm97.81,504.948l-93.63,0l0,96.816l93.63,0l0,-96.816Zm-680.436,298.794l93.626,0l-0,-96.813l-93.626,0l0,96.813Zm-880.208,4.177l0,96.818l93.628,0l0,-96.818l-93.628,0Zm1560.64,-807.919l-93.63,0l0,96.813l93.63,0l0,-96.813Zm-684.611,605.94l-93.625,0l0,96.813l93.625,0l0,-96.813Zm1173.61,0l-93.62,0l0,96.813l93.62,0l0,-96.813Zm97.8,96.813l0,-96.813l-93.62,0l-0,96.813l93.62,0Zm-489,-702.753l-93.63,0l-0,96.813l93.63,0l-0,-96.813Zm-1173.61,100.989l-93.624,0l-0,96.814l93.624,0l0,-96.814Zm-97.8,0l-93.625,0l-0,96.814l93.625,0l-0,-96.814Zm1369.21,0l-93.63,0l0,96.814l93.63,0l0,-96.814Zm-582.63,702.753l93.62,0l0,-96.813l-93.62,0l0,96.813Zm-884.385,-702.753l-93.625,0l-0,96.814l93.625,0l-0,-96.814Zm1760.41,0l-93.62,0l0,96.814l93.62,0l0,-96.814Zm-1951.84,403.959l-0,96.816l93.624,0l0,-96.816l-93.624,0Zm684.604,803.739l93.625,0l0,-96.81l-93.625,0l0,96.81Zm684.606,-504.945l93.63,0l0,-96.813l-93.63,0l0,96.813Zm680.43,-803.742l-93.62,0l-0,96.813l93.62,0l0,-96.813Zm-2147.44,1110.89l0,96.81l93.628,0l0,-96.81l-93.628,0Zm0,-100.99l0,96.82l93.628,0l0,-96.82l-93.628,0Zm2245.24,-908.908l-93.62,0l0,96.814l93.62,0l-0,-96.814Zm-876.03,702.753l93.62,0l-0,-96.813l-93.62,0l-0,96.813Zm-297.58,-702.753l-93.62,0l0,96.814l93.62,0l0,-96.814Zm782.41,100.99l-93.63,0l0,96.813l93.63,0l-0,-96.813Zm-778.23,601.763l93.62,0l-0,-96.813l-93.62,0l-0,96.813Zm-978.01,-96.813l-0,96.813l93.624,0l0,-96.813l-93.624,0Zm1365.03,-605.94l-93.62,0l-0,96.814l93.62,0l-0,-96.814Zm-1365.03,706.93l-0,96.818l93.624,0l0,-96.818l-93.624,0Zm778.229,-706.93l-93.625,0l0,96.814l93.625,0l0,-96.814Zm-289.226,702.753l93.624,0l0,-96.813l-93.624,0l0,96.813Zm-489.003,-197.802l-0,96.813l93.624,0l0,-96.813l-93.624,0Zm1951.84,-605.94l-93.62,0l0,96.813l93.62,0l0,-96.813Zm-1267.24,803.742l93.625,0l0,-96.813l-93.625,0l0,96.813Zm1071.64,-197.802l-93.63,0l0,96.813l93.63,0l-0,-96.813Zm-0,-504.951l-93.63,0l0,96.814l93.63,0l-0,-96.814Zm-1169.44,702.753l93.624,0l0,-96.813l-93.624,0l-0,96.813Zm876.037,-702.753l-93.63,0l0,96.814l93.63,0l0,-96.814Zm-880.213,0l-93.624,0l0,96.814l93.624,0l0,-96.814Zm293.403,0l-93.626,0l0,96.814l93.626,0l-0,-96.814Zm-289.227,1207.7l93.624,0l0,-96.81l-93.624,0l-0,96.81Zm582.627,-1207.7l-93.62,0l0,96.814l93.62,0l0,-96.814Zm0,-100.989l-93.62,0l0,96.813l93.62,0l0,-96.813Zm-778.229,1308.69l93.625,0l-0,-96.81l-93.625,0l-0,96.81Zm-391.201,-197.8l-0,96.81l93.624,0l0,-96.81l-93.624,0Zm484.826,-908.908l-93.625,0l-0,96.813l93.625,0l-0,-96.813Zm884.384,1106.71l93.63,0l0,-96.81l-93.63,0l0,96.81Zm93.63,-1106.71l-93.63,0l0,96.813l93.63,0l0,-96.813Zm-1560.64,706.928l0,96.81l93.628,0l0,-96.81l-93.628,0Zm1071.63,-706.928l-93.62,0l0,96.813l93.62,0l0,-96.813Zm195.6,0l-93.62,0l0,96.813l93.62,0l0,-96.813Zm-97.8,-100.99l-93.62,0l-0,96.814l93.62,0l-0,-96.814Zm-582.627,1207.7l93.624,0l0,-96.81l-93.624,0l0,96.81Zm293.401,0l93.626,0l-0,-96.81l-93.626,0l0,96.81Zm1267.24,-1207.7l-93.62,0l-0,96.814l93.62,0l0,-96.814Zm-1951.84,1207.7l93.625,0l-0,-96.81l-93.625,0l-0,96.81Zm1756.24,-1207.7l-93.62,0l-0,96.814l93.62,0l-0,-96.814Zm-1560.64,1207.7l93.624,0l0,-96.81l-93.624,0l-0,96.81Zm2147.44,-1308.69l-93.62,0l-0,96.813l93.62,0l0,-96.813Zm-1169.43,1308.69l93.62,0l-0,-96.81l-93.62,0l-0,96.81Zm-4.18,-1207.7l-93.62,0l0,96.814l93.62,0l0,-96.814Zm-1071.63,1207.7l93.625,0l-0,-96.81l-93.625,0l-0,96.81Zm1462.84,-1106.71l-93.63,0l0,96.813l93.63,0l0,-96.813Zm-978.013,-100.99l-93.624,0l-0,96.814l93.624,0l0,-96.814Zm-195.601,0l-93.625,0l-0,96.814l93.625,0l-0,-96.814Zm-484.826,807.918l-0,96.81l93.624,0l0,-96.81l-93.624,0Zm-0,100.99l-0,96.82l93.624,0l0,-96.82l-93.624,0Zm1075.81,298.79l93.62,0l0,-96.81l-93.62,0l0,96.81Zm1169.43,-1207.7l-93.62,0l0,96.814l93.62,0l-0,-96.814Zm-1365.03,1207.7l93.62,0l0,-96.81l-93.62,0l0,96.81Zm-880.21,0l93.624,0l0,-96.81l-93.624,0l-0,96.81Zm1071.63,-1106.71l-93.62,0l-0,96.813l93.62,0l-0,-96.813Zm-1071.63,100.989l-0,96.814l93.624,0l0,-96.814l-93.624,0Zm1658.44,0l-93.63,0l0,96.814l93.63,0l0,-96.814Zm-1271.41,0l-93.624,0l-0,96.814l93.624,0l0,-96.814Zm880.204,0l-93.62,0l0,96.814l93.62,0l0,-96.814Zm978.01,803.749l-0,-96.82l-93.62,0l0,96.82l93.62,0Zm-0,-403.964l-0,-96.813l-93.62,0l0,96.813l93.62,0Zm-97.8,-298.795l-93.62,0l0,96.814l93.62,0l-0,-96.814Zm-973.83,904.729l93.62,0l0,-96.81l-93.62,0l0,96.81Zm-97.8,-201.97l93.62,0l0,-96.82l-93.62,0l0,96.82Zm1169.43,-302.975l-0,-96.813l-93.62,0l0,96.813l93.62,0Zm-586.8,-399.784l-93.63,0l0,96.814l93.63,0l0,-96.814Zm-1071.64,803.739l93.624,0l0,-96.81l-93.624,0l-0,96.81Zm1369.22,-100.98l93.62,0l0,-96.82l-93.62,0l-0,96.82Zm-782.41,0l93.62,0l0,-96.82l-93.62,0l0,96.82Zm-395.381,-803.749l-93.625,0l0,96.814l93.625,0l0,-96.814Zm1467.01,601.769l-0,-96.818l-93.62,0l0,96.818l93.62,0Zm-880.21,-601.769l-93.62,0l-0,96.814l93.62,0l-0,-96.814Zm684.61,0l-93.62,0l-0,96.814l93.62,0l0,-96.814Zm-195.6,0l-93.62,0l-0,96.814l93.62,0l-0,-96.814Zm391.2,0l-93.62,0l0,96.814l93.62,0l-0,-96.814Zm-1756.24,904.729l93.624,0l0,-96.81l-93.624,0l0,96.81Zm973.837,-904.729l-93.63,0l0,96.814l93.63,0l0,-96.814Zm97.8,100.99l-93.63,0l-0,96.814l93.63,0l-0,-96.814Zm-582.63,904.729l93.62,0l-0,-96.81l-93.62,0l-0,96.81Zm-199.781,-904.729l-93.625,0l0,96.814l93.625,0l0,-96.814Zm1467.01,601.759l-0,-96.81l-93.62,0l0,96.81l93.62,0Zm-978.01,-601.759l-93.62,0l0,96.814l93.62,0l0,-96.814Zm-880.204,0l-93.624,0l-0,96.814l93.624,0l0,-96.814Zm489.004,0l-93.626,0l0,96.814l93.626,0l-0,-96.814Zm1177.79,702.759l93.62,0l-0,-96.82l-93.62,0l0,96.82Zm191.42,-504.953l-0,-96.816l-93.62,0l0,96.816l93.62,0Zm-293.4,-298.796l-93.62,0l0,96.814l93.62,0l0,-96.814Zm1564.81,1615.83l-93.626,0l0,96.816l93.626,0l0,-96.816Zm-1564.81,-1514.84l-93.62,0l0,96.814l93.62,0l0,-96.814Zm-1173.61,100.99l-93.625,0l0,96.816l93.625,0l0,-96.816Zm3912.03,1611.66l0,-96.813l-93.62,0l0,96.813l93.62,0Zm-4494.66,-1510.67l-0,96.813l93.625,0l-0,-96.813l-93.625,0Zm387.026,-201.982l-93.624,0l0,96.814l93.624,0l0,-96.814Zm4107.63,1914.63l0,-96.818l-93.62,0l0,96.818l93.62,0Zm-4103.46,-1211.87l93.624,0l0,-96.82l-93.624,0l-0,96.82Zm484.827,-702.759l-93.62,0l-0,96.814l93.62,0l-0,-96.814Zm1862.39,1716.82l0,96.813l93.624,0l0,-96.813l-93.624,0Zm782.408,197.808l93.62,0l0,-96.818l-93.62,0l0,96.818Zm-391.206,100.98l93.625,0l0,-96.81l-93.625,0l0,96.81Zm-3129.62,-1914.62l-0,96.816l93.625,0l-0,-96.816l-93.625,0Zm289.225,-100.99l-93.625,0l-0,96.814l93.625,0l-0,-96.814Zm3912.03,1514.84l-93.63,0l0,96.816l93.63,0l0,-96.816Zm-97.8,0l-93.63,0l0,96.816l93.63,0l0,-96.816Zm-1075.81,0l-93.624,0l0,96.816l93.624,0l0,-96.816Zm489.003,100.992l-93.62,0l0,96.813l93.62,0l0,-96.813Zm-680.429,0l0,96.813l93.625,0l0,-96.813l-93.625,0Zm973.829,0l-93.62,0l0,96.813l93.62,0l0,-96.813Zm-2245.23,-913.076l93.62,0l-0,-96.82l-93.62,0l-0,96.82Zm-1564.82,-197.81l-0,96.81l93.625,0l-0,-96.81l-93.625,0Zm293.402,197.81l93.624,0l0,-96.82l-93.624,0l0,96.82Zm2542.82,1211.87l93.625,0l0,-96.818l-93.625,0l0,96.818Zm-1177.78,-1914.63l-93.62,0l-0,96.814l93.62,0l-0,-96.814Zm-684.61,0l-93.62,0l0,96.814l93.62,0l0,-96.814Zm3329.41,1914.63l93.62,0l0,-96.818l-93.62,0l0,96.818Zm-4303.24,-1510.67l-0,96.818l93.625,0l-0,-96.818l-93.625,0Zm3712.25,1211.87l-93.62,0l0,96.813l93.62,0l0,-96.813Zm782.41,197.802l0,-96.813l-93.62,0l0,96.813l93.62,0Zm-4201.26,-1211.88l93.624,0l0,-96.81l-93.624,0l0,96.81Zm2542.82,1115.07l0,96.813l93.625,0l0,-96.813l-93.625,0Zm387.028,-100.989l-93.625,0l0,96.813l93.625,0l0,-96.813Zm-195.602,0l-93.624,0l0,96.813l93.624,0l0,-96.813Zm1369.21,0l-93.62,0l0,96.813l93.62,0l0,-96.813Zm-289.23,298.797l93.63,0l0,-96.818l-93.63,0l0,96.818Zm-1760.41,-298.797l0,96.813l93.628,0l0,-96.813l-93.628,0Zm1071.63,0l-93.62,0l0,96.813l93.62,0l0,-96.813Zm586.81,-100.992l-93.63,0l0,96.816l93.63,0l0,-96.816Zm-293.41,-504.948l-93.62,0l0,96.813l93.62,0l0,-96.813Zm-289.22,904.737l93.62,0l0,-96.818l-93.62,0l0,96.818Zm387.02,-803.748l-93.62,0l0,96.814l93.62,0l0,-96.814Zm-195.6,504.951l-93.62,0l0,96.813l93.62,0l0,-96.813Zm293.41,0l-93.63,0l0,96.813l93.63,0l0,-96.813Zm-191.43,197.802l93.62,0l0,-96.813l-93.62,0l0,96.813Zm489.01,0l93.62,0l0,-96.813l-93.62,0l0,96.813Zm-199.78,-197.802l-93.63,0l0,96.813l93.63,0l0,-96.813Zm97.8,0l-93.63,0l0,96.813l93.63,0l0,-96.813Zm195.6,0l-93.62,0l0,96.813l93.62,0l0,-96.813Zm-586.81,-100.992l-93.62,0l0,96.816l93.62,0l0,-96.816Zm-97.8,0l-93.62,0l0,96.816l93.62,0l0,-96.816Zm195.6,-504.948l-93.62,0l0,96.813l93.62,0l0,-96.813Zm97.81,0l-93.63,0l0,96.813l93.63,0l0,-96.813Zm101.97,803.742l93.63,0l0,-96.813l-93.63,0l0,96.813Zm387.03,0l0,-96.813l-93.62,0l0,96.813l93.62,0Zm-1462.84,100.995l93.624,0l0,-96.818l-93.624,0l0,96.818Zm880.207,-100.995l93.63,0l0,-96.813l-93.63,0l0,96.813Zm778.23,0l-0,-96.813l-93.62,0l0,96.813l93.62,0Zm-195.6,-298.794l-93.62,0l0,96.816l93.62,0l0,-96.816Zm293.4,-504.948l-93.62,0l0,96.813l93.62,0l0,-96.813Zm-582.63,803.742l93.63,0l0,-96.813l-93.63,0l0,96.813Zm93.63,-197.802l-93.63,0l0,96.813l93.63,0l0,-96.813Zm-876.03,197.802l93.62,0l0,-96.813l-93.62,0l0,96.813Zm684.6,100.995l93.63,0l0,-96.818l-93.63,0l0,96.818Zm680.43,-803.748l-93.62,0l0,96.814l93.62,0l0,-96.814Zm-1075.81,-100.989l-93.62,0l0,96.813l93.62,0l0,-96.813Zm-778.229,1308.69l93.625,0l0,-96.81l-93.625,0l0,96.81Zm1365.04,-1207.7l-93.63,0l0,96.814l93.63,0l0,-96.814Zm-880.21,0l-93.626,0l0,96.814l93.626,0l0,-96.814Zm1271.41,-100.989l-93.62,0l0,96.813l93.62,0l-0,-96.813Zm-1365.04,803.742l93.626,0l0,-96.813l-93.626,0l0,96.813Zm93.626,-197.802l-93.626,0l0,96.813l93.626,0l0,-96.813Zm-191.426,197.802l93.625,0l0,-96.813l-93.625,0l0,96.813Zm195.606,100.995l93.62,0l0,-96.818l-93.62,0l0,96.818Zm93.62,-803.748l-93.62,0l0,96.814l93.62,0l0,-96.814Zm101.98,702.753l93.62,0l0,-96.813l-93.62,0l0,96.813Zm93.62,-702.753l-93.62,0l0,96.814l93.62,0l0,-96.814Zm978.01,0l-93.62,0l0,96.814l93.62,0l-0,-96.814Zm-1658.44,702.753l93.624,0l0,-96.813l-93.624,0l0,96.813Zm-586.807,206.155l0,96.82l93.628,0l0,-96.82l-93.628,0Zm876.033,-908.908l-93.625,0l0,96.814l93.625,0l0,-96.814Zm1173.61,-100.989l-93.62,0l0,96.813l93.62,0l0,-96.813Zm-1467.01,100.989l-93.625,0l0,96.814l93.625,0l0,-96.814Zm1075.81,-100.989l-93.63,0l0,96.813l93.63,0l0,-96.813Zm-489.01,100.989l-93.62,0l0,96.814l93.62,0l0,-96.814Zm782.41,0l-93.62,0l0,96.814l93.62,0l0,-96.814Zm-680.43,702.753l93.62,0l0,-96.813l-93.62,0l0,96.813Zm-1271.41,408.135l0,96.81l93.628,0l0,-96.81l-93.628,0Zm1756.24,-1211.88l-93.63,0l0,96.813l93.63,0l0,-96.813Zm-978.013,605.94l-93.624,0l0,96.813l93.624,0l0,-96.813Zm1173.61,-605.94l-93.62,0l0,96.813l93.62,0l0,-96.813Zm97.8,100.989l-93.62,0l0,96.814l93.62,0l0,-96.814Zm97.8,0l-93.62,0l0,96.814l93.62,0l0,-96.814Zm-1462.84,702.753l93.624,0l0,-96.813l-93.624,0l0,96.813Zm1169.44,-803.742l-93.63,0l0,96.813l93.63,0l0,-96.813Zm-289.23,803.742l93.63,0l0,-96.813l-93.63,0l0,96.813Zm-684.606,504.945l93.626,0l0,-96.81l-93.626,0l0,96.81Zm778.236,-1207.7l-93.63,0l0,96.814l93.63,0l0,-96.814Zm-97.8,0l-93.63,0l0,96.814l93.63,0l0,-96.814Zm-191.43,1207.7l93.62,0l0,-96.81l-93.62,0l0,96.81Zm-684.607,0l93.624,0l0,-96.81l-93.624,0l0,96.81Zm-395.378,-1207.7l-93.625,0l0,96.814l93.625,0l0,-96.814Zm-289.229,1009.9l0,96.81l93.628,0l0,-96.81l-93.628,0Zm97.804,-100.99l0,96.82l93.624,0l0,-96.82l-93.624,0Zm582.627,-807.918l-93.624,0l0,96.813l93.624,0l0,-96.813Zm293.403,0l-93.626,0l0,96.813l93.626,0l0,-96.813Zm391.2,-100.99l-93.62,0l0,96.814l93.62,0l0,-96.814Zm-191.42,1207.7l93.62,0l0,-96.81l-93.62,0l0,96.81Zm-395.383,-1207.7l-93.624,0l0,96.814l93.624,0l0,-96.814Zm-680.427,807.918l0,96.81l93.624,0l0,-96.81l-93.624,0Zm0,-201.978l0,96.813l93.624,0l0,-96.813l-93.624,0Zm1854.04,-504.95l-93.62,0l0,96.813l93.62,0l0,-96.813Zm-489.01,0l-93.62,0l0,96.813l93.62,0l0,-96.813Zm-782.403,-100.99l-93.624,0l0,96.814l93.624,0l0,-96.814Zm-680.431,605.94l0,96.813l93.628,0l0,-96.813l-93.628,0Zm97.804,-504.95l0,96.813l93.624,0l0,-96.813l-93.624,0Zm684.604,1106.71l93.625,0l0,-96.81l-93.625,0l0,96.81Zm-782.408,-399.78l0,96.81l93.628,0l0,-96.81l-93.628,0Zm1075.81,-105.165l93.62,0l0,-96.813l-93.62,0l0,96.813Zm-1075.81,4.177l0,96.818l93.628,0l0,-96.818l-93.628,0Zm2147.44,-807.919l-93.62,0l0,96.813l93.62,0l0,-96.813Zm293.4,0l-93.62,0l0,96.813l93.62,0l0,-96.813Zm-2343.04,1110.89l0,96.81l93.624,0l0,-96.81l-93.624,0Zm289.226,-1009.9l-93.625,0l0,96.814l93.625,0l0,-96.814Zm688.784,1207.7l93.62,0l0,-96.81l-93.62,0l0,96.81Zm195.6,0l93.62,0l0,-96.81l-93.62,0l0,96.81Zm-1173.61,-803.739l0,96.816l93.624,0l0,-96.816l-93.624,0Zm2440.84,-504.948l-93.62,0l0,96.813l93.62,0l0,-96.813Zm-2249.41,201.979l-93.625,0l0,96.813l93.625,0l0,-96.813Zm1177.79,1106.71l93.63,0l0,-96.81l-93.63,0l0,96.81Zm195.6,0l93.63,0l0,-96.81l-93.63,0l0,96.81Zm97.8,0l93.63,0l0,-96.81l-93.63,0l0,96.81Zm680.43,-100.99l0,-96.81l-93.62,0l0,96.81l93.62,0Zm-1173.61,-1005.72l-93.62,0l0,96.813l93.62,0l0,-96.813Zm489.01,0l-93.63,0l0,96.813l93.63,0l0,-96.813Zm684.6,-100.99l-93.62,0l0,96.814l93.62,0l0,-96.814Zm-2343.04,706.93l0,96.818l93.624,0l0,-96.818l-93.624,0Zm0,-403.961l0,96.814l93.624,0l0,-96.814l-93.624,0Zm195.601,904.729l93.625,0l0,-96.81l-93.625,0l0,96.81Zm2245.24,-1207.7l-93.62,0l0,96.814l93.62,0l0,-96.814Zm-2053.81,0l-93.624,0l0,96.814l93.624,0l0,-96.814Zm-289.226,1207.7l93.625,0l0,-96.81l-93.625,0l0,96.81Zm1560.64,-1207.7l-93.63,0l0,96.814l93.63,0l0,-96.814Zm684.6,500.775l0,-96.816l-93.62,0l0,96.816l93.62,0Zm97.8,706.923l0,-96.81l-93.62,0l0,96.81l93.62,0Zm-1173.61,-1106.71l-93.62,0l0,96.813l93.62,0l0,-96.813Zm293.41,0l-93.63,0l0,96.813l93.63,0l0,-96.813Zm-680.43,1106.71l93.62,0l0,-96.81l-93.62,0l0,96.81Zm-590.984,-1106.71l-93.625,0l0,96.813l93.625,0l0,-96.813Zm1467.01,0l-93.63,0l0,96.813l93.63,0l0,-96.813Zm-1462.84,1106.71l93.624,0l0,-96.81l-93.624,0l0,96.81Zm-293.402,0l93.624,0l0,-96.81l-93.624,0l0,96.81Zm1951.84,-1106.71l-93.62,0l0,96.813l93.62,0l0,-96.813Zm-489,0l-93.63,0l0,96.813l93.63,0l0,-96.813Zm101.97,1005.72l93.63,0l0,-96.81l-93.63,0l0,96.81Zm-1177.78,-1005.72l-93.624,0l0,96.813l93.624,0l0,-96.813Zm101.977,1106.71l93.624,0l0,-96.81l-93.624,0l0,96.81Zm289.226,-1106.71l-93.625,0l0,96.813l93.625,0l0,-96.813Zm1177.79,1106.71l93.62,0l0,-96.81l-93.62,0l0,96.81Zm-293.41,-100.99l93.63,0l0,-96.81l-93.63,0l0,96.81Zm-1177.78,-1207.7l-93.625,0l0,96.813l93.625,0l0,-96.813Zm-489.002,0l-93.628,0l0,96.813l93.628,0l0,-96.813Zm1960.2,1207.7l93.62,0l0,-96.81l-93.62,0l0,96.81Zm195.6,100.99l93.62,0l0,-96.81l-93.62,0l0,96.81Zm-1177.79,-1308.69l-93.62,0l0,96.813l93.62,0l0,-96.813Zm493.18,1308.69l93.63,0l0,-96.81l-93.63,0l0,96.81Zm876.03,-908.905l0,-96.814l-93.62,0l0,96.814l93.62,0Zm-876.03,807.915l93.63,0l0,-96.81l-93.63,0l0,96.81Zm782.41,100.99l93.62,0l0,-96.81l-93.62,0l0,96.81Zm-97.8,-100.99l93.62,0l0,-96.81l-93.62,0l0,96.81Zm289.22,-605.933l0,-96.816l-93.62,0l0,96.816l93.62,0Zm0,504.953l0,-96.82l-93.62,0l0,96.82l93.62,0Zm-1369.21,-904.738l-93.62,0l0,96.813l93.62,0l0,-96.813Zm-97.8,0l-93.62,0l0,96.813l93.62,0l0,-96.813Zm1079.99,1005.72l93.62,0l-0,-96.81l-93.62,0l0,96.81Zm-1568.99,-1005.72l-93.625,0l0,96.813l93.625,0l0,-96.813Zm195.601,0l-93.624,0l0,96.813l93.624,0l0,-96.813Zm1760.41,702.758l0,-96.818l-93.62,0l0,96.818l93.62,0Zm-387.02,403.95l93.62,0l-0,-96.81l-93.62,0l0,96.81Zm387.02,-908.905l0,-96.814l-93.62,0l0,96.814l93.62,0Zm0,-100.99l0,-96.813l-93.62,0l0,96.813l93.62,0Zm0,908.905l0,-96.81l-93.62,0l0,96.81l93.62,0Zm-97.8,-706.925l0,-96.814l-93.62,0l0,96.814l93.62,0Zm-2053.81,-500.772l-93.625,0l0,96.813l93.625,0l0,-96.813Zm293.401,0l-93.624,0l0,96.813l93.624,0l0,-96.813Zm1858.21,500.772l0,-96.814l-93.62,0l0,96.814l93.62,0Zm0,302.97l0,-96.813l-93.62,0l0,96.813l93.62,0Zm0,201.975l0,-96.81l-93.62,0l0,96.81l93.62,0Zm-2440.84,-399.777l0,96.813l93.624,0l0,-96.813l-93.624,0Zm0,-302.972l0,96.814l93.624,0l0,-96.814l-93.624,0Zm2343.04,601.769l0,-96.818l-93.62,0l0,96.818l93.62,0Zm-484.82,403.95l93.62,0l0,-96.81l-93.62,0l0,96.81Zm-1079.99,-1312.86l0,-96.81l-93.625,0l0,96.81l93.625,0Zm1369.21,0l-0,-96.81l-93.62,0l0,96.81l93.62,0Zm-0,206.155l-93.62,0l0,96.813l93.62,0l-0,-96.813Zm195.6,500.774l0,-96.813l-93.62,0l0,96.813l93.62,0Zm-973.83,504.944l93.63,0l0,-96.81l-93.63,0l0,96.81Zm973.83,-403.955l0,-96.813l-93.62,0l0,96.813l93.62,0Zm-1760.41,-807.918l0,-96.81l-93.624,0l0,96.81l93.624,0Zm1662.61,0l0,-96.81l-93.62,0l0,96.81l93.62,0Zm-880.21,0l0,-96.81l-93.62,0l0,96.81l93.62,0Zm395.39,1312.86l93.62,0l0,-96.81l-93.62,0l0,96.81Zm582.62,-302.97l0,-96.81l-93.62,0l0,96.81l93.62,0Zm-97.8,-803.738l-93.62,0l0,96.813l93.62,0l0,-96.813Zm-1369.21,-201.979l-93.626,0l0,96.813l93.626,0l0,-96.813Zm-489.004,0l-93.624,0l0,96.813l93.624,0l0,-96.813Zm2053.81,-4.176l0,-96.81l-93.62,0l0,96.81l93.62,0Zm-978,0l0,-96.81l-93.63,0l0,96.81l93.63,0Zm880.2,206.155l-93.62,0l0,96.813l93.62,0l0,-96.813Zm-1369.21,-206.155l0,-96.81l-93.62,0l0,96.81l93.62,0Zm-195.601,4.176l-93.625,0l0,96.813l93.625,0l0,-96.813Zm-3325.22,-4.176l0,-96.81l-93.624,0l-0,96.81l93.624,0Zm4987.84,706.929l0,-96.813l-93.62,0l0,96.813l93.62,0Zm-1564.81,-706.929l0,-96.81l-93.626,0l0,96.81l93.626,0Zm-782.406,4.176l-93.624,0l0,96.813l93.624,0l0,-96.813Zm1764.6,1207.7l93.62,0l0,-96.81l-93.62,0l0,96.81Zm-786.59,-1207.7l-93.62,0l0,96.813l93.62,0l0,-96.813Zm-880.205,0l-93.625,0l0,96.813l93.625,0l0,-96.813Zm489.002,0l-93.624,0l0,96.813l93.624,0l0,-96.813Zm1079.99,1207.7l93.62,0l0,-96.81l-93.62,0l0,96.81Zm-101.98,-1211.87l0,-96.81l-93.63,0l0,96.81l93.63,0Zm-391.21,0l0,-96.81l-93.62,0l0,96.81l93.62,0Zm782.41,206.155l-93.62,0l0,96.813l93.62,0l0,-96.813Zm293.4,904.738l0,-96.82l-93.62,0l0,96.82l93.62,0Zm-3520.82,-1110.89l0,-96.81l-93.63,0l0,96.81l93.63,0Zm2347.21,0l0,-96.81l-93.62,0l0,96.81l93.62,0Zm1173.61,0l0,-96.81l-93.62,0l0,96.81l93.62,0Zm-4694.43,0l-0,-96.81l-93.625,0l-0,96.81l93.625,0Zm-293.402,0l0,-96.81l-93.628,0l0,96.81l93.628,0Zm3716.43,0l0,-96.81l-93.62,0l0,96.81l93.62,0Zm-2245.24,1312.86l93.63,0l-0,-96.81l-93.63,0l-0,96.81Zm-297.58,-1312.86l0,-96.81l-93.62,0l0,96.81l93.62,0Zm3227.43,0l0,-96.81l-93.63,0l0,96.81l93.63,0Zm-3912.03,0l-0,-96.81l-93.625,0l-0,96.81l93.625,0Zm489.004,0l0,-96.81l-93.62,0l0,96.81l93.62,0Zm1467.01,1009.89l0,-96.81l-93.62,0l-0,96.81l93.62,0Zm1760.42,-1009.89l0,-96.81l-93.63,0l0,96.81l93.63,0Zm-3520.83,0l0,-96.81l-93.624,0l-0,96.81l93.624,0Zm978.013,0l0,-96.81l-93.63,0l0,96.81l93.63,0Zm-293.41,0l-0,-96.81l-93.62,0l-0,96.81l93.62,0Zm-782.403,0l0,-96.81l-93.624,0l0,96.81l93.624,0Zm2738.42,0l0,-96.81l-93.624,0l0,96.81l93.624,0Zm1271.41,0l0,-96.81l-93.62,0l0,96.81l93.62,0Zm-3325.23,0l0,-96.81l-93.62,0l0,96.81l93.62,0Zm3423.03,0l0,-96.81l-93.62,0l0,96.81l93.62,0Zm-3912.03,0l0,-96.81l-93.625,0l0,96.81l93.625,0Zm293.401,0l-0,-96.81l-93.62,0l-0,96.81l93.62,0Zm1369.21,605.94l0,-96.816l-93.62,0l-0,96.816l93.62,0Zm-2249.41,-605.94l-0,-96.81l-93.625,0l-0,96.81l93.625,0Zm-0,206.155l-93.625,0l-0,96.813l93.625,0l-0,-96.813Zm2249.41,1005.72l0,-96.81l-93.62,0l-0,96.81l93.62,0Zm-1564.81,-1211.87l-0,-96.81l-93.626,0l0,96.81l93.626,0Zm880.21,0l-0,-96.81l-93.63,0l0,96.81l93.63,0Zm2738.42,0l0,-96.81l-93.62,0l0,96.81l93.62,0Zm-4107.63,0l0,-96.81l-93.624,0l-0,96.81l93.624,0Zm1173.61,0l-0,-96.81l-93.63,0l-0,96.81l93.63,0Zm4.17,1312.86l93.63,0l0,-96.81l-93.63,0l0,96.81Zm-786.581,-1106.71l-93.625,0l0,96.813l93.625,0l0,-96.813Zm1662.61,702.758l0,-96.818l-93.62,0l-0,96.818l93.62,0Zm-1760.41,-702.758l-93.624,0l-0,96.813l93.624,0l0,-96.813Zm684.603,0l-93.62,0l-0,96.813l93.62,0l-0,-96.813Zm-978.004,0l-93.624,0l-0,96.813l93.624,0l0,-96.813Zm1666.79,1005.72l93.62,0l-0,-96.81l-93.62,0l0,96.81Zm-2053.82,-1005.72l-0,96.813l93.624,0l0,-96.813l-93.624,0Zm582.627,0l-93.624,0l0,96.813l93.624,0l0,-96.813Zm-293.401,0l-93.625,0l-0,96.813l93.625,0l-0,-96.813Zm2151.61,601.763l0,-96.813l-93.62,0l-0,96.813l93.62,0Zm-484.82,504.945l93.62,0l0,-96.81l-93.62,0l-0,96.81Zm-1079.99,-1106.71l-93.626,0l0,96.813l93.626,0l-0,-96.813Zm1564.81,-100.99l-93.62,0l-0,96.814l93.62,0l0,-96.814Zm0,399.783l0,-96.814l-93.62,0l-0,96.814l93.62,0Zm-97.8,706.925l-0,-96.81l-93.62,0l0,96.81l93.62,0Zm-582.62,0l93.62,0l-0,-96.81l-93.62,0l-0,96.81Zm-293.41,0l93.63,0l-0,-96.81l-93.63,0l-0,96.81Zm876.03,-807.915l-0,-96.814l-93.62,0l0,96.814l93.62,0Zm-391.2,-197.803l-93.62,0l0,96.813l93.62,0l0,-96.813Zm-289.23,1106.71l93.63,0l-0,-96.81l-93.63,0l0,96.81Zm680.43,-1207.7l-93.62,0l0,96.814l93.62,0l-0,-96.814Zm-2343.04,201.979l-0,96.814l93.624,0l0,-96.814l-93.624,0Zm1267.23,-100.989l-93.62,0l0,96.813l93.62,0l0,-96.813Zm884.39,1106.71l93.62,0l-0,-96.81l-93.62,0l0,96.81Zm-297.58,-1106.71l-93.62,0l-0,96.813l93.62,0l-0,-96.813Zm-1854.04,201.979l-0,96.814l93.624,0l0,-96.814l-93.624,0Zm1858.22,904.729l93.62,0l0,-96.81l-93.62,0l0,96.81Zm582.62,-201.97l0,-96.82l-93.62,0l-0,96.82l93.62,0Zm0,201.97l0,-96.81l-93.62,0l-0,96.81l93.62,0Zm0,-1009.89l0,-96.813l-93.62,0l-0,96.813l93.62,0Zm-2440.84,307.148l-0,96.813l93.624,0l0,-96.813l-93.624,0Zm2343.04,-105.168l-0,-96.814l-93.62,0l0,96.814l93.62,0Zm97.8,-100.99l0,-96.814l-93.62,0l-0,96.814l93.62,0Zm-2249.41,-399.782l-93.625,0l-0,96.813l93.625,0l-0,-96.813Zm1373.38,1207.7l93.63,0l0,-96.81l-93.63,0l0,96.81Zm293.41,0l93.62,0l0,-96.81l-93.62,0l0,96.81Zm484.82,-504.944l-0,-96.813l-93.62,0l0,96.813l93.62,0Zm-195.6,-500.774l-93.62,0l0,96.813l93.62,0l-0,-96.813Zm97.8,0l-93.62,0l0,96.813l93.62,0l-0,-96.813Zm-1564.81,-201.979l-93.624,0l-0,96.813l93.624,0l0,-96.813Zm-778.231,302.968l0,96.814l93.628,0l0,-96.814l-93.628,0Zm2440.84,298.796l-0,-96.816l-93.62,0l0,96.816l93.62,0Zm-0,201.978l-0,-96.813l-93.62,0l0,96.813l93.62,0Zm-973.83,403.955l93.63,0l0,-96.81l-93.63,0l0,96.81Zm680.43,-1005.72l-93.62,0l-0,96.813l93.62,0l0,-96.813Zm-2053.82,-201.979l-93.628,0l0,96.813l93.628,0l0,-96.813Zm2253.6,1308.69l93.62,0l-0,-96.81l-93.62,0l0,96.81Zm-1177.79,-1308.69l-93.62,0l-0,96.813l93.62,0l-0,-96.813Zm880.21,803.742l0,-96.813l-93.62,0l0,96.813l93.62,0Zm-289.23,403.955l93.63,0l-0,-96.81l-93.63,0l0,96.81Zm778.23,-504.944l0,-96.813l-93.62,0l-0,96.813l93.62,0Zm-680.42,100.989l93.62,0l-0,-96.813l-93.62,0l-0,96.813Zm293.4,504.945l93.62,0l-0,-96.81l-93.62,0l0,96.81Zm289.22,-201.97l-0,-96.82l-93.62,0l0,96.82l93.62,0Zm-0,-101l-0,-96.81l-93.62,0l0,96.81l93.62,0Zm-387.02,201.98l93.62,0l0,-96.81l-93.62,0l-0,96.81Zm-1373.39,-1207.7l-93.624,0l0,96.813l93.624,0l0,-96.813Zm-293.401,0l-93.625,0l-0,96.813l93.625,0l-0,-96.813Zm1471.19,1308.69l93.62,0l-0,-96.81l-93.62,0l-0,96.81Zm582.62,-403.95l-0,-96.818l-93.62,0l0,96.818l93.62,0Zm-191.42,302.96l93.62,0l-0,-96.81l-93.62,0l0,96.81Zm191.42,-1005.72l-93.62,0l0,96.813l93.62,0l-0,-96.813Zm-2249.42,-201.979l-93.624,0l-0,96.813l93.624,0l0,-96.813Zm782.406,0l-93.626,0l0,96.813l93.626,0l-0,-96.813Zm-778.23,706.929l-0,96.813l93.625,0l-0,-96.813l-93.625,0Zm1075.81,96.813l93.62,0l0,-96.813l-93.62,0l0,96.813Zm293.4,0l93.63,0l-0,-96.813l-93.63,0l-0,96.813Zm-195.6,0l93.62,0l-0,-96.813l-93.62,0l-0,96.813Zm-297.58,-803.742l-93.62,0l0,96.813l93.62,0l0,-96.813Zm684.61,100.989l-93.63,0l0,96.814l93.63,0l0,-96.814Zm-1756.24,302.969l0,96.814l93.628,0l0,-96.814l-93.628,0Zm1658.44,201.982l-93.63,0l-0,96.813l93.63,0l-0,-96.813Zm-582.63,197.802l93.62,0l-0,-96.813l-93.62,0l-0,96.813Zm-884.386,-702.753l-93.624,0l-0,96.814l93.624,0l0,-96.814Zm4.176,807.918l-0,96.81l93.625,0l-0,-96.81l-93.625,0Zm1071.63,-605.939l-93.62,0l0,96.814l93.62,0l0,-96.814Zm293.41,302.972l-93.63,0l0,96.813l93.63,0l0,-96.813Zm-1560.64,605.937l0,96.81l93.628,0l0,-96.81l-93.628,0Zm484.83,-1211.88l-93.624,0l-0,96.813l93.624,0l0,-96.813Zm-484.83,100.989l0,96.814l93.628,0l0,-96.814l-93.628,0Zm876.033,-100.989l-93.625,0l0,96.813l93.625,0l0,-96.813Zm1467.01,0l-93.62,0l0,96.813l93.62,0l-0,-96.813Zm-1169.43,803.742l93.62,0l0,-96.813l-93.62,0l0,96.813Zm-489.007,0l93.624,0l0,-96.813l-93.624,0l-0,96.813Zm93.624,-197.802l-93.624,0l-0,96.813l93.624,0l0,-96.813Zm978.013,0l-93.63,0l0,96.813l93.63,0l0,-96.813Zm-782.41,-302.972l-93.626,0l0,96.814l93.626,0l-0,-96.814Zm4.18,500.774l93.62,0l0,-96.813l-93.62,0l0,96.813Zm-978.014,-298.794l0,96.816l93.628,0l0,-96.816l-93.628,0Zm880.208,298.794l93.626,0l-0,-96.813l-93.626,0l0,96.813Zm1071.64,-197.802l-93.62,0l-0,96.813l93.62,0l-0,-96.813Zm-1756.24,403.957l-0,96.82l93.625,0l-0,-96.82l-93.625,0Zm387.026,-1009.9l-93.625,0l-0,96.813l93.625,0l-0,-96.813Zm-582.63,201.979l0,96.813l93.628,0l0,-96.813l-93.628,0Zm1662.61,601.763l93.63,0l0,-96.813l-93.63,0l0,96.813Zm191.43,-197.802l-93.63,0l0,96.813l93.63,0l-0,-96.813Zm-586.81,0l-93.62,0l0,96.813l93.62,0l0,-96.813Zm-97.8,0l-93.62,0l-0,96.813l93.62,0l-0,-96.813Zm-387.026,197.802l93.625,0l0,-96.813l-93.625,0l0,96.813Zm978.006,0l93.63,0l-0,-96.813l-93.63,0l0,96.813Zm-199.77,-803.742l-93.63,0l0,96.813l93.63,0l0,-96.813Zm-97.81,0l-93.62,0l-0,96.813l93.62,0l-0,-96.813Zm-880.204,100.989l-93.625,0l-0,96.814l93.625,0l-0,-96.814Zm97.801,0l-93.624,0l0,96.814l93.624,0l0,-96.814Zm684.603,0l-93.62,0l0,96.814l93.62,0l0,-96.814Zm0,-100.989l-93.62,0l0,96.813l93.62,0l0,-96.813Zm-1365.03,605.94l0,96.813l93.628,0l0,-96.813l-93.628,0Zm2245.24,-605.94l-93.62,0l0,96.813l93.62,0l-0,-96.813Zm-2245.24,807.919l0,96.818l93.628,0l0,-96.818l-93.628,0Zm1854.04,-807.919l-93.63,0l0,96.813l93.63,0l-0,-96.813Zm97.8,0l-93.62,0l-0,96.813l93.62,0l-0,-96.813Zm-97.8,100.989l-93.63,0l0,96.814l93.63,0l-0,-96.814Zm-1267.24,702.753l93.624,0l0,-96.813l-93.624,0l0,96.813Zm484.827,-197.802l-93.62,0l0,96.813l93.62,0l0,-96.813Zm-1071.63,504.947l0,96.81l93.628,0l0,-96.81l-93.628,0Zm1267.23,-1110.89l-93.62,0l0,96.813l93.62,0l0,-96.813Zm1173.61,0l-93.62,0l0,96.813l93.62,0l-0,-96.813Zm-880.2,100.989l-93.63,0l0,96.814l93.63,0l0,-96.814Zm586.8,-100.989l-93.62,0l-0,96.813l93.62,0l0,-96.813Zm-680.43,803.742l93.63,0l0,-96.813l-93.63,0l0,96.813Zm-688.783,-702.753l-93.624,0l-0,96.814l93.624,0l0,-96.814Zm1275.59,1005.73l93.62,0l0,-96.82l-93.62,0l-0,96.82Zm-590.99,-1005.73l-93.62,0l-0,96.814l93.62,0l-0,-96.814Zm-1462.83,908.908l0,96.82l93.628,0l0,-96.82l-93.628,0Zm1658.44,-1009.9l-93.63,0l-0,96.813l93.63,0l-0,-96.813Zm-782.411,605.94l-93.625,0l0,96.813l93.625,0l0,-96.813Zm1662.61,-605.94l-93.62,0l-0,96.813l93.62,0l0,-96.813Zm-978,403.958l-93.63,0l0,96.814l93.63,0l0,-96.814Zm97.8,0l-93.63,0l-0,96.814l93.63,0l-0,-96.814Zm-880.213,0l-93.624,0l-0,96.814l93.624,0l0,-96.814Zm-484.826,702.759l93.625,0l-0,-96.82l-93.625,0l-0,96.82Zm-0,-298.798l-0,96.818l93.625,0l-0,-96.818l-93.625,0Zm1462.84,-403.961l-93.63,0l0,96.814l93.63,0l0,-96.814Zm586.8,399.784l-0,-96.813l-93.62,0l0,96.813l93.62,0Zm-1854.04,302.975l93.625,0l-0,-96.82l-93.625,0l-0,96.82Zm-489.005,-197.81l0,96.81l93.628,0l0,-96.81l-93.628,0Zm484.83,-807.918l-93.624,0l-0,96.814l93.624,0l0,-96.814Zm1858.21,1005.73l-0,-96.82l-93.62,0l0,96.82l93.62,0Zm-0,-1005.73l-93.62,0l0,96.814l93.62,0l-0,-96.814Zm-195.6,0l-93.62,0l-0,96.814l93.62,0l0,-96.814Zm97.8,601.764l-0,-96.813l-93.62,0l0,96.813l93.62,0Zm-0,-601.764l-93.62,0l0,96.814l93.62,0l-0,-96.814Zm-1560.64,1005.73l93.624,0l0,-96.82l-93.624,0l-0,96.82Zm-297.577,-1005.73l-93.625,0l-0,96.814l93.625,0l-0,-96.814Zm1369.21,-100.989l-93.63,0l0,96.813l93.63,0l0,-96.813Zm-782.41,403.958l-93.626,0l0,96.814l93.626,0l-0,-96.814Zm195.6,-302.969l-93.62,0l-0,96.814l93.62,0l-0,-96.814Zm880.21,-100.989l-93.62,0l0,96.813l93.62,0l0,-96.813Zm-391.2,100.989l-93.63,0l-0,96.814l93.63,0l-0,-96.814Zm391.2,0l-93.62,0l0,96.814l93.62,0l0,-96.814Zm-1564.81,302.969l-93.624,0l-0,96.814l93.624,0l0,-96.814Zm489.004,-302.969l-93.626,0l0,96.814l93.626,0l-0,-96.814Zm-684.605,0l-93.625,0l-0,96.814l93.625,0l-0,-96.814Zm782.405,0l-93.62,0l0,96.814l93.62,0l0,-96.814Zm880.21,201.979l-93.62,0l-0,96.814l93.62,0l-0,-96.814Zm-1951.84,403.961l0,96.813l93.628,0l0,-96.813l-93.628,0Zm2049.64,-302.971l-93.62,0l0,96.814l93.62,0l0,-96.814Zm293.4,601.759l-0,-96.81l-93.62,0l0,96.81l93.62,0Zm-1467.01,-904.728l-93.625,0l0,96.814l93.625,0l0,-96.814Zm489.001,302.969l-93.62,0l0,96.814l93.62,0l0,-96.814Zm-1071.63,100.99l-0,96.816l93.625,0l-0,-96.816l-93.625,0Zm-0,-100.99l-0,96.814l93.625,0l-0,-96.814l-93.625,0Zm978.009,702.759l93.62,0l0,-96.82l-93.62,0l0,96.82Zm582.63,-702.759l-93.63,0l0,96.814l93.63,0l-0,-96.814Zm-1173.61,0l-93.624,0l0,96.814l93.624,0l0,-96.814Zm195.602,0l-93.625,0l0,96.814l93.625,0l0,-96.814Zm3520.83,1009.89l-93.63,0l0,96.813l93.63,0l0,-96.813Zm391.2,0l-93.62,0l0,96.813l93.62,0l0,-96.813Zm-293.4,0l-93.63,0l0,96.813l93.63,0l0,-96.813Zm-2445.02,-4.176l0,-96.81l-93.62,0l0,96.81l93.62,0Zm97.8,0l0,-96.81l-93.62,0l-0,96.81l93.62,0Zm684.604,0l0,-96.81l-93.624,0l0,96.81l93.624,0Zm-586.804,0l-0,-96.81l-93.62,0l0,96.81l93.62,0Zm782.406,0l0,-96.81l-93.625,0l0,96.81l93.625,0Zm293.401,0l0,-96.81l-93.624,0l0,96.81l93.624,0Zm489.003,0l0,-96.81l-93.62,0l0,96.81l93.62,0Zm-1467.01,0l-0,-96.81l-93.62,0l0,96.81l93.62,0Zm880.206,0l0,-96.81l-93.625,0l0,96.81l93.625,0Zm684.604,0l0,-96.81l-93.62,0l0,96.81l93.62,0Zm97.8,0l0,-96.81l-93.62,0l0,96.81l93.62,0Zm-1271.41,0l0,-96.81l-93.628,0l0,96.81l93.628,0Zm-293.404,0l-0,-96.81l-93.62,0l0,96.81l93.62,0Zm1075.81,0l0,-96.81l-93.625,0l0,96.81l93.625,0Zm-978.009,0l0,-96.81l-93.62,0l-0,96.81l93.62,0Zm1075.81,0l0,-96.81l-93.626,0l0,96.81l93.626,0Zm-684.605,0l0,-96.81l-93.625,0l0,96.81l93.625,0Zm-293.405,0l0,-96.81l-93.62,0l-0,96.81l93.62,0Zm489.006,0l0,-96.81l-93.624,0l0,96.81l93.624,0Zm293.401,0l0,-96.81l-93.624,0l0,96.81l93.624,0Zm293.403,0l0,-96.81l-93.62,0l0,96.81l93.62,0Zm-586.804,4.176l-93.624,0l0,96.813l93.624,0l0,-96.813Zm-391.202,0l-93.628,0l0,96.813l93.628,0l0,-96.813Zm978.006,0l-93.62,0l0,96.813l93.62,0l0,-96.813Zm-880.206,0l-93.624,0l0,96.813l93.624,0l0,-96.813Zm489.003,0l-93.624,0l0,96.813l93.624,0l0,-96.813Zm-391.202,0l-93.625,0l0,96.813l93.625,0l0,-96.813Zm880.205,0l-93.62,0l0,96.813l93.62,0l0,-96.813Zm-1564.81,0l-93.62,0l0,96.813l93.62,0l-0,-96.813Zm-880.21,0l-93.62,0l0,96.813l93.62,0l0,-96.813Zm978.01,0l-93.62,0l0,96.813l93.62,0l-0,-96.813Zm-391.2,0l-93.62,0l-0,96.813l93.62,0l-0,-96.813Zm-391.2,0l-93.63,0l0,96.813l93.63,0l0,-96.813Zm489,0l-93.62,0l0,96.813l93.62,0l0,-96.813Zm-195.6,0l-93.63,0l0,96.813l93.63,0l-0,-96.813Zm-195.6,0l-93.63,0l-0,96.813l93.63,0l-0,-96.813Zm782.4,0l-93.62,0l0,96.813l93.62,0l-0,-96.813Zm97.8,0l-93.62,0l-0,96.813l93.62,0l0,-96.813Zm-1075.81,0l-93.62,0l-0,96.813l93.62,0l-0,-96.813Zm293.41,0l-93.63,0l0,96.813l93.63,0l0,-96.813Zm391.2,0l-93.62,0l-0,96.813l93.62,0l0,-96.813Zm-880.21,0l-93.62,0l0,96.813l93.62,0l0,-96.813Zm-586.803,0l-93.624,0l0,96.813l93.624,0l0,-96.813Zm-489.003,0l-93.624,0l-0,96.813l93.624,0l0,-96.813Zm-97.8,0l-93.628,0l0,96.813l93.628,0l0,-96.813Zm684.603,0l-93.624,0l-0,96.813l93.624,0l0,-96.813Zm391.203,0l-93.62,0l-0,96.813l93.62,0l-0,-96.813Zm-782.404,0l-93.625,0l-0,96.813l93.625,0l-0,-96.813Zm-97.801,0l-93.625,0l-0,96.813l93.625,0l-0,-96.813Zm293.401,0l-93.625,0l-0,96.813l93.625,0l-0,-96.813Zm-97.8,0l-93.624,0l-0,96.813l93.624,0l0,-96.813Zm586.804,0l-93.62,0l0,96.813l93.62,0l0,-96.813Zm-195.601,0l-93.625,0l0,96.813l93.625,0l0,-96.813Zm97.801,0l-93.626,0l0,96.813l93.626,0l-0,-96.813Zm3129.62,0l-93.62,0l0,96.813l93.62,0l0,-96.813Zm97.81,0l-93.63,0l0,96.813l93.63,0l0,-96.813Zm391.2,0l-93.62,0l0,96.813l93.62,0l0,-96.813Zm489,0l-93.62,0l0,96.813l93.62,0l0,-96.813Zm-195.6,0l-93.62,0l0,96.813l93.62,0l-0,-96.813Zm97.8,0l-93.62,0l0,96.813l93.62,0l0,-96.813Zm-978.01,0l-93.62,0l0,96.813l93.62,0l0,-96.813Zm-489.001,0l-93.625,0l0,96.813l93.625,0l0,-96.813Zm-489.003,0l-93.625,0l0,96.813l93.625,0l0,-96.813Zm195.6,0l-93.625,0l0,96.813l93.625,0l0,-96.813Zm391.204,0l-93.626,0l0,96.813l93.626,0l0,-96.813Zm-195.603,0l-93.624,0l0,96.813l93.624,0l0,-96.813Zm-782.407,0l-93.62,0l-0,96.813l93.62,0l0,-96.813Zm1858.22,-4.176l0,-96.81l-93.63,0l0,96.81l93.63,0Zm586.8,0l0,-96.81l-93.62,0l0,96.81l93.62,0Zm97.8,0l0,-96.81l-93.62,0l0,96.81l93.62,0Zm-391.2,0l0,-96.81l-93.62,0l0,96.81l93.62,0Zm97.8,0l-0,-96.81l-93.62,0l0,96.81l93.62,0Zm97.8,0l0,-96.81l-93.62,0l0,96.81l93.62,0Zm-391.2,0l0,-96.81l-93.62,0l0,96.81l93.62,0Zm97.8,0l0,-96.81l-93.62,0l0,96.81l93.62,0Zm-391.2,0l0,-96.81l-93.63,0l0,96.81l93.63,0Zm-195.61,0l0,-96.81l-93.62,0l0,96.81l93.62,0Zm97.81,0l0,-96.81l-93.63,0l0,96.81l93.63,0Zm195.6,0l0,-96.81l-93.63,0l0,96.81l93.63,0Zm-4103.46,-803.737l-0,96.813l93.625,0l-0,-96.813l-93.625,0Zm1169.43,-100.992l-93.62,0l-0,96.816l93.62,0l-0,-96.816Zm-191.42,399.789l93.62,0l0,-96.818l-93.62,0l0,96.818Zm586.81,100.98l93.62,0l-0,-96.81l-93.62,0l-0,96.81Zm-1177.79,-500.769l-93.624,0l0,96.816l93.624,0l0,-96.816Zm489.003,-100.99l-93.62,0l-0,96.814l93.62,0l-0,-96.814Zm-680.429,601.759l93.625,0l-0,-96.81l-93.625,0l-0,96.81Zm1462.84,-601.759l-93.62,0l-0,96.814l93.62,0l-0,-96.814Zm-1071.64,500.779l93.626,0l-0,-96.818l-93.626,0l0,96.818Zm684.606,0l93.63,0l-0,-96.818l-93.63,0l-0,96.818Zm-1173.61,201.98l93.624,0l0,-96.82l-93.624,0l-0,96.82Zm1756.24,-803.749l-93.62,0l-0,96.814l93.62,0l0,-96.814Zm97.8,100.99l-93.62,0l0,96.814l93.62,0l-0,-96.814Zm-1369.21,100.99l-93.625,0l0,96.816l93.625,0l0,-96.816Zm1271.41,-100.99l-93.62,0l-0,96.814l93.62,0l0,-96.814Zm-684.61,-100.99l-93.62,0l-0,96.814l93.62,0l-0,-96.814Zm-876.027,601.769l93.624,0l0,-96.818l-93.624,0l0,96.818Zm-293.402,4.17l-0,96.81l93.625,0l-0,-96.81l-93.625,0Zm2347.22,-807.918l0,96.814l93.628,0l0,-96.814l-93.628,0Zm-2151.62,504.951l-0,96.813l93.625,0l-0,-96.813l-93.625,0Zm97.802,500.777l93.624,0l0,-96.82l-93.624,0l0,96.82Zm680.427,-702.759l-93.62,0l0,96.814l93.62,0l0,-96.814Zm880.21,399.784l0,-96.813l-93.62,0l-0,96.813l93.62,0Zm-973.83,302.975l93.62,0l0,-96.82l-93.62,0l0,96.82Zm-590.984,-702.759l-93.625,0l-0,96.814l93.625,0l-0,-96.814Zm880.204,0l-93.62,0l-0,96.814l93.62,0l-0,-96.814Zm-93.62,500.779l93.62,0l-0,-96.818l-93.62,0l-0,96.818Zm876.03,-302.973l-0,-96.816l-93.62,0l0,96.816l93.62,0Zm-1075.81,-96.816l-93.62,0l-0,96.816l93.62,0l-0,-96.816Zm-876.029,201.981l-0,96.813l93.625,0l-0,-96.813l-93.625,0Zm1858.22,399.788l93.62,0l-0,-96.82l-93.62,0l0,96.82Zm-1079.99,-702.759l-93.62,0l0,96.814l93.62,0l0,-96.814Zm2249.42,-100.99l-93.624,0l0,96.814l93.624,0l0,-96.814Zm-1854.04,702.749l93.63,0l0,-96.81l-93.63,0l0,96.81Zm489.01,-100.98l93.62,0l0,-96.818l-93.62,0l0,96.818Zm1662.61,201.98l93.62,0l0,-96.82l-93.62,0l0,96.82Zm-395.384,-803.749l-93.625,0l0,96.814l93.625,0l0,-96.814Zm782.404,0l-93.62,0l0,96.814l93.62,0l0,-96.814Zm-2147.43,601.769l93.62,0l-0,-96.818l-93.62,0l-0,96.818Zm-884.39,-399.789l-93.626,0l0,96.816l93.626,0l-0,-96.816Zm2449.19,702.749l93.625,0l0,-96.81l-93.625,0l0,96.81Zm-4.177,-904.729l-93.624,0l0,96.814l93.624,0l0,-96.814Zm-387.025,904.729l93.624,0l0,-96.81l-93.624,0l0,96.81Zm880.208,0l93.62,0l0,-96.81l-93.62,0l0,96.81Zm-3423.03,-302.96l93.625,0l-0,-96.818l-93.625,0l-0,96.818Zm2347.22,4.17l0,96.81l93.625,0l0,-96.81l-93.625,0Zm-884.38,-403.959l-93.62,0l-0,96.816l93.62,0l-0,-96.816Zm884.38,504.949l0,96.82l93.625,0l0,-96.82l-93.625,0Zm-2053.82,-4.18l93.625,0l0,-96.81l-93.625,0l0,96.81Zm1858.21,-601.759l0,96.814l93.628,0l0,-96.814l-93.628,0Zm387.03,-100.99l-93.625,0l0,96.814l93.625,0l0,-96.814Zm-191.426,403.961l0,96.813l93.625,0l0,-96.813l-93.625,0Zm-2155.79,-100.989l-93.624,0l0,96.813l93.624,0l0,-96.813Zm-289.225,100.989l-0,96.813l93.624,0l0,-96.813l-93.624,0Zm3618.63,500.768l93.62,0l0,-96.81l-93.62,0l0,96.81Zm-2253.59,-702.749l-93.63,0l0,96.816l93.63,0l0,-96.816Zm3227.42,399.789l0,-96.818l-93.62,0l0,96.818l93.62,0Zm-2151.62,-803.748l-93.624,0l0,96.814l93.624,0l0,-96.814Zm782.406,201.979l-93.626,0l0,96.814l93.626,0l0,-96.814Zm-93.626,803.749l93.626,0l0,-96.82l-93.626,0l0,96.82Zm-293.401,100.98l93.624,0l0,-96.81l-93.624,0l0,96.81Zm-391.203,-904.729l0,96.814l93.625,0l0,-96.814l-93.625,0Zm-2445.02,702.749l93.624,0l0,-96.81l-93.624,0l-0,96.81Zm4009.83,101l93.63,0l0,-96.82l-93.63,0l0,96.82Zm-684.6,100.98l93.62,0l0,-96.81l-93.62,0l0,96.81Zm1267.23,-504.944l0,-96.813l-93.62,0l0,96.813l93.62,0Zm-2147.44,504.944l93.625,0l0,-96.81l-93.625,0l0,96.81Zm1071.63,-904.729l-93.62,0l0,96.814l93.62,0l0,-96.814Zm-293.4,100.99l-93.626,0l0,96.814l93.626,0l0,-96.814Zm97.8,-100.99l-93.62,0l0,96.814l93.62,0l0,-96.814Zm101.98,904.729l93.62,0l0,-96.81l-93.62,0l0,96.81Zm-978.01,-702.749l0,96.816l93.625,0l0,-96.816l-93.625,0Zm782.41,702.749l93.62,0l0,-96.81l-93.62,0l0,96.81Zm-101.981,-904.729l-93.625,0l0,96.814l93.625,0l0,-96.814Zm-582.628,904.729l93.625,0l0,-96.81l-93.625,0l0,96.81Zm782.409,-100.98l93.62,0l0,-96.82l-93.62,0l0,96.82Zm1267.23,-803.749l-93.62,0l0,96.814l93.62,0l0,-96.814Zm-684.6,0l-93.63,0l0,96.814l93.63,0l0,-96.814Zm-93.63,803.749l93.63,0l0,-96.82l-93.63,0l0,96.82Zm778.23,-605.945l0,-96.814l-93.62,0l0,96.814l93.62,0Zm-586.8,-197.804l-93.63,0l0,96.814l93.63,0l0,-96.814Zm-1560.64,302.972l0,96.813l93.625,0l0,-96.813l-93.625,0Zm-195.604,-100.992l0,96.816l93.628,0l0,-96.816l-93.628,0Zm484.83,-100.99l-93.624,0l0,96.814l93.624,0l0,-96.814Zm4.175,702.759l93.625,0l0,-96.82l-93.625,0l0,96.82Zm1560.64,-803.749l-93.62,0l0,96.814l93.62,0l0,-96.814Zm-1854.04,100.99l0,96.814l93.625,0l0,-96.814l-93.625,0Zm97.801,403.961l0,96.818l93.625,0l0,-96.818l-93.625,0Zm-97.801,0l0,96.818l93.625,0l0,-96.818l-93.625,0Zm973.83,-504.951l-93.62,0l0,96.814l93.62,0l0,-96.814Zm1173.61,702.749l0,-96.81l-93.62,0l0,96.81l93.62,0Zm-2343.04,-803.738l0,96.813l93.628,0l0,-96.813l-93.628,0Zm1662.61,904.738l93.63,0l0,-96.82l-93.63,0l0,96.82Zm-1369.21,-197.81l0,96.81l93.625,0l0,-96.81l-93.625,0Zm489.003,197.81l93.625,0l0,-96.82l-93.625,0l0,96.82Zm-782.408,-803.749l0,96.814l93.628,0l0,-96.814l-93.628,0Zm2245.24,0l-93.62,0l0,96.814l93.62,0l-0,-96.814Zm-1369.21,201.98l-93.625,0l0,96.816l93.625,0l0,-96.816Zm-97.802,-100.99l-93.624,0l0,96.814l93.624,0l0,-96.814Zm101.977,803.739l93.626,0l0,-96.81l-93.626,0l0,96.81Zm973.836,-904.729l-93.63,0l0,96.814l93.63,0l0,-96.814Zm391.2,100.99l-93.62,0l0,96.814l93.62,0l-0,-96.814Zm-684.6,-100.99l-93.63,0l0,96.814l93.63,0l0,-96.814Zm-876.037,904.729l93.624,0l0,-96.81l-93.624,0l0,96.81Zm-195.602,0l93.625,0l0,-96.81l-93.625,0l0,96.81Zm387.028,-803.739l-93.625,0l0,96.814l93.625,0l0,-96.814Zm982.191,601.759l93.62,0l0,-96.81l-93.62,0l0,96.81Zm191.42,-601.759l-93.62,0l0,96.814l93.62,0l0,-96.814Zm4.18,702.759l93.62,0l0,-96.82l-93.62,0l0,96.82Zm289.22,0l0,-96.82l-93.62,0l0,96.82l93.62,0Zm0,-504.953l0,-96.816l-93.62,0l0,96.816l93.62,0Zm-876.03,504.953l93.63,0l0,-96.82l-93.63,0l0,96.82Zm484.83,-803.749l-93.62,0l0,96.814l93.62,0l0,-96.814Zm-586.81,100.99l-93.62,0l0,96.814l93.62,0l0,-96.814Zm-195.6,0l-93.62,0l0,96.814l93.62,0l0,-96.814Zm4.18,702.759l93.62,0l0,-96.82l-93.62,0l0,96.82Zm1071.63,-504.953l-0,-96.816l-93.62,0l0,96.816l93.62,0Zm-782.41,-298.796l-93.62,0l0,96.814l93.62,0l0,-96.814Zm-978.004,0l-93.624,0l0,96.814l93.624,0l0,-96.814Zm1471.19,803.749l93.62,0l0,-96.82l-93.62,0l0,96.82Zm-1662.62,-601.769l0,96.816l93.625,0l0,-96.816l-93.625,0Zm1560.64,-100.99l-93.63,0l0,96.814l93.63,0l0,-96.814Zm-195.6,0l-93.63,0l0,96.814l93.63,0l0,-96.814Zm-973.837,702.759l93.624,0l0,-96.82l-93.624,0l0,96.82Zm-391.202,-500.777l0,96.813l93.625,0l0,-96.813l-93.625,0Zm684.609,399.777l93.62,0l0,-96.81l-93.62,0l0,96.81Zm973.83,-601.759l-93.62,0l0,96.814l93.62,0l0,-96.814Zm-1560.64,702.759l93.624,0l0,-96.82l-93.624,0l0,96.82Zm684.608,-101l93.62,0l0,-96.81l-93.62,0l0,96.81Zm-782.409,-298.788l0,96.813l93.625,0l0,-96.813l-93.625,0Zm1951.84,298.788l-0,-96.81l-93.62,0l0,96.81l93.62,0Zm-1756.24,0l93.625,0l0,-96.81l-93.625,0l0,96.81Zm973.829,-601.759l-93.62,0l0,96.814l93.62,0l0,-96.814Zm97.81,0l-93.63,0l0,96.814l93.63,0l0,-96.814Zm297.58,702.759l93.62,0l0,-96.82l-93.62,0l0,96.82Zm-1467.02,-500.777l0,96.813l93.624,0l0,-96.813l-93.624,0Zm195.601,500.777l93.624,0l0,-96.82l-93.624,0l0,96.82Zm-4.177,-601.769l-93.625,0l0,96.816l93.625,0l0,-96.816Zm-289.225,601.769l93.625,0l0,-96.82l-93.625,0l0,96.82Zm1369.21,-101l93.63,0l0,-96.81l-93.63,0l0,96.81Zm484.83,-702.749l-93.62,0l0,96.814l93.62,0l0,-96.814Zm-582.63,601.769l93.63,0l0,-96.818l-93.63,0l0,96.818Zm-195.6,100.98l93.62,0l0,-96.81l-93.62,0l0,96.81Zm-978.008,-197.798l0,96.818l93.624,0l0,-96.818l-93.624,0Zm1951.84,-4.177l0,-96.813l-93.62,0l0,96.813l93.62,0Zm-1462.84,201.975l93.626,0l0,-96.81l-93.626,0l0,96.81Zm489.006,101l93.62,0l0,-96.82l-93.62,0l0,96.82Zm586.81,-101l93.62,0l0,-96.81l-93.62,0l0,96.81Zm191.42,-601.759l-93.62,0l0,96.814l93.62,0l0,-96.814Zm-387.03,601.759l93.63,0l0,-96.81l-93.63,0l0,96.81Zm-195.6,0l93.63,0l0,-96.81l-93.63,0l0,96.81Zm-982.184,-601.759l-93.625,0l0,96.814l93.625,0l0,-96.814Zm688.784,702.759l93.62,0l0,-96.82l-93.62,0l0,96.82Zm-590.983,-702.759l-93.624,0l0,96.814l93.624,0l0,-96.814Zm1564.81,298.795l-0,-96.813l-93.62,0l0,96.813l93.62,0Zm-978.01,-298.795l-93.62,0l0,96.814l93.62,0l0,-96.814Zm489.01,0l-93.63,0l0,96.814l93.63,0l0,-96.814Zm297.58,601.759l93.62,0l0,-96.81l-93.62,0l0,96.81Zm97.8,101l93.62,0l-0,-96.82l-93.62,0l0,96.82Zm-1079.99,-601.769l-93.62,0l0,96.816l93.62,0l0,-96.816Zm-387.027,500.769l93.624,0l0,-96.81l-93.624,0l0,96.81Zm778.227,-500.769l-93.62,0l0,96.816l93.62,0l0,-96.816Zm-1071.63,0l0,96.816l93.624,0l0,-96.816l-93.624,0Zm-97.801,-100.99l0,96.814l93.625,0l0,-96.814l-93.625,0Zm978.009,601.759l93.62,0l0,-96.81l-93.62,0l0,96.81Zm-97.8,0l93.62,0l0,-96.81l-93.62,0l0,96.81Zm-293.406,-100.98l93.626,0l0,-96.818l-93.626,0l0,96.818Zm-97.8,0l93.625,0l0,-96.818l-93.625,0l0,96.818Zm-3423.03,-2217.6l0,96.814l93.628,0l0,-96.814l-93.628,0Zm4592.46,1817.81l-93.62,0l0,96.816l93.62,0l0,-96.816Zm-1267.24,399.789l93.624,0l0,-96.818l-93.624,0l0,96.818Zm-3133.8,-2217.6l-93.624,0l-0,96.814l93.624,0l0,-96.814Zm-191.428,201.979l0,96.814l93.628,0l0,-96.814l-93.628,0Zm973.834,0l-93.626,0l0,96.814l93.626,0l-0,-96.814Zm3814.23,1615.83l-93.62,0l0,96.816l93.62,0l0,-96.816Zm-586.8,0l-93.63,0l0,96.816l93.63,0l0,-96.816Zm-2929.85,-711.104l93.62,0l0,-96.81l-93.62,0l0,96.81Zm2147.44,711.104l-93.624,0l0,96.816l93.624,0l0,-96.816Zm-3027.64,-711.104l93.624,0l0,-96.81l-93.624,0l-0,96.81Zm4494.66,1110.89l-0,-96.818l-93.62,0l0,96.818l93.62,0Zm-4205.43,-2015.62l-93.624,0l0,96.814l93.624,0l0,-96.814Zm3329.4,2015.62l93.62,0l0,-96.818l-93.62,0l0,96.818Zm-4009.83,-1914.63l0,96.814l93.628,0l0,-96.814l-93.628,0Zm4107.63,2015.61l93.63,0l0,-96.81l-93.63,0l0,96.81Zm-3912.03,-1611.65l-0,96.818l93.625,0l-0,-96.818l-93.625,0Zm3614.45,1110.88l-93.62,0l0,96.816l93.62,0l0,-96.816Zm-582.627,500.769l93.624,0l0,-96.81l-93.624,0l0,96.81Zm684.607,-100.98l93.62,0l0,-96.818l-93.62,0l0,96.818Zm-199.78,-500.779l-93.62,0l0,96.814l93.62,0l0,-96.814Zm395.38,500.779l93.63,0l0,-96.818l-93.63,0l0,96.818Zm-1075.81,100.98l93.624,0l0,-96.81l-93.624,0l0,96.81Zm1467.02,-100.98l93.62,0l0,-96.818l-93.62,0l0,96.818Zm-3716.44,-1110.89l93.625,0l0,-96.81l-93.625,0l0,96.81Zm586.806,0l93.62,0l-0,-96.81l-93.62,0l-0,96.81Zm-199.78,-904.729l-93.62,0l-0,96.814l93.62,0l-0,-96.814Zm-782.404,0l-93.625,0l-0,96.814l93.625,0l-0,-96.814Zm-93.625,904.729l93.625,0l-0,-96.81l-93.625,0l-0,96.81Zm-97.801,-298.79l-0,96.81l93.625,0l-0,-96.81l-93.625,0Zm-0,100.99l-0,96.82l93.625,0l-0,-96.82l-93.625,0Zm-0,-504.949l-0,96.816l93.625,0l-0,-96.816l-93.625,0Zm684.604,702.749l93.626,0l-0,-96.81l-93.626,0l0,96.81Zm387.026,-904.729l-93.62,0l0,96.814l93.62,0l0,-96.814Zm-289.22,904.729l93.62,0l0,-96.81l-93.62,0l0,96.81Zm-978.014,-1005.72l0,96.813l93.628,0l0,-96.813l-93.628,0Zm195.604,201.979l-0,96.814l93.625,0l-0,-96.814l-93.625,0Z" style="fill:#b4b3b4;fill-opacity:0.25;"/></g></svg>