<?xml version="1.0" encoding="UTF-8" standalone="no"?><!DOCTYPE svg PUBLIC "-//W3C//DTD SVG 1.1//EN" "http://www.w3.org/Graphics/SVG/1.1/DTD/svg11.dtd"><svg width="100%" height="100%" viewBox="0 0 369 71" version="1.1" xmlns="http://www.w3.org/2000/svg" xmlns:xlink="http://www.w3.org/1999/xlink" xml:space="preserve" xmlns:serif="http://www.serif.com/" style="fill-rule:evenodd;clip-rule:evenodd;stroke-linejoin:round;stroke-miterlimit:2;"><g><path d="M324.543,58.431c-1.034,0.138 -2.089,0.209 -3.161,0.209c-1.291,-0 -2.559,-0.104 -3.795,-0.302c-0.342,-0.055 -0.602,-0.338 -0.628,-0.684l-0.547,-7.189c-0.891,-0.284 -1.748,-0.642 -2.566,-1.068l-5.477,4.683c-0.263,0.226 -0.647,0.241 -0.928,0.037c-2.045,-1.485 -3.845,-3.289 -5.326,-5.338c-0.204,-0.281 -0.188,-0.665 0.038,-0.928l4.695,-5.467c-0.424,-0.818 -0.78,-1.676 -1.063,-2.568l-7.187,-0.561c-0.346,-0.027 -0.628,-0.288 -0.682,-0.631c-0.194,-1.22 -0.295,-2.471 -0.295,-3.745c0,-1.274 0.101,-2.525 0.295,-3.745c0.054,-0.343 0.336,-0.604 0.682,-0.631l7.187,-0.561c0.283,-0.892 0.639,-1.75 1.063,-2.568l-4.695,-5.467c-0.226,-0.264 -0.242,-0.647 -0.038,-0.928c1.481,-2.049 3.281,-3.853 5.326,-5.338c0.281,-0.204 0.665,-0.189 0.928,0.037l5.477,4.683c0.818,-0.426 1.675,-0.784 2.566,-1.068l0.547,-7.189c0.026,-0.346 0.286,-0.629 0.628,-0.684c1.236,-0.198 2.504,-0.302 3.795,-0.302c1.072,0 2.127,0.071 3.161,0.209l36.54,0l-0,-1.623c-0,-0.138 0.111,-0.25 0.25,-0.25l0.46,-0c0.138,-0 0.25,0.112 0.25,0.25l0,1.623l2.016,0c0.138,0 0.25,0.112 0.25,0.25l-0,0.461c-0,0.138 -0.112,0.25 -0.25,0.25l-2.016,-0l0,45.182l2.016,0c0.138,0 0.25,0.112 0.25,0.25l-0,0.461c-0,0.138 -0.112,0.25 -0.25,0.25l-2.016,-0l0,1.623c0,0.138 -0.112,0.25 -0.25,0.25l-0.46,0c-0.139,0 -0.25,-0.112 -0.25,-0.25l-0,-1.623l-36.54,-0Zm1.23,-46.143l0.547,6.994c0.891,0.282 1.749,0.639 2.567,1.062l5.468,-4.694c0.263,-0.226 0.646,-0.242 0.927,-0.039c2.049,1.482 3.853,3.282 5.338,5.327c0.204,0.281 0.189,0.665 -0.036,0.928l-0.834,0.975l13.418,-0l0,-2.006c0,-0.138 0.112,-0.25 0.25,-0.25l0.461,0c0.138,0 0.25,0.112 0.25,0.25l-0,2.006l2.032,-0c0.138,-0 0.25,0.112 0.25,0.25l0,0.46c0,0.138 -0.112,0.25 -0.25,0.25l-2.032,0l-0,22.156l2.032,-0c0.138,-0 0.25,0.112 0.25,0.25l0,0.46c0,0.138 -0.112,0.25 -0.25,0.25l-2.032,0l-0,2.006c-0,0.138 -0.112,0.25 -0.25,0.25l-0.461,-0c-0.138,-0 -0.25,-0.112 -0.25,-0.25l0,-2.006l-13.418,0l0.834,0.975c0.225,0.263 0.24,0.647 0.036,0.928c-1.485,2.045 -3.289,3.845 -5.338,5.327c-0.281,0.203 -0.664,0.187 -0.927,-0.039l-5.468,-4.695c-0.818,0.424 -1.676,0.781 -2.567,1.063l-0.547,6.994l35.31,0l-0,-45.182l-35.31,-0Zm6.37,22.591c-0,-5.939 -4.822,-10.761 -10.761,-10.761c-5.939,0 -10.761,4.822 -10.761,10.761c0,5.939 4.822,10.761 10.761,10.761c5.939,-0 10.761,-4.822 10.761,-10.761Zm4.812,11.078l-2.529,-2.959c-0.205,-0.239 -0.238,-0.581 -0.084,-0.855c0.564,-1.003 1.015,-2.078 1.335,-3.207c0.086,-0.302 0.351,-0.519 0.665,-0.543l7.104,-0.541c0.13,-0.972 0.197,-1.965 0.197,-2.973c-0,-1.008 -0.067,-2.001 -0.197,-2.973l-7.104,-0.541c-0.314,-0.024 -0.579,-0.241 -0.665,-0.543c-0.32,-1.129 -0.771,-2.204 -1.335,-3.207c-0.154,-0.275 -0.121,-0.616 0.084,-0.855l2.529,-2.959l-10.315,0c4.139,1.97 7.003,6.192 7.003,11.078c-0,4.886 -2.864,9.108 -7.003,11.078l10.315,-0Zm0.822,-23.116l1.277,-1.494c-1.202,-1.567 -2.608,-2.969 -4.177,-4.168l-5.403,4.639c-0.239,0.205 -0.581,0.239 -0.855,0.085c-1.004,-0.561 -2.08,-1.01 -3.21,-1.328c-0.303,-0.085 -0.52,-0.35 -0.545,-0.663l-0.555,-7.103c-0.958,-0.126 -1.935,-0.191 -2.927,-0.191c-1.008,0 -2,0.067 -2.973,0.197l-0.541,7.104c-0.024,0.314 -0.24,0.579 -0.543,0.665c-1.129,0.32 -2.204,0.771 -3.207,1.335c-0.274,0.154 -0.616,0.121 -0.855,-0.084l-5.413,-4.628c-1.567,1.202 -2.969,2.608 -4.168,4.177l4.639,5.404c0.205,0.238 0.239,0.58 0.086,0.854c-0.562,1.004 -1.011,2.08 -1.328,3.21c-0.086,0.303 -0.351,0.52 -0.664,0.545l-7.103,0.555c-0.126,0.958 -0.191,1.935 -0.191,2.927c0,0.992 0.065,1.969 0.191,2.927l7.103,0.555c0.313,0.025 0.578,0.242 0.664,0.545c0.317,1.13 0.766,2.206 1.328,3.21c0.153,0.274 0.119,0.616 -0.086,0.854l-4.639,5.404c1.199,1.569 2.601,2.975 4.168,4.177l5.413,-4.628c0.239,-0.205 0.581,-0.238 0.855,-0.084c1.003,0.564 2.078,1.015 3.207,1.335c0.303,0.086 0.519,0.351 0.543,0.665l0.541,7.104c0.973,0.13 1.965,0.197 2.973,0.197c0.992,-0 1.969,-0.065 2.927,-0.191l0.555,-7.103c0.025,-0.313 0.242,-0.578 0.545,-0.663c1.13,-0.318 2.206,-0.767 3.21,-1.328c0.274,-0.154 0.616,-0.12 0.855,0.085l5.403,4.639c1.569,-1.199 2.975,-2.601 4.177,-4.168l-1.277,-1.494l-14.059,0c-0.756,0.146 -1.537,0.223 -2.336,0.223c-6.767,-0 -12.261,-5.494 -12.261,-12.261c0,-6.767 5.494,-12.261 12.261,-12.261c0.799,0 1.58,0.077 2.336,0.223l14.059,-0Zm1.152,23.116l14.239,-0l0,-22.156l-14.239,0l-3.028,3.542c0.425,0.817 0.783,1.675 1.067,2.565l7.189,0.547c0.346,0.027 0.629,0.287 0.684,0.629c0.199,1.236 0.302,2.503 0.302,3.795c-0,1.291 -0.103,2.559 -0.302,3.795c-0.055,0.342 -0.338,0.602 -0.684,0.629l-7.189,0.546c-0.284,0.891 -0.642,1.749 -1.067,2.566l3.028,3.542Z" style="fill:#56a8ff;"/><path d="M297.959,38.784c-0.02,-0.051 -0.035,-0.104 -0.043,-0.16c-0.194,-1.22 -0.295,-2.471 -0.295,-3.745c0,-1.274 0.101,-2.525 0.295,-3.745c0.008,-0.056 0.023,-0.109 0.043,-0.16l0,7.81Zm0.567,0.462l0,-8.734c0.024,-0.004 0.048,-0.007 0.072,-0.009l7.187,-0.561c0.182,-0.573 0.394,-1.132 0.635,-1.676l1.657,0c-0.41,0.822 -0.745,1.687 -0.998,2.586c-0.086,0.303 -0.351,0.52 -0.664,0.545l-7.103,0.555c-0.126,0.958 -0.191,1.935 -0.191,2.927c0,0.992 0.065,1.969 0.191,2.927l7.103,0.555c0.313,0.025 0.578,0.242 0.664,0.545c0.28,0.997 0.662,1.952 1.135,2.853l-1.673,0c-0.292,-0.627 -0.544,-1.276 -0.756,-1.943l-7.187,-0.561c-0.024,-0.002 -0.048,-0.005 -0.072,-0.009Zm9.849,-11.547l-1.691,0c0.053,-0.109 0.108,-0.217 0.164,-0.325l-4.695,-5.467c-0.226,-0.264 -0.242,-0.647 -0.038,-0.928c1.481,-2.049 3.281,-3.853 5.326,-5.338c0.281,-0.204 0.665,-0.189 0.928,0.037l3.743,3.2l0,1.973l-4.262,-3.644c-1.567,1.202 -2.969,2.608 -4.168,4.177l4.639,5.404c0.205,0.238 0.239,0.58 0.086,0.854c-0.011,0.019 -0.022,0.038 -0.032,0.057Zm4.304,-6.363l0,-1.974l1.167,0.999c0.818,-0.426 1.675,-0.784 2.566,-1.068l0.387,-5.087l1.504,0l-0.435,5.713c-0.024,0.314 -0.24,0.579 -0.543,0.665c-1.129,0.32 -2.204,0.771 -3.207,1.335c-0.274,0.154 -0.616,0.121 -0.855,-0.084l-0.584,-0.499Zm5.667,-7.697l-1.504,0l0.117,-1.535c0.026,-0.346 0.286,-0.629 0.628,-0.684c1.236,-0.198 2.504,-0.302 3.795,-0.302c1.072,0 2.127,0.071 3.161,0.209l1.722,0l0,0.961l-0.492,-0l0.106,1.351l-1.505,0l-0.065,-0.83c-0.958,-0.126 -1.935,-0.191 -2.927,-0.191c-1.008,0 -2,0.067 -2.973,0.197l-0.063,0.824Zm8.486,-1.351l0,-0.961l13.586,0l0,0.961l-13.586,-0Zm14.153,-0l-0,-0.961l13.586,0l0,0.961l-13.586,-0Zm14.153,-0l-0,-0.961l5.945,0l-0,-1.623c-0,-0.138 0.111,-0.25 0.25,-0.25l0.46,-0c0.138,-0 0.25,0.112 0.25,0.25l0,1.623l2.016,0c0.138,0 0.25,0.112 0.25,0.25l-0,0.461c-0,0.138 -0.112,0.25 -0.25,0.25l-2.016,-0l0,1.351l-0.96,0l-0,-1.351l-5.945,-0Zm5.945,1.918l0.96,0l0,13.493l-0.96,0l-0,-13.493Zm-0,14.06l0.96,0l0,13.493l-0.96,0l-0,-13.493Zm-0,14.06l0.96,0l0,13.493l-0.96,-0l-0,-13.493Zm-0,14.06l0.96,-0l0,1.084l2.016,0c0.138,0 0.25,0.112 0.25,0.25l-0,0.461c-0,0.138 -0.112,0.25 -0.25,0.25l-2.016,-0l0,1.623c0,0.138 -0.112,0.25 -0.25,0.25l-0.46,0c-0.139,0 -0.25,-0.112 -0.25,-0.25l-0,-1.623l-5.945,-0l-0,-0.961l5.945,0l-0,-1.084Zm-6.512,1.084l0,0.961l-13.586,-0l-0,-0.961l13.586,0Zm-14.153,0l0,0.961l-13.586,-0l0,-0.961l13.586,0Zm-14.153,0l0,0.961l-1.722,-0c-1.034,0.138 -2.089,0.209 -3.161,0.209c-1.291,-0 -2.559,-0.104 -3.795,-0.302c-0.342,-0.055 -0.602,-0.338 -0.628,-0.684l-0.097,-1.268l1.504,-0l0.043,0.557c0.973,0.13 1.965,0.197 2.973,0.197c0.992,-0 1.969,-0.065 2.927,-0.191l0.044,-0.563l1.505,-0l-0.085,1.084l0.492,0Zm-7.942,-1.651l-1.504,-0l-0.407,-5.354c-0.891,-0.284 -1.748,-0.642 -2.566,-1.068l-1.167,0.999l0,-1.974l0.584,-0.499c0.239,-0.205 0.581,-0.238 0.855,-0.084c1.003,0.564 2.078,1.015 3.207,1.335c0.303,0.086 0.519,0.351 0.543,0.665l0.455,5.98Zm-6.211,-6.912l0,1.973l-3.743,3.2c-0.263,0.226 -0.647,0.241 -0.928,0.037c-2.045,-1.485 -3.845,-3.289 -5.326,-5.338c-0.204,-0.281 -0.188,-0.665 0.038,-0.928l4.695,-5.467c-0.01,-0.019 -0.02,-0.039 -0.03,-0.058l1.668,0c0.047,0.225 -0.01,0.464 -0.165,0.644l-4.639,5.404c1.199,1.569 2.601,2.975 4.168,4.177l4.262,-3.644Zm-0.877,-7.148c-1.334,-1.962 -2.114,-4.331 -2.114,-6.88c0,-2.435 0.712,-4.704 1.937,-6.613l1.054,0l0,1.149c-0.947,1.602 -1.491,3.47 -1.491,5.464c0,1.994 0.544,3.862 1.491,5.464l0,1.416l-0.877,0Zm0.21,-14.06c0.21,-0.29 0.433,-0.571 0.667,-0.841l0,0.841l-0.667,0Zm1.925,0l-0.691,0l0,-1.453c2.222,-2.24 5.302,-3.628 8.703,-3.628c0.799,0 1.58,0.077 2.336,0.223l2.547,-0l0,2.448c-1.466,-0.749 -3.125,-1.171 -4.883,-1.171c-3.181,0 -6.042,1.384 -8.012,3.581Zm-0.691,0.854l0,-0.287l0.216,0c-0.074,0.094 -0.146,0.19 -0.216,0.287Zm13.586,-7.708c-0.282,-0.098 -0.567,-0.188 -0.856,-0.27c-0.303,-0.085 -0.52,-0.35 -0.545,-0.663l-0.446,-5.706l1.505,0l0.342,4.38l0,2.259Zm0.567,0.21l0,-1.601c0.709,0.251 1.395,0.549 2.055,0.89l5.468,-4.694c0.263,-0.226 0.646,-0.242 0.927,-0.039c1.957,1.415 3.69,3.12 5.136,5.053l0,1.396l-0.668,0.781l0.668,-0l0,0.96l-1.489,0l-3.028,3.542c0.061,0.118 0.121,0.237 0.179,0.356l-1.691,0c-0.015,-0.028 -0.031,-0.056 -0.047,-0.084c-0.154,-0.275 -0.121,-0.616 0.084,-0.855l2.529,-2.959l-10.123,0l0,-0.96l10.945,-0l1.277,-1.494c-1.202,-1.567 -2.608,-2.969 -4.177,-4.168l-5.403,4.639c-0.239,0.205 -0.581,0.239 -0.855,0.085c-0.573,-0.32 -1.17,-0.604 -1.787,-0.848Zm14.153,2.746l-0,-0.96l12.183,-0l0,-2.006c0,-0.138 0.112,-0.25 0.25,-0.25l0.461,0c0.138,0 0.25,0.112 0.25,0.25l-0,2.006l0.442,-0l0,0.96l-0.442,0l-0,3.898l-0.961,0l0,-3.898l-12.183,0Zm14.153,0l-0,-0.96l1.023,-0c0.138,-0 0.25,0.112 0.25,0.25l0,0.46c0,0.138 -0.112,0.25 -0.25,0.25l-1.023,0Zm-1.97,4.465l0.961,0l-0,13.493l-0.961,0l0,-13.493Zm0,14.06l0.961,0l-0,3.631l0.442,-0l0,0.96l-0.442,0l-0,2.006c-0,0.138 -0.112,0.25 -0.25,0.25l-0.461,-0c-0.138,-0 -0.25,-0.112 -0.25,-0.25l0,-2.006l-12.183,0l-0,-0.96l12.183,-0l0,-3.631Zm1.97,4.591l-0,-0.96l1.023,-0c0.138,-0 0.25,0.112 0.25,0.25l0,0.46c0,0.138 -0.112,0.25 -0.25,0.25l-1.023,0Zm-14.72,-0.96l0,0.96l-0.668,0l0.668,0.781l0,1.396c-1.446,1.933 -3.179,3.638 -5.136,5.053c-0.281,0.203 -0.664,0.187 -0.927,-0.039l-5.468,-4.695c-0.66,0.342 -1.346,0.64 -2.055,0.891l0,-1.601c0.617,-0.244 1.214,-0.528 1.787,-0.848c0.274,-0.154 0.616,-0.12 0.855,0.085l5.403,4.639c1.569,-1.199 2.975,-2.601 4.177,-4.168l-1.277,-1.494l-10.945,0l0,-0.96l10.123,-0l-2.529,-2.959c-0.161,-0.188 -0.216,-0.44 -0.157,-0.672l1.677,0c-0.015,0.03 -0.03,0.059 -0.045,0.089l3.028,3.542l1.489,-0Zm-14.153,2.956l0,2.26l-0.363,4.646l-1.505,-0l0.467,-5.973c0.025,-0.313 0.242,-0.578 0.545,-0.663c0.289,-0.082 0.574,-0.172 0.856,-0.27Zm0,-1.996l-2.547,0c-0.756,0.146 -1.537,0.223 -2.336,0.223c-3.401,-0 -6.481,-1.388 -8.703,-3.628l0,-1.186l0.939,0c1.958,2.042 4.714,3.314 7.764,3.314c1.758,-0 3.417,-0.423 4.883,-1.171l0,2.448Zm-14.153,-4.017c-0.161,-0.186 -0.317,-0.378 -0.468,-0.574l0.468,0l0,0.574Zm0.999,-1.141l-0.432,0l0,-0.554c0.138,0.19 0.282,0.374 0.432,0.554Zm13.721,-16.159l0,-1.705c1.787,0.889 3.326,2.201 4.487,3.804l-1.924,0c-0.739,-0.824 -1.604,-1.534 -2.563,-2.099Zm0,20.263l0,-1.705c0.854,-0.503 1.633,-1.121 2.315,-1.832l1.973,0c-1.136,1.482 -2.602,2.698 -4.288,3.537Zm4.697,-4.104l-1.875,0c1.554,-1.866 2.489,-4.264 2.489,-6.88c-0,-2.492 -0.849,-4.788 -2.274,-6.613l1.837,0c1.226,1.909 1.937,4.178 1.937,6.613c-0,2.549 -0.78,4.918 -2.114,6.88Zm3.158,-13.493l1.658,0c0.236,0.533 0.444,1.081 0.623,1.642l3.45,0.263l0,1.504l-4.076,-0.31c-0.314,-0.024 -0.579,-0.241 -0.665,-0.543c-0.252,-0.889 -0.585,-1.743 -0.99,-2.556Zm6.298,3.452l-0,-1.504l3.172,0.241c0.346,0.027 0.629,0.287 0.684,0.629c0.199,1.236 0.302,2.503 0.302,3.795c-0,1.291 -0.103,2.559 -0.302,3.795c-0.055,0.342 -0.338,0.602 -0.684,0.629l-3.172,0.241l-0,-1.504l2.461,-0.188c0.13,-0.972 0.197,-1.965 0.197,-2.973c-0,-1.008 -0.067,-2.001 -0.197,-2.973l-2.461,-0.188Zm-0.567,6.365l0,1.504l-3.45,0.262c-0.209,0.656 -0.458,1.293 -0.745,1.91l-1.672,0c0.467,-0.892 0.846,-1.836 1.126,-2.823c0.086,-0.302 0.351,-0.519 0.665,-0.543l4.076,-0.31Z" style="fill:#1581f3;"/></g><g><path d="M288.839,31.655c-0.631,2.658 -1.378,5.265 -2.242,7.823c-0.863,2.557 -1.802,5.082 -2.815,7.573c-1.013,2.491 -2.084,4.965 -3.213,7.423l-3.388,7.374c0.033,0.366 0.157,0.665 0.373,0.897c0.216,0.233 0.465,0.432 0.748,0.598c0.282,0.166 0.581,0.332 0.896,0.498c0.316,0.166 0.59,0.349 0.822,0.548c0.1,0.299 0.092,0.582 -0.024,0.847c-0.117,0.266 -0.283,0.507 -0.499,0.723c-0.216,0.216 -0.448,0.423 -0.697,0.623c-0.249,0.199 -0.474,0.398 -0.673,0.597c-0.731,-0.066 -1.428,-0.348 -2.092,-0.847c-0.665,-0.498 -1.146,-1.079 -1.445,-1.743c0.996,-2.392 2.067,-4.742 3.213,-7.05c1.146,-2.309 2.201,-4.676 3.164,-7.1c-0.664,-2.525 -1.428,-4.991 -2.292,-7.399c-0.863,-2.408 -1.91,-4.742 -3.139,-7c-0.531,-0.964 -1.212,-1.711 -2.042,-2.242c-0.831,-0.532 -1.678,-1.047 -2.541,-1.545c0.166,-0.598 0.523,-1.071 1.071,-1.42c0.548,-0.349 1.054,-0.672 1.519,-0.971c0.598,-0.034 1.146,0.049 1.645,0.249c0.498,0.199 0.963,0.49 1.395,0.872c0.431,0.382 0.813,0.813 1.146,1.295c0.332,0.482 0.597,0.972 0.797,1.47l2.192,5.182c0.299,0.963 0.631,1.893 0.996,2.79c0.366,0.896 0.831,1.76 1.396,2.59c0.963,-1.428 1.669,-2.989 2.117,-4.683c0.448,-1.694 0.889,-3.388 1.32,-5.082c0.332,-0.399 0.416,-0.872 0.249,-1.42c-0.166,-0.548 -0.332,-1.063 -0.498,-1.544c-0.166,-0.482 -0.182,-0.872 -0.05,-1.171c0.133,-0.299 0.681,-0.382 1.645,-0.249l0.946,0.149l0,1.345Zm-73.141,2.541c0.465,0.897 0.731,1.827 0.798,2.79c0.066,0.964 -0,1.935 -0.2,2.915c-0.199,0.98 -0.515,1.927 -0.946,2.84c-0.432,0.913 -0.897,1.752 -1.395,2.516c-1.063,1.196 -2.284,2.059 -3.663,2.591c-1.378,0.531 -2.823,0.847 -4.334,0.947c-1.511,0.099 -3.039,0.016 -4.584,-0.25c-1.544,-0.265 -2.998,-0.614 -4.359,-1.046c-0.465,0.731 -0.823,1.511 -1.072,2.342c-0.249,0.83 -0.589,1.627 -1.021,2.391c-0.199,-0.066 -0.407,-0.157 -0.623,-0.274c-0.216,-0.116 -0.224,-0.34 -0.025,-0.672c0.498,-1.395 1.005,-2.782 1.52,-4.161c0.515,-1.378 0.872,-2.831 1.071,-4.359c0.199,-0.133 0.399,-0.183 0.598,-0.15c0.199,0.034 0.39,0.117 0.573,0.25c0.183,0.132 0.374,0.282 0.573,0.448c0.199,0.166 0.398,0.299 0.598,0.399c1.594,0.996 3.288,1.818 5.082,2.466c1.793,0.648 3.72,0.888 5.779,0.722c0.631,-0.199 1.121,-0.523 1.47,-0.971c0.349,-0.449 0.623,-0.955 0.822,-1.52c0.199,-0.565 0.357,-1.154 0.473,-1.769c0.117,-0.614 0.275,-1.187 0.474,-1.719c-0,-0.498 -0.017,-1.004 -0.05,-1.519c-0.033,-0.515 -0.125,-0.997 -0.274,-1.445c-0.15,-0.448 -0.374,-0.855 -0.673,-1.221c-0.299,-0.365 -0.697,-0.647 -1.195,-0.847c-0.731,-0.265 -1.462,-0.299 -2.193,-0.099c-0.73,0.199 -1.445,0.382 -2.142,0.548c-1.262,0.332 -2.541,0.689 -3.836,1.071c-1.296,0.382 -2.674,0.573 -4.136,0.573c-0.465,-0.067 -0.93,-0.224 -1.395,-0.473c-0.465,-0.25 -0.83,-0.64 -1.096,-1.171c-0.365,-0.797 -0.59,-1.636 -0.673,-2.516c-0.083,-0.881 -0.058,-1.761 0.075,-2.641c0.133,-0.88 0.357,-1.736 0.673,-2.566c0.315,-0.83 0.689,-1.594 1.121,-2.292c0.564,-0.498 1.171,-0.988 1.818,-1.47c0.648,-0.481 1.321,-0.88 2.018,-1.195c0.698,-0.316 1.428,-0.532 2.192,-0.648c0.764,-0.116 1.545,-0.058 2.342,0.174c0.963,0.465 1.885,1.063 2.765,1.794c0.881,0.731 1.769,1.412 2.666,2.043c0.299,-0.2 0.531,-0.416 0.697,-0.648c0.166,-0.233 0.324,-0.482 0.474,-0.747c0.149,-0.266 0.299,-0.524 0.448,-0.773c0.15,-0.249 0.357,-0.473 0.623,-0.672c0.432,-0.1 0.78,0.033 1.046,0.398l0,0.499c-0.897,1.029 -1.685,2.084 -2.366,3.163c-0.681,1.08 -1.155,2.251 -1.42,3.513c0.232,0.166 0.506,0.224 0.822,0.174c0.315,-0.05 0.606,-0.025 0.872,0.075c0.664,0.199 1.27,0.448 1.818,0.747c0.548,0.299 1.005,0.781 1.37,1.445Zm-6.078,-2.242c-0.797,-1.229 -1.711,-2.449 -2.74,-3.662c-1.03,-1.212 -2.176,-2.217 -3.438,-3.014c-0.465,-0.266 -0.93,-0.374 -1.395,-0.324c-0.465,0.05 -0.897,0.224 -1.296,0.523c-0.564,0.399 -0.98,0.88 -1.245,1.445c-0.266,0.565 -0.432,1.171 -0.499,1.819c-0.066,0.647 -0.074,1.303 -0.024,1.968c0.049,0.664 0.124,1.312 0.224,1.943c0.365,0.631 0.805,1.038 1.32,1.22c0.515,0.183 1.063,0.241 1.644,0.175c0.582,-0.067 1.171,-0.191 1.769,-0.374c0.598,-0.183 1.179,-0.307 1.744,-0.374l0.199,-0.348l0.15,0.299c0.631,-0.2 1.245,-0.399 1.843,-0.598c0.598,-0.2 1.179,-0.432 1.744,-0.698Zm-46.834,-9.367c0.066,0.266 0.041,0.532 -0.075,0.798c-0.116,0.265 -0.257,0.523 -0.423,0.772c-0.167,0.249 -0.341,0.473 -0.524,0.672c-0.182,0.2 -0.323,0.366 -0.423,0.499c-0.199,0.199 -0.407,0.448 -0.623,0.747c-0.216,0.299 -0.457,0.581 -0.722,0.847c-0.266,0.266 -0.548,0.465 -0.847,0.598c-0.299,0.133 -0.615,0.116 -0.947,-0.05c0.1,-0.764 0.299,-1.536 0.598,-2.317c0.299,-0.78 0.581,-1.553 0.847,-2.316c0.1,-0.233 0.232,-0.349 0.399,-0.349c0.166,-0 0.332,0.016 0.498,0.05c0.166,0.033 0.332,0.049 0.498,0.049c0.166,0 0.316,-0.099 0.448,-0.299c0.2,0.167 0.407,0.233 0.623,0.2c0.216,-0.033 0.44,-0 0.673,0.099Zm0.349,22.919l-0.2,0.548l-5.032,3.687c-0.166,-0.066 -0.349,-0.124 -0.548,-0.174c-0.199,-0.05 -0.332,-0.175 -0.399,-0.374c0,-2.192 0.067,-4.451 0.2,-6.776c0.133,-2.325 0.066,-4.633 -0.2,-6.925c-0.597,-0.997 -1.395,-1.86 -2.391,-2.591c-0.1,-0.266 -0.091,-0.457 0.025,-0.573c0.116,-0.116 0.266,-0.191 0.448,-0.224c0.183,-0.034 0.374,-0.058 0.573,-0.075c0.2,-0.017 0.366,-0.075 0.498,-0.174c0.565,-0.167 1.138,-0.308 1.719,-0.424c0.582,-0.116 1.155,-0.274 1.719,-0.473c0.2,0.099 0.449,0.124 0.748,0.074c0.299,-0.049 0.481,0.108 0.548,0.474c-0.067,2.292 -0.125,4.708 -0.175,7.249c-0.05,2.541 -0.108,4.941 -0.174,7.2c0.365,0.166 0.697,0.108 0.996,-0.175c0.299,-0.282 0.598,-0.54 0.897,-0.772c0.233,-0.066 0.39,-0.042 0.474,0.075c0.083,0.116 0.174,0.257 0.274,0.423Zm17.388,-0.747c-0.465,1.063 -1.221,1.968 -2.267,2.715c-1.046,0.748 -2.068,1.354 -3.064,1.819c-0.731,0.066 -1.462,0.05 -2.192,-0.05c-0.731,-0.1 -1.429,-0.282 -2.093,-0.548c-0.664,-0.266 -1.27,-0.631 -1.819,-1.096c-0.548,-0.465 -0.988,-1.047 -1.32,-1.744c-0.266,-1.196 -0.457,-2.441 -0.573,-3.737c-0.116,-1.295 -0.091,-2.574 0.075,-3.836c0.166,-1.262 0.498,-2.458 0.996,-3.587c0.499,-1.13 1.213,-2.11 2.143,-2.94c0.498,-0.233 1.021,-0.482 1.569,-0.747c0.548,-0.266 1.113,-0.474 1.694,-0.623c0.581,-0.15 1.154,-0.208 1.719,-0.175c0.565,0.034 1.129,0.216 1.694,0.548c0.664,0.167 1.279,0.524 1.844,1.072c0.564,0.548 0.93,1.154 1.096,1.818c-0.166,0.465 -0.44,0.914 -0.822,1.345c-0.382,0.432 -0.806,0.764 -1.271,0.997c-0.498,-0.897 -1.171,-1.736 -2.018,-2.516c-0.847,-0.781 -1.752,-1.304 -2.715,-1.57c-0.498,0.133 -0.897,0.366 -1.196,0.698c-0.299,0.332 -0.531,0.706 -0.697,1.121c-0.166,0.415 -0.291,0.855 -0.374,1.32c-0.083,0.465 -0.158,0.897 -0.224,1.296c-0.166,0.93 -0.258,1.851 -0.274,2.765c-0.017,0.913 0.083,1.802 0.299,2.665c0.216,0.864 0.548,1.67 0.996,2.417c0.449,0.747 1.038,1.403 1.769,1.968c0.565,0.299 1.179,0.506 1.843,0.623c0.665,0.116 1.312,0.074 1.943,-0.125l2.392,-2.591c0.266,-0.066 0.457,-0.008 0.573,0.175c0.116,0.182 0.208,0.357 0.274,0.523Zm52.713,2.89c-0.631,0.299 -1.279,0.614 -1.943,0.946c-0.664,0.332 -1.345,0.606 -2.043,0.822c-0.697,0.216 -1.403,0.341 -2.117,0.374c-0.714,0.033 -1.42,-0.116 -2.118,-0.448c-0.996,-0.465 -1.752,-1.063 -2.267,-1.794c-0.514,-0.731 -0.88,-1.536 -1.096,-2.416c-0.216,-0.881 -0.307,-1.811 -0.274,-2.791c0.033,-0.979 0.108,-1.959 0.224,-2.939c0.117,-0.98 0.233,-1.935 0.349,-2.865c0.116,-0.93 0.158,-1.794 0.125,-2.591l0.05,-0.946l-2.641,-1.246l0.199,-0.548c0.399,-0.299 0.88,-0.498 1.445,-0.598c0.565,-0.1 1.046,-0.332 1.445,-0.698c0.531,-0.531 0.996,-1.154 1.395,-1.868c0.399,-0.714 0.897,-1.237 1.495,-1.569c0.066,-0.067 0.133,-0.075 0.199,-0.025c0.066,0.05 0.133,0.058 0.199,0.025c0.1,0.299 0.158,0.622 0.175,0.971l0.05,1.046c0.016,0.349 0.066,0.681 0.149,0.997c0.083,0.316 0.257,0.59 0.523,0.822c1.063,-0.1 2.101,-0.141 3.114,-0.125c1.013,0.017 2.051,0.009 3.114,-0.024c0.133,0.431 0.1,0.838 -0.1,1.22c-0.199,0.382 -0.398,0.756 -0.597,1.121c-0.532,0.1 -1.022,0.158 -1.47,0.175c-0.449,0.016 -0.889,0.025 -1.321,0.025c-0.398,-0 -0.822,0.008 -1.27,0.024c-0.448,0.017 -0.938,0.075 -1.47,0.175c-0.332,0.133 -0.54,0.274 -0.623,0.423c-0.083,0.15 -0.157,0.357 -0.224,0.623c-0.166,1.694 -0.274,3.463 -0.324,5.306c-0.05,1.844 0.108,3.646 0.474,5.406c0.166,0.532 0.465,1.047 0.896,1.545c0.432,0.498 0.93,0.847 1.495,1.046c0.764,0.266 1.511,0.291 2.242,0.075c0.731,-0.216 1.462,-0.457 2.192,-0.723c0.233,0.266 0.349,0.615 0.349,1.047Zm15.744,-2.541c-0.996,1.361 -2.242,2.441 -3.736,3.238c-1.495,0.797 -3.123,1.013 -4.883,0.648c-0.764,-0.233 -1.437,-0.598 -2.018,-1.096c-0.581,-0.499 -1.063,-1.063 -1.445,-1.694c-0.382,-0.631 -0.681,-1.312 -0.897,-2.043c-0.215,-0.731 -0.34,-1.478 -0.373,-2.242c0.033,-1.063 0.091,-2.134 0.174,-3.214c0.083,-1.079 0.291,-2.109 0.623,-3.089c0.332,-0.98 0.814,-1.852 1.445,-2.615c0.631,-0.764 1.494,-1.379 2.591,-1.844c0.631,-0.432 1.353,-0.756 2.167,-0.972c0.814,-0.215 1.611,-0.29 2.391,-0.224c0.781,0.067 1.52,0.299 2.218,0.698c0.697,0.398 1.245,1.013 1.644,1.843c0.465,0.964 0.797,1.977 0.996,3.04c0.2,1.062 0.291,2.142 0.274,3.238c-0.016,1.096 -0.133,2.176 -0.348,3.239c-0.216,1.062 -0.49,2.092 -0.823,3.089Zm-2.341,-8.171c-0.133,-0.565 -0.332,-1.146 -0.598,-1.744c-0.266,-0.598 -0.598,-1.154 -0.997,-1.669c-0.398,-0.515 -0.863,-0.964 -1.395,-1.346c-0.531,-0.382 -1.112,-0.639 -1.744,-0.772c-0.431,0.067 -0.813,0.241 -1.145,0.523c-0.333,0.283 -0.632,0.573 -0.897,0.872c-0.532,1.628 -0.806,3.28 -0.822,4.958c-0.017,1.677 0.257,3.33 0.822,4.957c0.365,0.764 0.913,1.453 1.644,2.068c0.731,0.614 1.478,1.054 2.242,1.32c0.465,0.133 0.947,0.15 1.445,0.05c0.498,-0.1 0.93,-0.282 1.295,-0.548c0.399,-1.329 0.598,-2.757 0.598,-4.285c0,-1.528 -0.149,-2.989 -0.448,-4.384Zm16.84,9.765c0.133,-0 0.199,0.1 0.199,0.299c0,0.199 -0.033,0.382 -0.099,0.548c-0.067,0.166 -0.1,0.266 -0.1,0.299c-0.033,-0 -0.208,0.025 -0.523,0.075c-0.316,0.049 -0.698,0.116 -1.146,0.199c-0.448,0.083 -0.806,0.158 -1.071,0.224c-0.067,0.033 -0.391,0.15 -0.972,0.349c-0.581,0.199 -1.212,0.415 -1.893,0.648c-0.681,0.232 -1.295,0.448 -1.844,0.647l-0.822,0.299l-0.398,-0.946l0.996,-0.698l-0.099,-13.552c-0.1,-0.365 -0.25,-0.689 -0.449,-0.971c-0.199,-0.283 -0.44,-0.549 -0.722,-0.798c-0.283,-0.249 -0.573,-0.481 -0.872,-0.697c-0.299,-0.216 -0.598,-0.457 -0.897,-0.723l0,-0.597c1.063,-0.299 2.051,-0.565 2.965,-0.798c0.913,-0.232 1.901,-0.481 2.964,-0.747c0.299,0.166 0.49,0.382 0.573,0.648c0.083,0.265 0.133,0.548 0.149,0.847c0.017,0.299 0.034,0.606 0.05,0.921c0.017,0.316 0.108,0.607 0.274,0.872c0.432,-0.265 0.872,-0.639 1.321,-1.121c0.448,-0.481 0.905,-0.93 1.37,-1.345c0.465,-0.415 0.955,-0.714 1.47,-0.897c0.514,-0.182 1.071,-0.108 1.669,0.224c0.265,0.233 0.548,0.407 0.847,0.524c0.299,0.116 0.498,0.357 0.598,0.722c-0.067,0.631 -0.275,1.196 -0.623,1.694c-0.349,0.498 -0.656,1.013 -0.922,1.545l-0.648,-0l-2.292,-1.645c-0.531,0.233 -1.054,0.598 -1.569,1.097c-0.515,0.498 -0.988,0.996 -1.42,1.494l-0.299,12.356c0.233,-0.066 0.457,-0.141 0.673,-0.224c0.216,-0.083 0.456,-0.158 0.722,-0.224c0.399,-0.166 0.831,-0.299 1.296,-0.399c0.465,-0.099 0.979,-0.149 1.544,-0.149Zm-235.914,-12.506c0.465,0.897 0.731,1.827 0.797,2.79c0.066,0.964 0,1.935 -0.199,2.915c-0.2,0.98 -0.515,1.927 -0.947,2.84c-0.432,0.913 -0.897,1.752 -1.395,2.516c-1.063,1.196 -2.284,2.059 -3.662,2.591c-1.378,0.531 -2.823,0.847 -4.335,0.947c-1.511,0.099 -3.039,0.016 -4.583,-0.25c-1.545,-0.265 -2.998,-0.614 -4.36,-1.046c-0.465,0.731 -0.822,1.511 -1.071,2.342c-0.249,0.83 -0.59,1.627 -1.022,2.391c-0.199,-0.066 -0.406,-0.157 -0.622,-0.274c-0.216,-0.116 -0.225,-0.34 -0.025,-0.672c0.498,-1.395 1.005,-2.782 1.519,-4.161c0.515,-1.378 0.872,-2.831 1.072,-4.359c0.199,-0.133 0.398,-0.183 0.597,-0.15c0.2,0.034 0.391,0.117 0.573,0.25c0.183,0.132 0.374,0.282 0.573,0.448c0.2,0.166 0.399,0.299 0.598,0.399c1.595,0.996 3.289,1.818 5.082,2.466c1.794,0.648 3.72,0.888 5.78,0.722c0.631,-0.199 1.121,-0.523 1.47,-0.971c0.348,-0.449 0.622,-0.955 0.822,-1.52c0.199,-0.565 0.357,-1.154 0.473,-1.769c0.116,-0.614 0.274,-1.187 0.473,-1.719c0,-0.498 -0.016,-1.004 -0.05,-1.519c-0.033,-0.515 -0.124,-0.997 -0.274,-1.445c-0.149,-0.448 -0.373,-0.855 -0.672,-1.221c-0.299,-0.365 -0.698,-0.647 -1.196,-0.847c-0.731,-0.265 -1.461,-0.299 -2.192,-0.099c-0.731,0.199 -1.445,0.382 -2.143,0.548c-1.262,0.332 -2.541,0.689 -3.836,1.071c-1.295,0.382 -2.674,0.573 -4.135,0.573c-0.465,-0.067 -0.93,-0.224 -1.395,-0.473c-0.465,-0.25 -0.831,-0.64 -1.096,-1.171c-0.366,-0.797 -0.59,-1.636 -0.673,-2.516c-0.083,-0.881 -0.058,-1.761 0.075,-2.641c0.132,-0.88 0.357,-1.736 0.672,-2.566c0.316,-0.83 0.689,-1.594 1.121,-2.292c0.565,-0.498 1.171,-0.988 1.819,-1.47c0.648,-0.481 1.32,-0.88 2.018,-1.195c0.697,-0.316 1.428,-0.532 2.192,-0.648c0.764,-0.116 1.544,-0.058 2.342,0.174c0.963,0.465 1.885,1.063 2.765,1.794c0.88,0.731 1.769,1.412 2.665,2.043c0.299,-0.2 0.532,-0.416 0.698,-0.648c0.166,-0.233 0.324,-0.482 0.473,-0.747c0.15,-0.266 0.299,-0.524 0.449,-0.773c0.149,-0.249 0.357,-0.473 0.622,-0.672c0.432,-0.1 0.781,0.033 1.047,0.398l-0,0.499c-0.897,1.029 -1.686,2.084 -2.367,3.163c-0.681,1.08 -1.154,2.251 -1.42,3.513c0.233,0.166 0.507,0.224 0.822,0.174c0.316,-0.05 0.606,-0.025 0.872,0.075c0.664,0.199 1.271,0.448 1.819,0.747c0.548,0.299 1.004,0.781 1.37,1.445Zm-6.079,-2.242c-0.797,-1.229 -1.71,-2.449 -2.74,-3.662c-1.03,-1.212 -2.176,-2.217 -3.438,-3.014c-0.465,-0.266 -0.93,-0.374 -1.395,-0.324c-0.465,0.05 -0.897,0.224 -1.295,0.523c-0.565,0.399 -0.98,0.88 -1.246,1.445c-0.266,0.565 -0.432,1.171 -0.498,1.819c-0.066,0.647 -0.075,1.303 -0.025,1.968c0.05,0.664 0.125,1.312 0.224,1.943c0.366,0.631 0.806,1.038 1.321,1.22c0.514,0.183 1.062,0.241 1.644,0.175c0.581,-0.067 1.171,-0.191 1.769,-0.374c0.597,-0.183 1.179,-0.307 1.743,-0.374l0.2,-0.348l0.149,0.299c0.631,-0.2 1.246,-0.399 1.844,-0.598c0.597,-0.2 1.179,-0.432 1.743,-0.698Zm113.1,15.695c-0.332,0.531 -0.748,0.921 -1.246,1.17c-0.498,0.25 -1.063,0.274 -1.694,0.075c-0.697,-0.133 -1.337,-0.44 -1.918,-0.922c-0.581,-0.481 -1.105,-1.021 -1.57,-1.619l-0.298,0c-0.366,0.332 -0.723,0.673 -1.072,1.022c-0.348,0.348 -0.722,0.656 -1.121,0.921c-0.398,0.266 -0.822,0.465 -1.27,0.598c-0.449,0.133 -0.939,0.133 -1.47,0c-0.465,0.033 -0.889,0 -1.27,-0.099c-0.382,-0.1 -0.756,-0.316 -1.122,-0.648c-0.398,-0.332 -0.647,-0.723 -0.747,-1.171c-0.1,-0.448 -0.116,-0.905 -0.05,-1.37c0.067,-0.465 0.208,-0.938 0.424,-1.42c0.216,-0.482 0.44,-0.905 0.672,-1.271c1.03,-1.063 2.159,-1.91 3.388,-2.541c1.229,-0.631 2.458,-1.278 3.687,-1.943c0.266,-0.398 0.382,-0.855 0.349,-1.37c-0.033,-0.515 -0.083,-0.988 -0.149,-1.42c-0.299,-0.731 -0.748,-1.395 -1.346,-1.993c-0.597,-0.598 -1.245,-1.046 -1.943,-1.345c-0.265,0.199 -0.564,0.332 -0.897,0.399c-0.332,0.066 -0.597,0.282 -0.797,0.647c0.034,0.133 0.125,0.241 0.274,0.324c0.15,0.083 0.291,0.175 0.424,0.274c0.133,0.1 0.232,0.224 0.299,0.374c0.066,0.149 0.066,0.324 -0,0.523c-0.465,0.266 -0.955,0.548 -1.47,0.847c-0.515,0.299 -1.071,0.365 -1.669,0.199c-0.199,-0.199 -0.382,-0.448 -0.548,-0.747c-0.166,-0.299 -0.233,-0.631 -0.199,-0.997c0.033,-0.332 0.149,-0.622 0.348,-0.871c0.2,-0.25 0.432,-0.465 0.698,-0.648c0.266,-0.183 0.548,-0.357 0.847,-0.523c0.299,-0.166 0.564,-0.366 0.797,-0.598c0.332,-0.166 0.673,-0.366 1.021,-0.598c0.349,-0.233 0.698,-0.432 1.047,-0.598c0.348,-0.166 0.714,-0.282 1.096,-0.349c0.382,-0.066 0.772,-0.033 1.171,0.1c0.398,0.199 0.805,0.399 1.22,0.598c0.416,0.199 0.814,0.423 1.196,0.672c0.382,0.25 0.739,0.524 1.071,0.823c0.332,0.298 0.598,0.647 0.797,1.046c0.1,0.897 0.158,1.843 0.175,2.84c0.016,0.996 0.016,2.001 -0,3.014c-0.017,1.013 -0.017,2.01 -0,2.989c0.016,0.98 0.091,1.919 0.224,2.816c0.166,0.365 0.415,0.631 0.747,0.797c0.333,0.166 0.656,0.324 0.972,0.473c0.316,0.149 0.573,0.332 0.772,0.548c0.2,0.216 0.249,0.54 0.15,0.972Zm-6.477,-5.033c0.066,-0.465 0.108,-0.971 0.124,-1.519c0.017,-0.548 -0.058,-1.055 -0.224,-1.52l-3.039,1.794c-0.565,0.465 -0.963,1.03 -1.196,1.694c-0.233,0.664 -0.249,1.328 -0.05,1.993c0.1,0.133 0.199,0.299 0.299,0.498c0.1,0.199 0.216,0.382 0.349,0.548c0.133,0.166 0.282,0.291 0.448,0.374c0.166,0.083 0.366,0.058 0.598,-0.075c0.731,-0.399 1.337,-0.93 1.819,-1.594c0.481,-0.665 0.772,-1.395 0.872,-2.193Zm-42.599,-9.715c-0.831,0.598 -1.852,1.27 -3.065,2.018c-1.212,0.747 -2.383,1.445 -3.512,2.092c-1.129,0.648 -2.093,1.196 -2.89,1.644l-1.196,0.673l0,0.598c0,0.365 0.042,0.814 0.125,1.345c0.083,0.532 0.207,1.088 0.374,1.669c0.166,0.582 0.415,1.072 0.747,1.47c1.428,1.628 3.122,2.292 5.082,1.993c0.399,-0.133 0.872,-0.382 1.42,-0.747c0.548,-0.366 0.988,-0.69 1.32,-0.972c0.332,-0.282 0.532,-0.44 0.598,-0.473l0.598,0.996c-0.033,0.033 -0.249,0.2 -0.648,0.499c-0.398,0.298 -0.955,0.672 -1.669,1.121c-0.714,0.448 -1.47,0.863 -2.267,1.245c-0.797,0.382 -1.619,0.664 -2.466,0.847c-0.847,0.183 -1.603,0.158 -2.267,-0.075c-1.129,-0.265 -2.068,-0.888 -2.815,-1.868c-0.747,-0.98 -1.154,-2.051 -1.221,-3.214c-0.066,-1.129 -0.108,-2.291 -0.124,-3.487c-0.017,-1.196 0.091,-2.35 0.324,-3.463c0.232,-1.113 0.639,-2.126 1.22,-3.039c0.582,-0.914 1.42,-1.653 2.516,-2.217c0.598,-0.399 1.254,-0.698 1.968,-0.897c0.715,-0.199 1.42,-0.258 2.118,-0.175c0.697,0.083 1.362,0.308 1.993,0.673c0.631,0.365 1.179,0.913 1.644,1.644c0.166,0 0.316,-0.05 0.448,-0.149c0.133,-0.1 0.274,-0.2 0.424,-0.299c0.149,-0.1 0.299,-0.175 0.448,-0.224c0.15,-0.05 0.308,-0.042 0.474,0.025c0.066,0.166 0.141,0.29 0.224,0.373c0.083,0.083 0.108,0.208 0.075,0.374Zm-5.68,1.395l-0.573,-0.698c-0.382,-0.465 -0.739,-0.93 -1.071,-1.395c-0.366,-0.265 -0.723,-0.257 -1.072,0.025c-0.348,0.283 -0.689,0.557 -1.021,0.822c-0.432,0.366 -0.723,0.914 -0.872,1.645c-0.149,0.73 -0.224,1.361 -0.224,1.893l-0,0.847l4.833,-3.139Zm35.574,11.459c-0.864,0.764 -1.777,1.429 -2.741,1.993c-0.963,0.565 -1.959,1.08 -2.989,1.545l-0.448,-0.498c0.066,-1.196 0.157,-2.425 0.274,-3.687c0.116,-1.263 0.191,-2.525 0.224,-3.787c0.033,-1.262 -0.042,-2.516 -0.224,-3.762c-0.183,-1.245 -0.54,-2.416 -1.072,-3.512c-0.232,-0.299 -0.49,-0.515 -0.772,-0.648c-0.282,-0.133 -0.573,-0.232 -0.872,-0.299c-0.266,0.133 -0.564,0.249 -0.897,0.349c-0.332,0.1 -0.647,0.208 -0.946,0.324c-0.299,0.116 -0.573,0.274 -0.822,0.473c-0.249,0.199 -0.424,0.449 -0.524,0.747c0.1,2.193 0.042,4.335 -0.174,6.428c-0.216,2.092 -0.39,4.251 -0.523,6.477c-0.498,0.299 -1.013,0.573 -1.545,0.822c-0.531,0.249 -1.079,0.473 -1.644,0.672l-0.199,-0.498c0.033,-1.029 0.1,-2.092 0.199,-3.188c0.1,-1.097 0.175,-2.193 0.224,-3.289c0.05,-1.096 0.067,-2.2 0.05,-3.313c-0.016,-1.113 -0.124,-2.217 -0.324,-3.313c-0.166,-0.532 -0.431,-1.03 -0.797,-1.495c-0.365,-0.465 -0.78,-0.88 -1.245,-1.246c-0.598,0.034 -1.13,0.225 -1.595,0.573c-0.465,0.349 -0.963,0.656 -1.494,0.922l-0.648,0.747c0.066,2.06 0.083,4.161 0.05,6.303c-0.033,2.142 -0.133,4.227 -0.299,6.253c-0.532,0.332 -1.063,0.639 -1.595,0.922c-0.531,0.282 -1.079,0.539 -1.644,0.772c-0.099,-1.296 -0.108,-2.558 -0.025,-3.787c0.083,-1.229 0.142,-2.458 0.175,-3.687c0.033,-1.229 -0.009,-2.449 -0.125,-3.662c-0.116,-1.212 -0.39,-2.449 -0.822,-3.711c-0.232,-0.366 -0.506,-0.665 -0.822,-0.897c-0.316,-0.233 -0.606,-0.465 -0.872,-0.698c0.266,-0.465 0.639,-0.855 1.121,-1.171c0.482,-0.315 0.905,-0.656 1.271,-1.021c0.797,0.066 1.461,0.324 1.993,0.772c0.531,0.449 1.062,0.988 1.594,1.619c1.063,-0.365 2.059,-0.863 2.989,-1.494c0.93,-0.631 1.91,-1.163 2.94,-1.595c0.697,0.299 1.32,0.698 1.868,1.196c0.548,0.498 1.121,1.063 1.719,1.694c1.063,-0.299 2.06,-0.739 2.99,-1.32c0.93,-0.581 1.91,-1.055 2.939,-1.42c0.731,0.266 1.404,0.689 2.018,1.27c0.615,0.582 1.104,1.238 1.47,1.968c0.365,2.027 0.465,4.103 0.299,6.228c-0.166,2.126 -0.399,4.219 -0.698,6.278l0.2,0.199c0.232,-0.066 0.448,-0.191 0.647,-0.373l0.598,-0.548c0.199,-0.183 0.407,-0.333 0.623,-0.449c0.216,-0.116 0.457,-0.158 0.722,-0.124c0.1,0.133 0.183,0.282 0.249,0.448c0.067,0.166 0.05,0.332 -0.049,0.498Zm36.769,1.894c-0.631,0.299 -1.278,0.614 -1.943,0.946c-0.664,0.332 -1.345,0.606 -2.042,0.822c-0.698,0.216 -1.404,0.341 -2.118,0.374c-0.714,0.033 -1.42,-0.116 -2.117,-0.448c-0.997,-0.465 -1.753,-1.063 -2.267,-1.794c-0.515,-0.731 -0.881,-1.536 -1.097,-2.416c-0.215,-0.881 -0.307,-1.811 -0.274,-2.791c0.034,-0.979 0.108,-1.959 0.225,-2.939c0.116,-0.98 0.232,-1.935 0.348,-2.865c0.117,-0.93 0.158,-1.794 0.125,-2.591l0.05,-0.946l-2.641,-1.246l0.199,-0.548c0.399,-0.299 0.881,-0.498 1.445,-0.598c0.565,-0.1 1.047,-0.332 1.445,-0.698c0.532,-0.531 0.997,-1.154 1.395,-1.868c0.399,-0.714 0.897,-1.237 1.495,-1.569c0.066,-0.067 0.133,-0.075 0.199,-0.025c0.067,0.05 0.133,0.058 0.2,0.025c0.099,0.299 0.157,0.622 0.174,0.971l0.05,1.046c0.016,0.349 0.066,0.681 0.149,0.997c0.083,0.316 0.258,0.59 0.523,0.822c1.063,-0.1 2.101,-0.141 3.114,-0.125c1.013,0.017 2.051,0.009 3.114,-0.024c0.133,0.431 0.1,0.838 -0.099,1.22c-0.2,0.382 -0.399,0.756 -0.598,1.121c-0.532,0.1 -1.022,0.158 -1.47,0.175c-0.448,0.016 -0.889,0.025 -1.32,0.025c-0.399,-0 -0.822,0.008 -1.271,0.024c-0.448,0.017 -0.938,0.075 -1.47,0.175c-0.332,0.133 -0.539,0.274 -0.622,0.423c-0.083,0.15 -0.158,0.357 -0.225,0.623c-0.166,1.694 -0.274,3.463 -0.324,5.306c-0.049,1.844 0.108,3.646 0.474,5.406c0.166,0.532 0.465,1.047 0.897,1.545c0.431,0.498 0.93,0.847 1.494,1.046c0.764,0.266 1.512,0.291 2.242,0.075c0.731,-0.216 1.462,-0.457 2.193,-0.723c0.232,0.266 0.348,0.615 0.348,1.047Zm-106.024,-2.89c-0.465,1.063 -1.221,1.968 -2.267,2.715c-1.046,0.748 -2.068,1.354 -3.064,1.819c-0.731,0.066 -1.462,0.05 -2.192,-0.05c-0.731,-0.1 -1.429,-0.282 -2.093,-0.548c-0.664,-0.266 -1.27,-0.631 -1.818,-1.096c-0.549,-0.465 -0.989,-1.047 -1.321,-1.744c-0.266,-1.196 -0.457,-2.441 -0.573,-3.737c-0.116,-1.295 -0.091,-2.574 0.075,-3.836c0.166,-1.262 0.498,-2.458 0.996,-3.587c0.499,-1.13 1.213,-2.11 2.143,-2.94c0.498,-0.233 1.021,-0.482 1.569,-0.747c0.548,-0.266 1.113,-0.474 1.694,-0.623c0.582,-0.15 1.155,-0.208 1.719,-0.175c0.565,0.034 1.13,0.216 1.694,0.548c0.665,0.167 1.279,0.524 1.844,1.072c0.564,0.548 0.93,1.154 1.096,1.818c-0.166,0.465 -0.44,0.914 -0.822,1.345c-0.382,0.432 -0.806,0.764 -1.271,0.997c-0.498,-0.897 -1.171,-1.736 -2.018,-2.516c-0.847,-0.781 -1.752,-1.304 -2.715,-1.57c-0.498,0.133 -0.897,0.366 -1.196,0.698c-0.299,0.332 -0.531,0.706 -0.697,1.121c-0.166,0.415 -0.291,0.855 -0.374,1.32c-0.083,0.465 -0.158,0.897 -0.224,1.296c-0.166,0.93 -0.258,1.851 -0.274,2.765c-0.017,0.913 0.083,1.802 0.299,2.665c0.216,0.864 0.548,1.67 0.996,2.417c0.449,0.747 1.038,1.403 1.769,1.968c0.565,0.299 1.179,0.506 1.843,0.623c0.665,0.116 1.312,0.074 1.943,-0.125l2.392,-2.591c0.266,-0.066 0.457,-0.008 0.573,0.175c0.116,0.182 0.208,0.357 0.274,0.523Zm22.62,1.544c-0.93,0.665 -1.852,1.296 -2.765,1.894c-0.914,0.598 -1.852,1.129 -2.815,1.594c-0.399,-0.1 -0.64,-0.266 -0.723,-0.498c-0.083,-0.233 -0.108,-0.507 -0.075,-0.822c0.034,-0.316 0.084,-0.64 0.15,-0.972c0.066,-0.332 0.05,-0.648 -0.05,-0.947c0.1,-1.029 0.191,-2.15 0.274,-3.363c0.083,-1.212 0.042,-2.399 -0.124,-3.562c-0.166,-1.163 -0.515,-2.259 -1.047,-3.288c-0.531,-1.03 -1.378,-1.877 -2.541,-2.541c-0.332,-0.1 -0.647,-0.108 -0.946,-0.025c-0.299,0.083 -0.59,0.216 -0.872,0.398c-0.283,0.183 -0.565,0.374 -0.847,0.573c-0.283,0.2 -0.573,0.349 -0.872,0.449l-0.498,0.498c-0.2,2.059 -0.266,4.218 -0.2,6.477c0.067,2.259 0,4.418 -0.199,6.477c-0.465,0.299 -0.947,0.648 -1.445,1.046c-0.498,0.399 -1.03,0.631 -1.594,0.698c0.099,-4.252 0.091,-8.528 -0.025,-12.83c-0.116,-4.301 -0.208,-8.694 -0.274,-13.178c-0,-0.963 -0.249,-1.86 -0.748,-2.69c-0.498,-0.831 -1.145,-1.495 -1.943,-1.993l0,-0.698l5.033,-1.096c0.265,-0.066 0.589,0.066 0.971,0.399c0.382,0.332 0.606,0.614 0.673,0.847c-0.067,2.59 -0.158,5.073 -0.274,7.448c-0.117,2.375 -0.125,4.742 -0.025,7.1l0.199,0.199l5.331,-2.939c0.598,0.232 1.196,0.515 1.794,0.847c0.598,0.332 1.146,0.722 1.644,1.171c0.498,0.448 0.922,0.955 1.27,1.519c0.349,0.565 0.573,1.179 0.673,1.844c0.233,1.561 0.282,3.222 0.15,4.982c-0.133,1.76 -0.166,3.454 -0.1,5.082c0.266,0.133 0.531,0.108 0.797,-0.075c0.266,-0.182 0.532,-0.34 0.797,-0.473l0.897,-0.698c0.133,0.1 0.266,0.266 0.399,0.499c0.133,0.232 0.116,0.448 -0.05,0.647Z" style="fill:#56a8ff;"/><path d="M195.617,33.466c-0.047,-0.761 -0.013,-1.523 0.102,-2.284c0.133,-0.88 0.357,-1.736 0.673,-2.566c0.315,-0.83 0.689,-1.594 1.121,-2.292c0.564,-0.498 1.171,-0.988 1.818,-1.47c0.442,-0.328 0.895,-0.618 1.359,-0.869l0,1.536c-0.533,0.39 -0.928,0.857 -1.184,1.401c-0.266,0.565 -0.432,1.171 -0.499,1.819c-0.066,0.647 -0.074,1.303 -0.024,1.968c0.049,0.664 0.124,1.312 0.224,1.943c0.193,0.334 0.408,0.606 0.644,0.814l-4.234,0Zm5.64,-8.293l0,-1.472c0.031,-0.014 0.062,-0.029 0.092,-0.042c0.698,-0.316 1.428,-0.532 2.192,-0.648c0.764,-0.116 1.545,-0.058 2.342,0.174c0.963,0.465 1.885,1.063 2.765,1.794c0.881,0.731 1.769,1.412 2.666,2.043c0.299,-0.2 0.531,-0.416 0.697,-0.648c0.166,-0.233 0.324,-0.482 0.474,-0.747c0.149,-0.266 0.299,-0.524 0.448,-0.773c0.15,-0.249 0.357,-0.473 0.623,-0.672c0.432,-0.1 0.78,0.033 1.046,0.398l0,0.499c-0.897,1.029 -1.685,2.084 -2.366,3.163c-0.681,1.08 -1.155,2.251 -1.42,3.513c0.232,0.166 0.506,0.224 0.822,0.174c0.315,-0.05 0.606,-0.025 0.872,0.075c0.664,0.199 1.27,0.448 1.818,0.747c0.182,0.1 0.354,0.219 0.515,0.358l0,0.357l-10.125,0c0.327,-0.074 0.649,-0.129 0.966,-0.167l0.199,-0.348l0.15,0.299c0.631,-0.2 1.245,-0.399 1.843,-0.598c0.598,-0.2 1.179,-0.432 1.744,-0.698c-0.797,-1.229 -1.711,-2.449 -2.74,-3.662c-1.03,-1.212 -2.176,-2.217 -3.438,-3.014c-0.465,-0.266 -0.93,-0.374 -1.395,-0.324c-0.275,0.029 -0.538,0.102 -0.79,0.219Zm14.153,17.438l0,-8.578l0.195,0c0.031,0.053 0.063,0.108 0.093,0.163c0.465,0.897 0.731,1.827 0.798,2.79c0.066,0.964 -0,1.935 -0.2,2.915c-0.19,0.933 -0.485,1.837 -0.886,2.71Zm-13.125,-8.578l12.558,0l0,9.716c-0.283,0.532 -0.579,1.034 -0.888,1.508c-0.871,0.979 -1.847,1.735 -2.928,2.269l-9.77,0l0,-2.656c0.977,0.496 1.988,0.932 3.032,1.309c1.793,0.648 3.72,0.888 5.779,0.722c0.631,-0.199 1.121,-0.523 1.47,-0.971c0.349,-0.449 0.623,-0.955 0.822,-1.52c0.199,-0.565 0.357,-1.154 0.473,-1.769c0.117,-0.614 0.275,-1.187 0.474,-1.719c-0,-0.498 -0.017,-1.004 -0.05,-1.519c-0.033,-0.515 -0.125,-0.997 -0.274,-1.445c-0.15,-0.448 -0.374,-0.855 -0.673,-1.221c-0.299,-0.365 -0.697,-0.647 -1.195,-0.847c-0.731,-0.265 -1.462,-0.299 -2.193,-0.099c-0.73,0.199 -1.445,0.382 -2.142,0.548c-1.262,0.332 -2.541,0.689 -3.836,1.071c-0.548,0.161 -1.11,0.289 -1.687,0.382l0,-3.747c0.295,0.037 0.6,0.038 0.914,0.002c0.038,-0.005 0.076,-0.009 0.114,-0.014Zm20.447,13.493c-0.506,-0.725 -0.866,-1.522 -1.08,-2.393c-0.216,-0.881 -0.307,-1.811 -0.274,-2.791c0.033,-0.979 0.108,-1.959 0.224,-2.939c0.117,-0.98 0.233,-1.935 0.349,-2.865c0.112,-0.897 0.155,-1.732 0.128,-2.505l3.825,0c-0.162,1.668 -0.267,3.408 -0.316,5.22c-0.05,1.844 0.108,3.646 0.474,5.406c0.166,0.532 0.465,1.047 0.896,1.545c0.432,0.498 0.93,0.847 1.495,1.046c0.182,0.063 0.363,0.113 0.543,0.149l0,0.127l-6.264,0Zm3.335,-14.06l-3.966,0l0.025,-0.465l-2.641,-1.246l0.199,-0.548c0.399,-0.299 0.88,-0.498 1.445,-0.598c0.565,-0.1 1.046,-0.332 1.445,-0.698c0.531,-0.531 0.996,-1.154 1.395,-1.868c0.399,-0.714 0.897,-1.237 1.495,-1.569c0.066,-0.067 0.133,-0.075 0.199,-0.025c0.066,0.05 0.133,0.058 0.199,0.025c0.1,0.299 0.158,0.622 0.175,0.971l0.05,1.046c0.016,0.349 0.066,0.681 0.149,0.997c0.083,0.316 0.257,0.59 0.523,0.822c0.759,-0.071 1.504,-0.113 2.237,-0.124l0,2.52c-0.247,0.004 -0.503,0.011 -0.767,0.02c-0.448,0.017 -0.938,0.075 -1.47,0.175c-0.332,0.133 -0.54,0.274 -0.623,0.423c-0.023,0.043 -0.046,0.09 -0.069,0.142Zm3.496,-0.764l0,-2.52c0.104,0.001 0.207,0.002 0.31,0.003c1.013,0.017 2.051,0.009 3.114,-0.024c0.133,0.431 0.1,0.838 -0.1,1.22c-0.199,0.382 -0.398,0.756 -0.597,1.121c-0.532,0.1 -1.022,0.158 -1.47,0.175c-0.427,0.015 -0.845,0.024 -1.257,0.025Zm7.95,0.764c0.113,-0.159 0.232,-0.314 0.357,-0.465c0.631,-0.764 1.494,-1.379 2.591,-1.844c0.631,-0.432 1.353,-0.756 2.167,-0.972c0.174,-0.046 0.348,-0.086 0.521,-0.119l0,1.798c-0.39,-0.213 -0.805,-0.365 -1.244,-0.458c-0.431,0.067 -0.813,0.241 -1.145,0.523c-0.333,0.283 -0.632,0.573 -0.897,0.872c-0.072,0.221 -0.14,0.443 -0.203,0.665l-2.147,0Zm6.203,-1.239l0,-2.247c0.44,-0.049 0.874,-0.055 1.303,-0.019c0.781,0.067 1.52,0.299 2.218,0.698c0.697,0.398 1.245,1.013 1.644,1.843c0.152,0.316 0.291,0.638 0.414,0.964l-4.296,0c-0.371,-0.469 -0.799,-0.882 -1.283,-1.239Zm10.974,1.239c-0.05,-0.048 -0.101,-0.095 -0.154,-0.142c-0.283,-0.249 -0.573,-0.481 -0.872,-0.697c-0.299,-0.216 -0.598,-0.457 -0.897,-0.723l0,-0.597c1.063,-0.299 2.051,-0.565 2.965,-0.798c0.501,-0.127 1.024,-0.26 1.57,-0.397l0,3.354l-2.612,0Zm6.7,0l-3.521,0l0,-3.497c0.271,-0.068 0.546,-0.137 0.827,-0.207c0.299,0.166 0.49,0.382 0.573,0.648c0.083,0.265 0.133,0.548 0.149,0.847c0.017,0.299 0.034,0.606 0.05,0.921c0.017,0.316 0.108,0.607 0.274,0.872c0.432,-0.265 0.872,-0.639 1.321,-1.121c0.448,-0.481 0.905,-0.93 1.37,-1.345c0.465,-0.415 0.955,-0.714 1.47,-0.897c0.514,-0.182 1.071,-0.108 1.669,0.224c0.265,0.233 0.548,0.407 0.847,0.524c0.299,0.116 0.498,0.357 0.598,0.722c-0.067,0.631 -0.275,1.196 -0.623,1.694c-0.142,0.202 -0.277,0.407 -0.405,0.615l-2.46,0l-0.997,-0.715c-0.385,0.169 -0.765,0.407 -1.142,0.715Zm-2.142,14.06l-1.379,0l0,-13.493l2.904,0c-0.442,0.436 -0.852,0.873 -1.23,1.309l-0.295,12.184Zm4.34,0l-3.81,0c0.047,-0.017 0.093,-0.034 0.139,-0.052c0.216,-0.083 0.456,-0.158 0.722,-0.224c0.399,-0.166 0.831,-0.299 1.296,-0.399c0.465,-0.099 0.979,-0.149 1.544,-0.149c0.133,-0 0.199,0.1 0.199,0.299c0,0.19 -0.03,0.365 -0.09,0.525Zm-5.719,1.818l0,-1.251l4.099,-0c-0.052,0.009 -0.105,0.019 -0.158,0.029c-0.448,0.083 -0.806,0.158 -1.071,0.224c-0.067,0.033 -0.391,0.15 -0.972,0.349c-0.581,0.199 -1.212,0.415 -1.893,0.648c-0.002,0 -0.003,0.001 -0.005,0.001Zm-2.067,-1.251l1.5,-0l0,1.446c-0.457,0.159 -0.881,0.309 -1.272,0.451l-0.822,0.299l-0.398,-0.946l0.996,-0.698l-0.004,-0.552Zm-0.608,-14.06l2.108,0l0,13.493l-1.504,0l-0.091,-12.433c-0.1,-0.365 -0.25,-0.689 -0.449,-0.971c-0.021,-0.03 -0.042,-0.06 -0.064,-0.089Zm16.261,-1.487c-0.167,-0.098 -0.334,-0.196 -0.502,-0.293c0.099,-0.357 0.266,-0.67 0.502,-0.939l0,1.232Zm0.567,0.338l0,-2.05c0.001,-0 0.001,-0 0.002,-0.001c0.548,-0.349 1.054,-0.672 1.519,-0.971c0.598,-0.034 1.146,0.049 1.645,0.249c0.498,0.199 0.963,0.49 1.395,0.872c0.431,0.382 0.813,0.813 1.146,1.295c0.269,0.391 0.495,0.787 0.677,1.188l-5.436,0c-0.314,-0.196 -0.63,-0.39 -0.948,-0.582Zm1.811,1.149l4.813,0l2.072,4.897c0.299,0.963 0.631,1.893 0.996,2.79c0.366,0.896 0.831,1.76 1.396,2.59c0.963,-1.428 1.669,-2.989 2.117,-4.683c0.128,-0.483 0.255,-0.965 0.381,-1.448l0,4.123c-0.579,1.596 -1.187,3.179 -1.826,4.749c-0.064,0.158 -0.129,0.317 -0.194,0.475l-3.439,0c-0.454,-1.517 -0.945,-3.012 -1.474,-4.486c-0.863,-2.408 -1.91,-4.742 -3.139,-7c-0.457,-0.829 -1.025,-1.498 -1.703,-2.007Zm12.342,6.674l0,-4.71c0.125,-0.484 0.249,-0.968 0.372,-1.452c0.133,-0.159 0.225,-0.329 0.279,-0.512l1.414,0c-0.491,1.839 -1.038,3.654 -1.643,5.445c-0.139,0.41 -0.279,0.82 -0.422,1.229Zm2.214,-7.241l-1.52,0c-0.013,-0.11 -0.037,-0.224 -0.073,-0.341c-0.166,-0.548 -0.332,-1.063 -0.498,-1.544c-0.061,-0.179 -0.102,-0.345 -0.123,-0.498l0,-0.423c0.015,-0.089 0.039,-0.173 0.073,-0.25c0.133,-0.299 0.681,-0.382 1.645,-0.249l0.946,0.149l0,1.345c-0.144,0.607 -0.294,1.21 -0.45,1.811Zm-8.073,14.627l3.039,-0c-0.886,2.139 -1.815,4.267 -2.786,6.381l-3.268,7.112l-1.411,-0c0.613,-1.363 1.251,-2.712 1.913,-4.047c1.146,-2.309 2.201,-4.676 3.164,-7.1c-0.207,-0.788 -0.424,-1.57 -0.651,-2.346Zm-4.679,14.06l1.596,-0c0.062,0.23 0.169,0.428 0.321,0.592c0.216,0.233 0.465,0.432 0.748,0.598c0.282,0.166 0.581,0.332 0.896,0.498c0.316,0.166 0.59,0.349 0.822,0.548c0.1,0.299 0.092,0.582 -0.024,0.847c-0.117,0.266 -0.283,0.507 -0.499,0.723c-0.216,0.216 -0.448,0.423 -0.697,0.623c-0.249,0.199 -0.474,0.398 -0.673,0.597c-0.731,-0.066 -1.428,-0.348 -2.092,-0.847c-0.665,-0.498 -1.146,-1.079 -1.445,-1.743c0.34,-0.817 0.689,-1.629 1.047,-2.436Zm-11.318,-28.12l1.342,0c-0.065,0.12 -0.128,0.241 -0.189,0.363l-0.648,-0l-0.505,-0.363Zm-18.625,14.06c-0.147,0.087 -0.298,0.172 -0.45,0.253c-0.495,0.264 -1.004,0.464 -1.528,0.601l0,-0.854l1.978,-0Zm-7.11,-0l4.565,-0l0,0.975c-0.889,0.152 -1.818,0.127 -2.788,-0.074c-0.66,-0.201 -1.253,-0.501 -1.777,-0.901Zm4.565,-2.235l0,1.668l-5.209,0c-0.404,-0.402 -0.752,-0.843 -1.042,-1.322c-0.382,-0.631 -0.681,-1.312 -0.897,-2.043c-0.215,-0.731 -0.34,-1.478 -0.373,-2.242c0.033,-1.063 0.091,-2.134 0.174,-3.214c0.083,-1.079 0.291,-2.109 0.623,-3.089c0.191,-0.563 0.431,-1.091 0.721,-1.583l2.365,0c-0.301,1.228 -0.458,2.47 -0.47,3.726c-0.017,1.677 0.257,3.33 0.822,4.957c0.365,0.764 0.913,1.453 1.644,2.068c0.538,0.453 1.086,0.811 1.642,1.074Zm3.409,1.668l-2.842,0l0,-1.433c0.011,0.003 0.022,0.007 0.033,0.011c0.465,0.133 0.947,0.15 1.445,0.05c0.498,-0.1 0.93,-0.282 1.295,-0.548c0.399,-1.329 0.598,-2.757 0.598,-4.285c0,-1.528 -0.149,-2.989 -0.448,-4.384c-0.133,-0.565 -0.332,-1.146 -0.598,-1.744c-0.18,-0.406 -0.391,-0.792 -0.633,-1.16l4.086,0c0.159,0.491 0.287,0.994 0.383,1.509c0.2,1.062 0.291,2.142 0.274,3.238c-0.016,1.096 -0.133,2.176 -0.348,3.239c-0.216,1.062 -0.49,2.092 -0.823,3.089c-0.688,0.941 -1.495,1.747 -2.422,2.418Zm-14.247,0.567c-0.335,0.163 -0.674,0.33 -1.018,0.502c-0.565,0.283 -1.141,0.523 -1.73,0.721l0,-1.223l2.748,-0Zm-9.111,-0l5.796,-0l0,1.399c-0.614,0.17 -1.236,0.27 -1.863,0.299c-0.714,0.033 -1.42,-0.116 -2.118,-0.448c-0.737,-0.344 -1.342,-0.761 -1.815,-1.25Zm10.033,-0.567l-3.67,0l0,-0.059c0.382,0.015 0.759,-0.032 1.132,-0.142c0.731,-0.216 1.462,-0.457 2.192,-0.723c0.211,0.24 0.326,0.548 0.346,0.924Zm-31.976,0.999l0,-0.432l8.349,-0c-1.17,0.384 -2.386,0.618 -3.648,0.702c-1.511,0.099 -3.039,0.016 -4.584,-0.25c-0.039,-0.006 -0.078,-0.013 -0.117,-0.02Zm-2.096,-0.432l1.529,-0l0,0.328c-0.52,-0.099 -1.03,-0.209 -1.529,-0.328Zm1.529,-3.519l0,2.952l-3.59,0c-0.029,-0.009 -0.057,-0.018 -0.085,-0.027c-0.006,0.009 -0.012,0.018 -0.018,0.027l-1.352,0c0.049,-0.134 0.099,-0.267 0.149,-0.401c0.515,-1.378 0.872,-2.831 1.071,-4.359c0.199,-0.133 0.399,-0.183 0.598,-0.15c0.199,0.034 0.39,0.117 0.573,0.25c0.183,0.132 0.374,0.282 0.573,0.448c0.199,0.166 0.398,0.299 0.598,0.399c0.485,0.303 0.98,0.59 1.483,0.861Zm-4.024,3.519c-0.299,0.556 -0.54,1.138 -0.723,1.748c-0.249,0.83 -0.589,1.627 -1.021,2.391c-0.199,-0.066 -0.407,-0.157 -0.623,-0.274c-0.216,-0.116 -0.224,-0.34 -0.025,-0.672c0.382,-1.069 0.769,-2.134 1.16,-3.193l1.232,-0Zm4.024,-10.221c-0.611,0.074 -1.238,0.111 -1.882,0.111c-0.465,-0.067 -0.93,-0.224 -1.395,-0.473c-0.465,-0.25 -0.83,-0.64 -1.096,-1.171c-0.336,-0.734 -0.553,-1.502 -0.65,-2.306l5.023,0l0,3.839Zm-112.657,-4.658l0,-0.326c0.253,-0.373 0.583,-0.692 0.989,-0.959c0.482,-0.315 0.905,-0.656 1.271,-1.021c0.797,0.066 1.461,0.324 1.993,0.772c0.531,0.449 1.062,0.988 1.594,1.619c1.063,-0.365 2.059,-0.863 2.989,-1.494c0.93,-0.631 1.91,-1.163 2.94,-1.595c0.673,0.289 1.277,0.67 1.811,1.144l-0,2.112l-3.518,0c-0.156,-0.145 -0.317,-0.284 -0.485,-0.416c-0.501,0.028 -0.956,0.167 -1.363,0.416l-7.914,0c-0.105,-0.084 -0.208,-0.168 -0.307,-0.252Zm17.797,0.252l-3.644,0l0,-1.585c0.392,0.375 0.795,0.781 1.21,1.219c1.063,-0.299 2.06,-0.739 2.99,-1.32c0.93,-0.581 1.91,-1.055 2.939,-1.42c0.731,0.266 1.404,0.689 2.018,1.27c0.577,0.546 1.045,1.158 1.402,1.836l-4.961,0c-0.042,-0.024 -0.085,-0.047 -0.128,-0.067c-0.282,-0.133 -0.573,-0.232 -0.872,-0.299c-0.266,0.133 -0.564,0.249 -0.897,0.349c-0.019,0.006 -0.038,0.011 -0.057,0.017Zm-2.909,14.06l-0.735,0l0,-13.493l2.233,0c-0.104,0.065 -0.204,0.136 -0.3,0.213c-0.249,0.199 -0.424,0.449 -0.524,0.747c0.1,2.193 0.042,4.335 -0.174,6.428c-0.204,1.976 -0.371,4.011 -0.5,6.105Zm-0.735,0.776l0,-0.209l0.378,-0c-0.125,0.071 -0.251,0.141 -0.378,0.209Zm-2.644,-0.209l2.078,-0l-0,0.499c-0.089,0.044 -0.177,0.086 -0.267,0.128c-0.531,0.249 -1.079,0.473 -1.644,0.672l-0.199,-0.498c0.009,-0.265 0.019,-0.532 0.032,-0.801Zm-0.896,-14.06l2.974,0l-0,13.493l-2.048,0c0.036,-0.596 0.081,-1.203 0.137,-1.82c0.1,-1.097 0.175,-2.193 0.224,-3.289c0.05,-1.096 0.067,-2.2 0.05,-3.313c-0.016,-1.113 -0.124,-2.217 -0.324,-3.313c-0.166,-0.532 -0.431,-1.03 -0.797,-1.495c-0.07,-0.09 -0.142,-0.177 -0.216,-0.263Zm9.772,0l4.469,0c0.304,1.888 0.379,3.819 0.225,5.793c-0.166,2.126 -0.399,4.219 -0.698,6.278l0.2,0.199c0.232,-0.066 0.448,-0.191 0.647,-0.373l0.598,-0.548c0.199,-0.183 0.407,-0.333 0.623,-0.449c0.216,-0.116 0.457,-0.158 0.722,-0.124c0.1,0.133 0.183,0.282 0.249,0.448c0.067,0.166 0.05,0.332 -0.049,0.498c-0.753,0.666 -1.544,1.257 -2.372,1.771l-3.727,0c0.054,-0.792 0.119,-1.598 0.195,-2.418c0.116,-1.263 0.191,-2.525 0.224,-3.787c0.033,-1.262 -0.042,-2.516 -0.224,-3.762c-0.183,-1.245 -0.54,-2.416 -1.072,-3.512c-0.003,-0.005 -0.007,-0.009 -0.01,-0.014Zm0.849,14.06l2.793,-0c-0.774,0.431 -1.57,0.831 -2.386,1.2l-0.448,-0.498c0.012,-0.233 0.026,-0.467 0.041,-0.702Zm-16.036,-0c-0.398,0.24 -0.796,0.465 -1.195,0.677c-0.531,0.282 -1.079,0.539 -1.644,0.772c-0.037,-0.488 -0.062,-0.971 -0.073,-1.449l2.912,-0Zm0.426,-0.567l-3.346,0c-0.002,-0.598 0.017,-1.188 0.056,-1.771c0.083,-1.229 0.142,-2.458 0.175,-3.687c0.033,-1.229 -0.009,-2.449 -0.125,-3.662c-0.116,-1.212 -0.39,-2.449 -0.822,-3.711c-0.16,-0.253 -0.341,-0.473 -0.54,-0.662l6.376,0c-0.29,0.185 -0.591,0.356 -0.903,0.512l-0.648,0.747c0.066,2.06 0.083,4.161 0.05,6.303c-0.032,2.029 -0.123,4.006 -0.273,5.931Zm-86.174,-14.06c-0.046,-0.761 -0.012,-1.523 0.103,-2.284c0.132,-0.88 0.357,-1.736 0.672,-2.566c0.316,-0.83 0.689,-1.594 1.121,-2.292c0.565,-0.498 1.171,-0.988 1.819,-1.47c0.648,-0.481 1.32,-0.88 2.018,-1.195c0.697,-0.316 1.428,-0.532 2.192,-0.648c0.426,-0.065 0.857,-0.076 1.294,-0.032l-0,3.302c-0.448,-0.365 -0.912,-0.699 -1.394,-1.003c-0.465,-0.266 -0.93,-0.374 -1.395,-0.324c-0.465,0.05 -0.897,0.224 -1.295,0.523c-0.565,0.399 -0.98,0.88 -1.246,1.445c-0.266,0.565 -0.432,1.171 -0.498,1.819c-0.066,0.647 -0.075,1.303 -0.025,1.968c0.05,0.664 0.125,1.312 0.224,1.943c0.194,0.334 0.409,0.606 0.644,0.814l-4.234,0Zm9.786,-6.7l-0,-3.7c0.159,0.032 0.32,0.072 0.481,0.119c0.963,0.465 1.885,1.063 2.765,1.794c0.88,0.731 1.769,1.412 2.665,2.043c0.299,-0.2 0.532,-0.416 0.698,-0.648c0.166,-0.233 0.324,-0.482 0.473,-0.747c0.15,-0.266 0.299,-0.524 0.449,-0.773c0.149,-0.249 0.357,-0.473 0.622,-0.672c0.432,-0.1 0.781,0.033 1.047,0.398l-0,0.499c-0.897,1.029 -1.686,2.084 -2.367,3.163c-0.681,1.08 -1.154,2.251 -1.42,3.513c0.233,0.166 0.507,0.224 0.822,0.174c0.316,-0.05 0.606,-0.025 0.872,0.075c0.664,0.199 1.271,0.448 1.819,0.747c0.321,0.176 0.611,0.414 0.87,0.715l-9.796,0l-0,-0.129c0.094,-0.014 0.188,-0.027 0.281,-0.038l0.2,-0.348l0.149,0.299c0.631,-0.2 1.246,-0.399 1.844,-0.598c0.597,-0.2 1.179,-0.432 1.743,-0.698c-0.797,-1.229 -1.71,-2.449 -2.74,-3.662c-0.468,-0.551 -0.961,-1.06 -1.477,-1.526Zm-0,9.943l-0,-2.676l10.202,0c0.032,0.053 0.063,0.108 0.094,0.163c0.465,0.897 0.731,1.827 0.797,2.79c0.066,0.964 0,1.935 -0.199,2.915c-0.2,0.98 -0.515,1.927 -0.947,2.84c-0.432,0.913 -0.897,1.752 -1.395,2.516c-0.87,0.979 -1.846,1.735 -2.928,2.269l-5.624,0l-0,-1.002c1.471,0.384 3.026,0.509 4.666,0.377c0.631,-0.199 1.121,-0.523 1.47,-0.971c0.348,-0.449 0.622,-0.955 0.822,-1.52c0.199,-0.565 0.357,-1.154 0.473,-1.769c0.116,-0.614 0.274,-1.187 0.473,-1.719c0,-0.498 -0.016,-1.004 -0.05,-1.519c-0.033,-0.515 -0.124,-0.997 -0.274,-1.445c-0.149,-0.448 -0.373,-0.855 -0.672,-1.221c-0.299,-0.365 -0.698,-0.647 -1.196,-0.847c-0.731,-0.265 -1.461,-0.299 -2.192,-0.099c-0.731,0.199 -1.445,0.382 -2.143,0.548c-0.457,0.12 -0.916,0.244 -1.377,0.37Zm-3.118,-2.676l2.551,0l-0,2.834c-0.627,0.175 -1.257,0.356 -1.892,0.543c-1.295,0.382 -2.674,0.573 -4.135,0.573c-0.465,-0.067 -0.93,-0.224 -1.395,-0.473c-0.465,-0.25 -0.831,-0.64 -1.096,-1.171c-0.337,-0.734 -0.553,-1.502 -0.65,-2.306l5.502,0c0.322,0.049 0.656,0.053 1.002,0.014c0.038,-0.005 0.075,-0.009 0.113,-0.014Zm2.551,-0.593l-0,0.026l-0.118,0c0.039,-0.009 0.079,-0.017 0.118,-0.026Zm0.567,15.383l-0,-0.73l4.203,-0c-1.169,0.384 -2.385,0.618 -3.648,0.702c-0.185,0.012 -0.37,0.021 -0.555,0.028Zm-6.242,-0.73l5.675,-0l-0,0.742c-1.145,0.007 -2.298,-0.089 -3.461,-0.29c-0.76,-0.13 -1.498,-0.281 -2.214,-0.452Zm5.675,-1.731l-0,1.164l-7.736,0c-0.028,-0.009 -0.057,-0.018 -0.085,-0.027c-0.006,0.009 -0.011,0.018 -0.017,0.027l-1.353,0c0.05,-0.134 0.1,-0.267 0.149,-0.401c0.515,-1.378 0.872,-2.831 1.072,-4.359c0.199,-0.133 0.398,-0.183 0.597,-0.15c0.2,0.034 0.391,0.117 0.573,0.25c0.183,0.132 0.374,0.282 0.573,0.448c0.2,0.166 0.399,0.299 0.598,0.399c1.595,0.996 3.289,1.818 5.082,2.466c0.181,0.065 0.363,0.126 0.547,0.183Zm-8.169,1.731c-0.299,0.556 -0.54,1.138 -0.723,1.748c-0.249,0.83 -0.59,1.627 -1.022,2.391c-0.199,-0.066 -0.406,-0.157 -0.622,-0.274c-0.216,-0.116 -0.225,-0.34 -0.025,-0.672c0.382,-1.069 0.768,-2.134 1.16,-3.193l1.232,-0Zm26.025,-14.627c0.41,-0.627 0.902,-1.198 1.477,-1.711c0.498,-0.233 1.021,-0.482 1.569,-0.747c0.548,-0.266 1.113,-0.474 1.694,-0.623c0.582,-0.15 1.155,-0.208 1.719,-0.175c0.565,0.034 1.13,0.216 1.694,0.548c0.665,0.167 1.279,0.524 1.844,1.072c0.168,0.163 0.319,0.333 0.453,0.507l-0,1.129l-3.476,0c-0.845,-0.776 -1.747,-1.297 -2.707,-1.562c-0.498,0.133 -0.897,0.366 -1.196,0.698c-0.236,0.262 -0.43,0.55 -0.584,0.864l-2.487,0Zm11.042,0l-0.025,0l-0,-0.078c0.008,0.026 0.017,0.052 0.025,0.078Zm-3.492,0.567l2.9,0l-0,0.747c-0.057,0.072 -0.117,0.143 -0.179,0.213c-0.382,0.432 -0.806,0.764 -1.271,0.997c-0.381,-0.686 -0.865,-1.339 -1.45,-1.957Zm9.344,-0.567c-0.068,-2.985 -0.126,-6.014 -0.171,-9.085c-0,-0.963 -0.249,-1.86 -0.748,-2.69c-0.411,-0.686 -0.924,-1.259 -1.539,-1.718l6.251,0c-0.064,2.295 -0.148,4.503 -0.252,6.625c-0.113,2.297 -0.124,4.587 -0.035,6.868l-3.506,0Zm3.808,-14.06l-6.67,0l0,-0.406l5.033,-1.096c0.265,-0.066 0.589,0.066 0.971,0.399c0.382,0.332 0.606,0.614 0.673,0.847c-0.002,0.085 -0.005,0.171 -0.007,0.256Zm0.689,14.06l3.212,-1.771l-0,1.771l-3.212,0Zm8.481,0l-4.702,0l-0,-2.083l0.77,-0.425c0.598,0.232 1.196,0.515 1.794,0.847c0.598,0.332 1.146,0.722 1.644,1.171c0.174,0.156 0.339,0.32 0.494,0.49Zm-4.702,0.763l-0,-0.196l5.167,0c0.11,0.15 0.214,0.304 0.311,0.462c0.349,0.565 0.573,1.179 0.673,1.844c0.233,1.561 0.282,3.222 0.15,4.982c-0.133,1.76 -0.166,3.454 -0.1,5.082c0.266,0.133 0.531,0.108 0.797,-0.075c0.266,-0.182 0.532,-0.34 0.797,-0.473l0.897,-0.698c0.133,0.1 0.266,0.266 0.399,0.499c0.133,0.232 0.116,0.448 -0.05,0.647c-0.589,0.421 -1.175,0.829 -1.758,1.223l-4.475,0c0.001,-0.009 0.003,-0.018 0.005,-0.027c0.066,-0.332 0.05,-0.648 -0.05,-0.947c0.1,-1.029 0.191,-2.15 0.274,-3.363c0.083,-1.212 0.042,-2.399 -0.124,-3.562c-0.166,-1.163 -0.515,-2.259 -1.047,-3.288c-0.422,-0.819 -1.045,-1.523 -1.866,-2.11Zm-8.262,-0.196l6.001,0c-0.078,0.042 -0.155,0.089 -0.232,0.138c-0.283,0.183 -0.565,0.374 -0.847,0.573c-0.283,0.2 -0.573,0.349 -0.872,0.449l-0.498,0.498c-0.2,2.059 -0.266,4.218 -0.2,6.477c0.055,1.853 0.02,3.639 -0.104,5.358l-3.083,0c0.039,-3.307 0.014,-6.629 -0.076,-9.967c-0.032,-1.168 -0.061,-2.344 -0.089,-3.526Zm21.848,13.344c-0.116,-0.126 -0.227,-0.26 -0.335,-0.401c-0.747,-0.98 -1.154,-2.051 -1.221,-3.214c-0.066,-1.129 -0.108,-2.291 -0.124,-3.487c-0.017,-1.196 0.091,-2.35 0.324,-3.463c0.21,-1.008 0.564,-1.934 1.061,-2.779l0.295,0l-0,13.344Zm2.401,-13.911l-1.834,0l-0,-0.585c0.495,-0.516 1.1,-0.958 1.813,-1.325c0.598,-0.399 1.254,-0.698 1.968,-0.897c0.715,-0.199 1.42,-0.258 2.118,-0.175c0.697,0.083 1.362,0.308 1.993,0.673c0.631,0.365 1.179,0.913 1.644,1.644c0.166,0 0.316,-0.05 0.448,-0.149c0.133,-0.1 0.274,-0.2 0.424,-0.299c0.149,-0.1 0.299,-0.175 0.448,-0.224c0.15,-0.05 0.308,-0.042 0.474,0.025c0.066,0.166 0.141,0.29 0.224,0.373c0.083,0.083 0.108,0.208 0.075,0.374c-0.253,0.181 -0.522,0.37 -0.81,0.565l-5.551,0c-0.342,-0.421 -0.663,-0.842 -0.963,-1.263c-0.366,-0.265 -0.723,-0.257 -1.072,0.025c-0.348,0.283 -0.689,0.557 -1.021,0.822c-0.141,0.12 -0.267,0.258 -0.378,0.416Zm5.882,14.06l-7.716,0l-0,-13.493l1.533,0c-0.079,0.201 -0.144,0.421 -0.193,0.662c-0.149,0.73 -0.224,1.361 -0.224,1.893l-0,0.847l4.833,-3.139l-0.216,-0.263l4.233,0c-0.435,0.283 -0.902,0.578 -1.402,0.886c-1.212,0.747 -2.383,1.445 -3.512,2.092c-1.129,0.648 -2.093,1.196 -2.89,1.644l-1.196,0.673l0,0.598c0,0.365 0.042,0.814 0.125,1.345c0.083,0.532 0.207,1.088 0.374,1.669c0.166,0.582 0.415,1.072 0.747,1.47c1.428,1.628 3.122,2.292 5.082,1.993c0.399,-0.133 0.872,-0.382 1.42,-0.747c0.548,-0.366 0.988,-0.69 1.32,-0.972c0.332,-0.282 0.532,-0.44 0.598,-0.473l0.598,0.996c-0.033,0.033 -0.249,0.2 -0.648,0.499c-0.398,0.298 -0.955,0.672 -1.669,1.121c-0.387,0.242 -0.786,0.476 -1.197,0.699Zm-7.478,0.567l6.365,-0c-0.784,0.371 -1.592,0.647 -2.423,0.826c-0.847,0.183 -1.603,0.158 -2.267,-0.075c-0.615,-0.144 -1.173,-0.395 -1.675,-0.751Zm-11.68,-0l3.723,-0c-0.053,0.035 -0.106,0.069 -0.158,0.104c-0.914,0.598 -1.852,1.129 -2.815,1.594c-0.399,-0.1 -0.64,-0.266 -0.723,-0.498c-0.083,-0.233 -0.108,-0.507 -0.075,-0.822c0.014,-0.125 0.029,-0.251 0.048,-0.378Zm-10.816,-0l3.046,-0c-0.016,0.185 -0.032,0.369 -0.05,0.552c-0.465,0.299 -0.947,0.648 -1.445,1.046c-0.498,0.399 -1.03,0.631 -1.594,0.698c0.018,-0.765 0.032,-1.53 0.043,-2.296Zm-6.048,-4.053c0.128,0.018 0.228,0.083 0.3,0.196c0.116,0.182 0.208,0.357 0.274,0.523c-0.158,0.361 -0.349,0.704 -0.574,1.028l-0,-1.747Zm-0.567,0.34l-0,2.111c-0.328,0.354 -0.703,0.681 -1.126,0.983c-0.024,0.018 -0.048,0.035 -0.073,0.052l-9.178,0c-0.51,-0.452 -0.922,-1.009 -1.237,-1.671c-0.266,-1.196 -0.457,-2.441 -0.573,-3.737c-0.116,-1.295 -0.091,-2.574 0.075,-3.836c0.166,-1.262 0.498,-2.458 0.996,-3.587c0.1,-0.227 0.209,-0.447 0.326,-0.662l2.599,0c-0.11,0.323 -0.196,0.659 -0.259,1.01c-0.083,0.465 -0.158,0.897 -0.224,1.296c-0.166,0.93 -0.258,1.851 -0.274,2.765c-0.017,0.913 0.083,1.802 0.299,2.665c0.216,0.864 0.548,1.67 0.996,2.417c0.449,0.747 1.038,1.403 1.769,1.968c0.565,0.299 1.179,0.506 1.843,0.623c0.665,0.116 1.312,0.074 1.943,-0.125l2.098,-2.272Zm-9.633,3.713l7.597,-0c-0.731,0.471 -1.449,0.871 -2.154,1.2c-0.731,0.066 -1.462,0.05 -2.192,-0.05c-0.731,-0.1 -1.429,-0.282 -2.093,-0.548c-0.408,-0.163 -0.794,-0.364 -1.158,-0.602Zm85.078,-14.627c0.039,-0.066 0.083,-0.13 0.132,-0.191c0.2,-0.25 0.432,-0.465 0.698,-0.648c0.266,-0.183 0.548,-0.357 0.847,-0.523c0.299,-0.166 0.564,-0.366 0.797,-0.598c0.332,-0.166 0.673,-0.366 1.021,-0.598c0.349,-0.233 0.698,-0.432 1.047,-0.598c0.348,-0.166 0.714,-0.282 1.096,-0.349c0.382,-0.066 0.772,-0.033 1.171,0.1c0.398,0.199 0.805,0.399 1.22,0.598c0.416,0.199 0.814,0.423 1.196,0.672c0.084,0.055 0.166,0.111 0.247,0.168l0,1.967l-3.35,0c-0.545,-0.507 -1.13,-0.895 -1.755,-1.163c-0.265,0.199 -0.564,0.332 -0.897,0.399c-0.332,0.066 -0.597,0.282 -0.797,0.647c0.011,0.042 0.027,0.081 0.048,0.117l-2.721,0Zm11.122,0l-1.083,0l0,-1.535c0.088,0.073 0.173,0.147 0.257,0.223c0.332,0.298 0.598,0.647 0.797,1.046c0.01,0.088 0.02,0.177 0.029,0.266Zm3.035,14.06l-4.118,0l0,-13.493l1.134,0c0.052,0.645 0.083,1.314 0.095,2.007c0.016,0.996 0.016,2.001 -0,3.014c-0.017,1.013 -0.017,2.01 -0,2.989c0.016,0.98 0.091,1.919 0.224,2.816c0.166,0.365 0.415,0.631 0.747,0.797c0.333,0.166 0.656,0.324 0.972,0.473c0.316,0.149 0.573,0.332 0.772,0.548c0.18,0.195 0.238,0.478 0.174,0.849Zm-4.118,0.962l0,-0.395l3.769,-0c-0.267,0.311 -0.574,0.553 -0.921,0.726c-0.498,0.25 -1.063,0.274 -1.694,0.075c-0.404,-0.077 -0.789,-0.212 -1.154,-0.406Zm-0.613,-0.395l0.046,-0l0,0.035c-0.015,-0.012 -0.03,-0.023 -0.046,-0.035Zm-2.759,-14.06l2.805,0l0,13.493l-0.702,0c-0.383,-0.362 -0.738,-0.753 -1.065,-1.173l-0.298,0c-0.366,0.332 -0.723,0.673 -1.072,1.022c-0.051,0.051 -0.103,0.101 -0.155,0.151l-6.631,0c-0.099,-0.172 -0.171,-0.356 -0.214,-0.55c-0.1,-0.448 -0.116,-0.905 -0.05,-1.37c0.067,-0.465 0.208,-0.938 0.424,-1.42c0.216,-0.482 0.44,-0.905 0.672,-1.271c1.03,-1.063 2.159,-1.91 3.388,-2.541c1.229,-0.631 2.458,-1.278 3.687,-1.943c0.266,-0.398 0.382,-0.855 0.349,-1.37c-0.033,-0.515 -0.083,-0.988 -0.149,-1.42c-0.237,-0.577 -0.566,-1.113 -0.989,-1.608Zm13.918,-0.567l0.025,-0.465l-2.641,-1.246l0.199,-0.548c0.399,-0.299 0.881,-0.498 1.445,-0.598c0.565,-0.1 1.047,-0.332 1.445,-0.698c0.532,-0.531 0.997,-1.154 1.395,-1.868c0.325,-0.582 0.716,-1.037 1.172,-1.365l0,6.788l-3.04,0Zm3.967,0l-0.36,0l0,-6.99c0.052,0.024 0.103,0.023 0.155,-0.002c0.099,0.299 0.157,0.622 0.174,0.971l0.05,1.046c0.016,0.349 0.066,0.681 0.149,0.997c0.083,0.316 0.258,0.59 0.523,0.822c1.063,-0.1 2.101,-0.141 3.114,-0.125c1.013,0.017 2.051,0.009 3.114,-0.024c0.133,0.431 0.1,0.838 -0.099,1.22c-0.2,0.382 -0.399,0.756 -0.598,1.121c-0.532,0.1 -1.022,0.158 -1.47,0.175c-0.448,0.016 -0.889,0.025 -1.32,0.025c-0.399,-0 -0.822,0.008 -1.271,0.024c-0.448,0.017 -0.938,0.075 -1.47,0.175c-0.332,0.133 -0.539,0.274 -0.622,0.423c-0.024,0.043 -0.047,0.09 -0.069,0.142Zm-0.36,3.052l0,-2.485l0.196,0c-0.079,0.811 -0.144,1.64 -0.196,2.485Zm7.525,11.008l-7.525,0l0,-5.134c0.081,0.763 0.198,1.519 0.354,2.267c0.166,0.532 0.465,1.047 0.897,1.545c0.431,0.498 0.93,0.847 1.494,1.046c0.764,0.266 1.512,0.291 2.242,0.075c0.731,-0.216 1.462,-0.457 2.193,-0.723c0.21,0.24 0.325,0.548 0.345,0.924Zm-7.525,2.086l0,-1.519l6.603,-0c-0.335,0.163 -0.674,0.33 -1.018,0.502c-0.664,0.332 -1.345,0.606 -2.042,0.822c-0.698,0.216 -1.404,0.341 -2.118,0.374c-0.479,0.022 -0.953,-0.038 -1.425,-0.179Zm-2.508,-1.519l1.941,-0l0,1.308c-0.042,-0.019 -0.084,-0.038 -0.125,-0.058c-0.737,-0.344 -1.343,-0.761 -1.816,-1.25Zm-1.121,-14.06l3.062,0l0,13.493l-2.409,0c-0.506,-0.725 -0.866,-1.522 -1.08,-2.393c-0.215,-0.881 -0.307,-1.811 -0.274,-2.791c0.034,-0.979 0.108,-1.959 0.225,-2.939c0.116,-0.98 0.232,-1.935 0.348,-2.865c0.112,-0.897 0.155,-1.732 0.128,-2.505Zm17.215,-6.549c-0.009,-0.004 -0.019,-0.009 -0.029,-0.014c0.009,-0.069 0.019,-0.138 0.029,-0.207l0,0.221Zm-2.965,5.982c-0.221,-0.196 -0.455,-0.385 -0.701,-0.565c-0.1,-0.266 -0.091,-0.457 0.025,-0.573c0.116,-0.116 0.266,-0.191 0.448,-0.224c0.183,-0.034 0.374,-0.058 0.573,-0.075c0.2,-0.017 0.366,-0.075 0.498,-0.174c0.565,-0.167 1.138,-0.308 1.719,-0.424c0.135,-0.027 0.27,-0.056 0.403,-0.088l0,2.123l-2.965,0Zm3.532,-5.859l0,-2.45c0.001,-0.001 0.001,-0.002 0.002,-0.004c0.299,-0.78 0.581,-1.553 0.847,-2.316c0.1,-0.233 0.232,-0.349 0.399,-0.349c0.166,-0 0.332,0.016 0.498,0.05c0.166,0.033 0.332,0.049 0.498,0.049c0.166,0 0.316,-0.099 0.448,-0.299c0.2,0.167 0.407,0.233 0.623,0.2c0.216,-0.033 0.44,-0 0.673,0.099c0.066,0.266 0.041,0.532 -0.075,0.798c-0.116,0.265 -0.257,0.523 -0.423,0.772c-0.167,0.249 -0.341,0.473 -0.524,0.672c-0.182,0.2 -0.323,0.366 -0.423,0.499c-0.199,0.199 -0.407,0.448 -0.623,0.747c-0.216,0.299 -0.457,0.581 -0.722,0.847c-0.266,0.266 -0.548,0.465 -0.847,0.598c-0.115,0.051 -0.231,0.08 -0.351,0.087Zm10.134,5.859c0.409,-0.627 0.902,-1.198 1.477,-1.711c0.498,-0.233 1.021,-0.482 1.569,-0.747c0.135,-0.066 0.27,-0.127 0.406,-0.185l0,1.445c-0.141,0.097 -0.268,0.208 -0.381,0.334c-0.236,0.262 -0.43,0.55 -0.584,0.864l-2.487,0Zm-10.134,-2.27c0.252,-0.071 0.501,-0.151 0.749,-0.238c0.2,0.099 0.449,0.124 0.748,0.074c0.299,-0.049 0.481,0.108 0.548,0.474c-0.019,0.643 -0.037,1.297 -0.054,1.96l-1.991,0l0,-2.27Zm14.153,0.786l0,-1.379c0.238,-0.083 0.478,-0.156 0.721,-0.218c0.581,-0.15 1.154,-0.208 1.719,-0.175c0.565,0.034 1.129,0.216 1.694,0.548c0.664,0.167 1.279,0.524 1.844,1.072c0.512,0.497 0.861,1.043 1.045,1.636l-4.068,0c-0.845,-0.776 -1.747,-1.297 -2.707,-1.562c-0.086,0.023 -0.168,0.049 -0.248,0.078Zm3.531,2.051l3.379,0c-0.163,0.329 -0.383,0.649 -0.658,0.96c-0.382,0.432 -0.806,0.764 -1.271,0.997c-0.381,-0.686 -0.865,-1.339 -1.45,-1.957Zm-3.531,11.657c0.173,0.161 0.355,0.316 0.547,0.464c0.565,0.299 1.179,0.506 1.843,0.623c0.665,0.116 1.312,0.074 1.943,-0.125l2.392,-2.591c0.266,-0.066 0.457,-0.008 0.573,0.175c0.116,0.182 0.208,0.357 0.274,0.523c-0.465,1.063 -1.221,1.968 -2.267,2.715c-0.024,0.018 -0.049,0.035 -0.073,0.052l-5.232,0l0,-1.836Zm0,3.546l0,-1.143l4.395,-0c-0.731,0.471 -1.449,0.871 -2.154,1.2c-0.731,0.066 -1.462,0.05 -2.192,-0.05c-0.016,-0.002 -0.033,-0.004 -0.049,-0.007Zm-3.202,-1.143l2.635,-0l0,1.045c-0.509,-0.105 -1.002,-0.253 -1.477,-0.443c-0.408,-0.163 -0.794,-0.364 -1.158,-0.602Zm2.635,-2.995l0,2.428l-3.379,0c-0.51,-0.452 -0.922,-1.009 -1.237,-1.671c-0.266,-1.196 -0.457,-2.441 -0.573,-3.737c-0.116,-1.295 -0.091,-2.574 0.075,-3.836c0.166,-1.262 0.498,-2.458 0.996,-3.587c0.1,-0.227 0.209,-0.447 0.326,-0.662l2.599,0c-0.11,0.323 -0.196,0.659 -0.259,1.01c-0.083,0.465 -0.158,0.897 -0.224,1.296c-0.166,0.93 -0.258,1.851 -0.274,2.765c-0.017,0.913 0.083,1.802 0.299,2.665c0.216,0.864 0.548,1.67 0.996,2.417c0.193,0.321 0.411,0.625 0.655,0.912Zm-12.231,2.995l-1.355,0.992l0,-0.992l1.355,-0Zm-3.191,-0l1.269,-0l0,1.408l-0.328,0.24c-0.166,-0.066 -0.349,-0.124 -0.548,-0.174c-0.199,-0.05 -0.332,-0.175 -0.399,-0.374c0,-0.365 0.002,-0.731 0.006,-1.1Zm-1.111,-14.06l2.38,0l0,13.493l-1.262,0c0.025,-1.666 0.087,-3.369 0.187,-5.109c0.133,-2.325 0.066,-4.633 -0.2,-6.925c-0.313,-0.523 -0.682,-1.009 -1.105,-1.459Zm5.076,13.493l-2.129,0l0,-13.493l1.976,0c-0.039,1.523 -0.074,3.097 -0.106,4.722c-0.05,2.541 -0.108,4.941 -0.174,7.2c0.365,0.166 0.697,0.108 0.996,-0.175c0.299,-0.282 0.598,-0.54 0.897,-0.772c0.233,-0.066 0.39,-0.042 0.474,0.075c0.083,0.116 0.174,0.257 0.274,0.423l-0.2,0.548l-2.008,1.472Zm-34.97,0.567c-0.095,0.07 -0.192,0.138 -0.29,0.203c-0.398,0.266 -0.822,0.465 -1.27,0.598c-0.449,0.133 -0.939,0.133 -1.47,0c-0.465,0.033 -0.889,0 -1.27,-0.099c-0.382,-0.1 -0.756,-0.316 -1.122,-0.648c-0.021,-0.018 -0.042,-0.036 -0.062,-0.054l5.484,-0Zm-2.033,-14.06c0.084,0.083 0.15,0.179 0.199,0.288c0.066,0.149 0.066,0.324 -0,0.523c-0.465,0.266 -0.955,0.548 -1.47,0.847c-0.515,0.299 -1.071,0.365 -1.669,0.199c-0.199,-0.199 -0.382,-0.448 -0.548,-0.747c-0.166,-0.299 -0.233,-0.631 -0.199,-0.997c0.003,-0.038 0.008,-0.076 0.014,-0.113l3.673,0Zm4.185,8.583c0.066,-0.465 0.108,-0.971 0.124,-1.519c0.017,-0.548 -0.058,-1.055 -0.224,-1.52l-3.039,1.794c-0.565,0.465 -0.963,1.03 -1.196,1.694c-0.233,0.664 -0.249,1.328 -0.05,1.993c0.1,0.133 0.199,0.299 0.299,0.498c0.1,0.199 0.216,0.382 0.349,0.548c0.133,0.166 0.282,0.291 0.448,0.374c0.166,0.083 0.366,0.058 0.598,-0.075c0.731,-0.399 1.337,-0.93 1.819,-1.594c0.481,-0.665 0.772,-1.395 0.872,-2.193Z" style="fill:#1581f3;"/></g></svg>