<?xml version="1.0" encoding="UTF-8" standalone="no"?><!DOCTYPE svg PUBLIC "-//W3C//DTD SVG 1.1//EN" "http://www.w3.org/Graphics/SVG/1.1/DTD/svg11.dtd"><svg width="100%" height="100%" viewBox="0 0 284 284" version="1.1" xmlns="http://www.w3.org/2000/svg" xmlns:xlink="http://www.w3.org/1999/xlink" xml:space="preserve" xmlns:serif="http://www.serif.com/" style="fill-rule:evenodd;clip-rule:evenodd;stroke-linejoin:round;stroke-miterlimit:2;"><g><path d="M141.738,276.378l-0.011,-0c-7.319,-0 -14.502,-0.586 -21.505,-1.712c-1.94,-0.312 -3.414,-1.914 -3.563,-3.873l-3.099,-40.738c-5.046,-1.61 -9.905,-3.64 -14.536,-6.051l-31.037,26.537c-1.494,1.278 -3.669,1.364 -5.259,0.209c-11.592,-8.418 -21.792,-18.638 -30.185,-30.248c-1.152,-1.593 -1.061,-3.768 0.219,-5.259l26.602,-30.982c-2.4,-4.636 -4.421,-9.5 -6.02,-14.55l-40.73,-3.183c-1.959,-0.153 -3.558,-1.63 -3.866,-3.571c-1.097,-6.915 -1.667,-14.004 -1.667,-21.225c-0,-7.221 0.57,-14.31 1.667,-21.224c0.308,-1.941 1.907,-3.418 3.866,-3.571l40.73,-3.183c1.599,-5.05 3.62,-9.914 6.02,-14.55l-26.602,-30.982c-1.28,-1.492 -1.371,-3.666 -0.219,-5.259c8.393,-11.61 18.593,-21.831 30.185,-30.248c1.59,-1.155 3.765,-1.069 5.259,0.208l31.037,26.537c4.631,-2.41 9.49,-4.441 14.536,-6.051l3.099,-40.737c0.149,-1.96 1.623,-3.562 3.563,-3.874c7.003,-1.126 14.186,-1.711 21.505,-1.711l0.011,-0c7.318,-0 14.501,0.585 21.504,1.711c1.941,0.312 3.414,1.914 3.563,3.874l3.1,40.737c5.046,1.61 9.905,3.641 14.536,6.051l31.037,-26.537c1.493,-1.277 3.668,-1.363 5.259,-0.208c11.592,8.417 21.791,18.638 30.185,30.248c1.152,1.593 1.061,3.767 -0.22,5.259l-26.601,30.982c2.4,4.636 4.42,9.5 6.02,14.55l40.729,3.183c1.96,0.153 3.559,1.63 3.867,3.571c1.097,6.914 1.667,14.003 1.667,21.224c-0,7.221 -0.57,14.31 -1.667,21.225c-0.308,1.941 -1.907,3.418 -3.867,3.571l-40.73,3.183c-1.599,5.05 -3.619,9.914 -6.019,14.55l26.601,30.982c1.281,1.491 1.372,3.666 0.22,5.259c-8.394,11.61 -18.593,21.83 -30.185,30.248c-1.591,1.155 -3.766,1.069 -5.259,-0.209l-31.037,-26.537c-4.631,2.411 -9.49,4.441 -14.537,6.051l-3.099,40.738c-0.149,1.959 -1.622,3.561 -3.563,3.873c-7.003,1.126 -14.186,1.712 -21.504,1.712Zm-0,-260.791l-0.011,-0c-5.713,-0 -11.337,0.38 -16.85,1.117l-3.063,40.256c-0.135,1.776 -1.364,3.28 -3.078,3.766c-6.4,1.816 -12.49,4.37 -18.173,7.565c-1.555,0.874 -3.49,0.685 -4.845,-0.474l-30.673,-26.226c-8.879,6.812 -16.827,14.777 -23.621,23.671l26.289,30.619c1.162,1.353 1.355,3.287 0.485,4.843c-3.183,5.69 -5.724,11.786 -7.526,18.19c-0.483,1.715 -1.984,2.948 -3.76,3.086l-40.249,3.147c-0.714,5.428 -1.082,10.964 -1.082,16.585c-0,5.622 0.368,11.158 1.082,16.586l40.249,3.146c1.776,0.139 3.277,1.371 3.76,3.086c1.802,6.405 4.343,12.501 7.526,18.19c0.87,1.557 0.677,3.491 -0.485,4.844l-26.289,30.619c6.794,8.894 14.742,16.859 23.621,23.67l30.673,-26.225c1.355,-1.159 3.29,-1.348 4.845,-0.475c5.683,3.196 11.773,5.75 18.173,7.565c1.714,0.487 2.943,1.99 3.078,3.767l3.063,40.256c5.513,0.737 11.137,1.117 16.85,1.117l0.011,-0c5.712,-0 11.337,-0.38 16.849,-1.117l3.063,-40.256c0.135,-1.777 1.364,-3.28 3.078,-3.767c6.4,-1.815 12.491,-4.369 18.174,-7.565c1.554,-0.873 3.489,-0.684 4.845,0.475l30.673,26.225c8.878,-6.811 16.827,-14.776 23.62,-23.67l-26.289,-30.619c-1.161,-1.353 -1.355,-3.287 -0.484,-4.844c3.182,-5.689 5.724,-11.785 7.526,-18.19c0.482,-1.715 1.983,-2.947 3.76,-3.086l40.248,-3.146c0.714,-5.428 1.083,-10.964 1.083,-16.586c-0,-5.621 -0.369,-11.157 -1.083,-16.585l-40.248,-3.147c-1.777,-0.138 -3.278,-1.371 -3.76,-3.086c-1.802,-6.404 -4.344,-12.5 -7.526,-18.19c-0.871,-1.556 -0.677,-3.49 0.484,-4.843l26.29,-30.619c-6.794,-8.894 -14.743,-16.859 -23.621,-23.671l-30.673,26.226c-1.356,1.159 -3.291,1.348 -4.845,0.474c-5.683,-3.195 -11.774,-5.749 -18.174,-7.565c-1.714,-0.486 -2.943,-1.99 -3.078,-3.766l-3.063,-40.256c-5.512,-0.737 -11.136,-1.117 -16.849,-1.117Zm-0,195.623l-0.011,0c-38.346,0 -69.478,-31.132 -69.478,-69.478c-0,-38.346 31.132,-69.478 69.478,-69.478l0.011,0c38.346,0 69.478,31.132 69.478,69.478c0,38.346 -31.132,69.478 -69.478,69.478Zm-0,-130.456l-0.011,0c-33.655,0 -60.978,27.324 -60.978,60.978c-0,33.655 27.323,60.978 60.978,60.978l0.011,0c33.655,0 60.978,-27.323 60.978,-60.978c-0,-33.654 -27.323,-60.978 -60.978,-60.978Z" style="fill:#56a8ff;"/><path d="M141.738,276.378l-0.011,-0c-7.319,-0 -14.502,-0.586 -21.505,-1.712c-1.94,-0.312 -3.414,-1.914 -3.563,-3.873l-3.099,-40.738c-5.046,-1.61 -9.905,-3.64 -14.536,-6.051l-31.037,26.537c-1.494,1.278 -3.669,1.364 -5.259,0.209c-11.592,-8.418 -21.792,-18.638 -30.185,-30.248c-1.152,-1.593 -1.061,-3.768 0.219,-5.259l26.602,-30.982c-2.4,-4.636 -4.421,-9.5 -6.02,-14.55l-40.73,-3.183c-1.959,-0.153 -3.558,-1.63 -3.866,-3.571c-1.097,-6.915 -1.667,-14.004 -1.667,-21.225c-0,-7.221 0.57,-14.31 1.667,-21.224c0.308,-1.941 1.907,-3.418 3.866,-3.571l40.73,-3.183c1.599,-5.05 3.62,-9.914 6.02,-14.55l-26.602,-30.982c-1.28,-1.492 -1.371,-3.666 -0.219,-5.259c8.393,-11.61 18.593,-21.831 30.185,-30.248c1.59,-1.155 3.765,-1.069 5.259,0.208l31.037,26.537c4.631,-2.41 9.49,-4.441 14.536,-6.051l3.099,-40.737c0.149,-1.96 1.623,-3.562 3.563,-3.874c7.003,-1.126 14.186,-1.711 21.505,-1.711l0.011,-0c7.318,-0 14.501,0.585 21.504,1.711c1.941,0.312 3.414,1.914 3.563,3.874l3.1,40.737c5.046,1.61 9.905,3.641 14.536,6.051l31.037,-26.537c1.493,-1.277 3.668,-1.363 5.259,-0.208c11.592,8.417 21.791,18.638 30.185,30.248c1.152,1.593 1.061,3.767 -0.22,5.259l-26.601,30.982c2.4,4.636 4.42,9.5 6.02,14.55l40.729,3.183c1.96,0.153 3.559,1.63 3.867,3.571c1.097,6.914 1.667,14.003 1.667,21.224c-0,7.221 -0.57,14.31 -1.667,21.225c-0.308,1.941 -1.907,3.418 -3.867,3.571l-40.73,3.183c-1.599,5.05 -3.619,9.914 -6.019,14.55l26.601,30.982c1.281,1.491 1.372,3.666 0.22,5.259c-8.394,11.61 -18.593,21.83 -30.185,30.248c-1.591,1.155 -3.766,1.069 -5.259,-0.209l-31.037,-26.537c-4.631,2.411 -9.49,4.441 -14.537,6.051l-3.099,40.738c-0.149,1.959 -1.622,3.561 -3.563,3.873c-7.003,1.126 -14.186,1.712 -21.504,1.712Zm-0,-195.624l-0.011,0c-33.655,0 -60.978,27.324 -60.978,60.978c-0,33.655 27.323,60.978 60.978,60.978l0.011,0c33.655,0 60.978,-27.323 60.978,-60.978c-0,-33.654 -27.323,-60.978 -60.978,-60.978Z" style="fill:#56a8ff;"/><path d="M141.738,15.587l-0.011,-0c-5.713,-0 -11.337,0.38 -16.85,1.117l-0.355,4.67l-8.525,-0l0.662,-8.702c0.149,-1.96 1.623,-3.562 3.563,-3.874c7.003,-1.126 14.186,-1.711 21.505,-1.711l0.011,-0c7.318,-0 14.501,0.585 21.504,1.711c1.941,0.312 3.414,1.914 3.563,3.874l0.662,8.702l-8.524,-0l-0.356,-4.67c-5.512,-0.737 -11.136,-1.117 -16.849,-1.117Zm-0,65.167l-0.011,0c-18.028,0 -34.238,7.84 -45.406,20.293l-3.913,0l0,-8.233c12.592,-12.694 30.044,-20.56 49.319,-20.56l0.011,0c19.275,0 36.726,7.866 49.318,20.56l0,8.233l-3.913,0c-11.167,-12.453 -27.378,-20.293 -45.405,-20.293Zm-0,130.456l-0.011,0c-19.275,0 -36.727,-7.865 -49.319,-20.559l0,-6.718l5.319,-0c11.1,11.57 26.715,18.777 44,18.777l0.011,0c17.285,0 32.899,-7.207 44,-18.777l5.318,-0l0,6.718c-12.592,12.694 -30.043,20.559 -49.318,20.559Zm-0,65.168l-0.011,-0c-7.319,-0 -14.502,-0.586 -21.505,-1.712c-1.94,-0.312 -3.414,-1.914 -3.563,-3.873l-0.546,-7.187l8.524,-0l0.24,3.155c5.513,0.737 11.137,1.117 16.85,1.117l0.011,-0c5.712,-0 11.337,-0.38 16.849,-1.117l0.24,-3.155l8.525,-0l-0.547,7.187c-0.149,1.959 -1.622,3.561 -3.563,3.873c-7.003,1.126 -14.186,1.712 -21.504,1.712Zm-134.657,-134.646c-0,-7.221 0.57,-14.31 1.667,-21.224c0.05,-0.314 0.133,-0.616 0.247,-0.902l-0,44.253c-0.114,-0.286 -0.197,-0.588 -0.247,-0.902c-1.097,-6.915 -1.667,-14.004 -1.667,-21.225Zm87.773,38.988l-2.446,0l0,-3.138c0.782,1.073 1.598,2.12 2.446,3.138Zm-5.658,6.466c-0.916,-1.057 -1.8,-2.142 -2.651,-3.253l2.651,-0l-0,3.253Zm-0,34.038l-0,11.184l-21.209,18.133c-1.494,1.278 -3.669,1.364 -5.259,0.209c-11.592,-8.418 -21.792,-18.638 -30.185,-30.248c-1.152,-1.593 -1.061,-3.768 0.219,-5.259l26.602,-30.982l-0.169,-0.328l9.451,-0c0.27,1.273 -0.054,2.628 -0.933,3.651l-26.289,30.619c6.794,8.894 14.742,16.859 23.621,23.67l24.151,-20.649Zm35.197,39.169l-8.525,0l-2.308,-30.338c-5.046,-1.61 -9.905,-3.64 -14.536,-6.051l-6.616,5.657l0,-11.184l3.31,-2.829c1.355,-1.159 3.29,-1.348 4.845,-0.475c5.683,3.196 11.773,5.75 18.173,7.565c1.714,0.487 2.943,1.99 3.078,3.767l2.579,33.888Zm-40.168,-79.673c-7.558,-11.119 -11.976,-24.542 -11.976,-38.988c-0,-13.796 4.029,-26.658 10.975,-37.472l5.972,-0l-0,6.507c-5.367,9.078 -8.447,19.665 -8.447,30.965c-0,11.301 3.08,21.887 8.447,30.966l-0,8.022l-4.971,0Zm1.191,-79.673c1.191,-1.645 2.453,-3.236 3.78,-4.768l-0,4.768l-3.78,0Zm6.992,4.835l0,-1.622l1.224,-0c-0.417,0.533 -0.825,1.074 -1.224,1.622Zm-80.201,60.594l0,-49.488c0.134,-0.023 0.27,-0.04 0.407,-0.051l40.73,-3.183c1.028,-3.246 2.229,-6.414 3.594,-9.494l9.391,-0c-2.321,4.656 -4.223,9.558 -5.657,14.654c-0.483,1.715 -1.984,2.948 -3.76,3.086l-40.249,3.147c-0.714,5.428 -1.082,10.964 -1.082,16.585c-0,5.622 0.368,11.158 1.082,16.586l40.249,3.146c1.776,0.139 3.277,1.371 3.76,3.086c1.59,5.653 3.757,11.065 6.432,16.17l-9.478,0c-1.652,-3.554 -3.085,-7.229 -4.282,-11.009l-40.73,-3.183c-0.137,-0.011 -0.273,-0.028 -0.407,-0.052Zm55.811,-65.429l-9.582,0c0.302,-0.618 0.612,-1.232 0.928,-1.843l-26.602,-30.982c-1.28,-1.492 -1.371,-3.666 -0.219,-5.259c8.393,-11.61 18.593,-21.831 30.185,-30.248c1.59,-1.155 3.765,-1.069 5.259,0.208l21.209,18.134l-0,11.183l-24.151,-20.649c-8.879,6.812 -16.827,14.777 -23.621,23.671l26.289,30.619c1.162,1.353 1.355,3.287 0.485,4.843l-0.18,0.323Zm24.39,-36.06l0,-11.183l6.616,5.656c4.631,-2.41 9.49,-4.441 14.536,-6.051l2.193,-28.823l8.525,0l-2.464,32.374c-0.135,1.776 -1.364,3.28 -3.078,3.766c-6.4,1.816 -12.49,4.37 -18.173,7.565c-1.555,0.874 -3.49,0.685 -4.845,-0.474l-3.31,-2.83Zm183.976,76.745c-0,7.221 -0.57,14.31 -1.667,21.225c-0.05,0.314 -0.134,0.616 -0.247,0.902l-0,-44.253c0.113,0.286 0.197,0.588 0.247,0.902c1.097,6.914 1.667,14.003 1.667,21.224Zm-87.773,38.988c0.848,-1.018 1.664,-2.065 2.445,-3.138l0,3.138l-2.445,0Zm5.658,6.466l-0,-3.253l2.651,-0c-0.852,1.111 -1.736,2.196 -2.651,3.253Zm-0,34.038l24.151,20.649c8.878,-6.811 16.827,-14.776 23.62,-23.67l-26.289,-30.619c-0.878,-1.023 -1.203,-2.378 -0.933,-3.651l9.452,-0l-0.169,0.328l26.601,30.982c1.281,1.491 1.372,3.666 0.22,5.259c-8.394,11.61 -18.593,21.83 -30.185,30.248c-1.591,1.155 -3.766,1.069 -5.259,-0.209l-21.209,-18.133l-0,-11.184Zm-35.197,39.169l2.578,-33.888c0.135,-1.777 1.364,-3.28 3.078,-3.767c6.4,-1.815 12.491,-4.369 18.174,-7.565c1.554,-0.873 3.489,-0.684 4.845,0.475l3.309,2.829l0,11.184l-6.615,-5.657c-4.631,2.411 -9.49,4.441 -14.537,6.051l-2.308,30.338l-8.524,0Zm40.168,-79.673l-4.971,0l-0,-8.022c5.366,-9.079 8.447,-19.665 8.447,-30.966c-0,-11.3 -3.081,-21.887 -8.447,-30.965l-0,-6.507l5.972,-0c6.945,10.814 10.975,23.676 10.975,37.472c0,14.446 -4.418,27.869 -11.976,38.988Zm-1.191,-79.673l-3.78,0l-0,-4.768c1.327,1.532 2.588,3.123 3.78,4.768Zm-6.993,4.835c-0.399,-0.548 -0.807,-1.089 -1.224,-1.622l1.224,-0l0,1.622Zm80.201,60.594c-0.133,0.024 -0.269,0.041 -0.407,0.052l-40.73,3.183c-1.196,3.78 -2.629,7.455 -4.281,11.009l-9.478,0c2.675,-5.105 4.841,-10.517 6.432,-16.17c0.482,-1.715 1.983,-2.947 3.76,-3.086l40.248,-3.146c0.714,-5.428 1.083,-10.964 1.083,-16.586c-0,-5.621 -0.369,-11.157 -1.083,-16.585l-40.248,-3.147c-1.777,-0.138 -3.278,-1.371 -3.76,-3.086c-1.434,-5.096 -3.336,-9.998 -5.658,-14.654l9.392,-0c1.364,3.08 2.566,6.248 3.594,9.494l40.729,3.183c0.138,0.011 0.274,0.028 0.407,0.051l0,49.488Zm-55.811,-65.429l-0.179,-0.323c-0.871,-1.556 -0.677,-3.49 0.484,-4.843l26.29,-30.619c-6.794,-8.894 -14.743,-16.859 -23.621,-23.671l-24.151,20.649l-0,-11.183l21.209,-18.134c1.493,-1.277 3.668,-1.363 5.259,-0.208c11.592,8.417 21.791,18.638 30.185,30.248c1.152,1.593 1.061,3.767 -0.22,5.259l-26.601,30.982c0.316,0.611 0.625,1.225 0.928,1.843l-9.583,0Zm-24.39,-36.06l-3.309,2.83c-1.356,1.159 -3.291,1.348 -4.845,0.474c-5.683,-3.195 -11.774,-5.749 -18.174,-7.565c-1.714,-0.486 -2.943,-1.99 -3.078,-3.766l-2.463,-32.374l8.525,0l2.193,28.823c5.046,1.61 9.905,3.641 14.536,6.051l6.615,-5.656l0,11.183Z" style="fill:#1581f3;"/></g></svg>